<?xml version="1.0" standalone="no"?>
 <!DOCTYPE svg PUBLIC "-//W3C//DTD SVG 1.1//EN" 
 "http://www.w3.org/Graphics/SVG/1.1/DTD/svg11.dtd"> 
<svg
  xmlns:svg="http://www.w3.org/2000/svg"
  xmlns="http://www.w3.org/2000/svg"
  xmlns:xlink="http://www.w3.org/1999/xlink"
  version="1.1"
  width="150.1902mm" height="100.1776mm" viewBox="0.0000 0.0000 150.1902 100.1776">
<title>SVG Image created as AC to DC-brd.svg date 2024/11/09 15:38:22 </title>
  <desc>Image generated by PCBNEW </desc>
<g style="fill:#000000; fill-opacity:1.0000;stroke:#000000; stroke-opacity:1.0000;
stroke-linecap:round; stroke-linejoin:round;"
 transform="translate(0 0) scale(1 1)">
</g>
<g style="fill:#000000; fill-opacity:1.0000; stroke:none;">
<circle cx="126.2852" cy="27.1000" r="0.6500" /> 
</g>
<g style="fill:#000000; fill-opacity:1.0000; stroke:none;">
<circle cx="126.2852" cy="22.1000" r="0.6500" /> 
</g>
<g style="fill:#000000; fill-opacity:1.0000; stroke:none;">
<circle cx="110.4202" cy="82.3500" r="0.5500" /> 
</g>
<g style="fill:#000000; fill-opacity:1.0000; stroke:none;">
<circle cx="100.2602" cy="82.3500" r="0.5500" /> 
</g>
<g style="fill:#000000; fill-opacity:1.0000; stroke:none;">
<circle cx="100.3402" cy="69.3500" r="0.5500" /> 
</g>
<g style="fill:#000000; fill-opacity:1.0000; stroke:none;">
<circle cx="110.5002" cy="69.3500" r="0.5500" /> 
</g>
<g style="fill:#000000; fill-opacity:1.0000; stroke:none;">
<circle cx="110.5002" cy="75.8500" r="0.5500" /> 
</g>
<g style="fill:#000000; fill-opacity:1.0000; stroke:none;">
<circle cx="100.3402" cy="75.8500" r="0.5500" /> 
</g>
<g style="fill:#000000; fill-opacity:1.0000; stroke:none;">
<circle cx="48.5902" cy="71.3500" r="0.4000" /> 
</g>
<g style="fill:#000000; fill-opacity:1.0000; stroke:none;">
<circle cx="48.5902" cy="68.8500" r="0.4000" /> 
</g>
<g style="fill:#000000; fill-opacity:1.0000; stroke:none;">
<circle cx="121.3952" cy="68.6000" r="0.6500" /> 
</g>
<g style="fill:#000000; fill-opacity:1.0000; stroke:none;">
<circle cx="121.3952" cy="73.6000" r="0.6500" /> 
</g>
<g style="fill:#000000; fill-opacity:1.0000; stroke:none;">
<circle cx="68.6452" cy="56.6000" r="0.5500" /> 
</g>
<g style="fill:#000000; fill-opacity:1.0000; stroke:none;">
<circle cx="68.6452" cy="59.1400" r="0.5500" /> 
</g>
<g style="fill:#000000; fill-opacity:1.0000; stroke:none;">
<circle cx="68.6452" cy="61.6800" r="0.5500" /> 
</g>
<g style="fill:#000000; fill-opacity:1.0000; stroke:none;">
<circle cx="100.3402" cy="62.8500" r="0.5500" /> 
</g>
<g style="fill:#000000; fill-opacity:1.0000; stroke:none;">
<circle cx="110.5002" cy="62.8500" r="0.5500" /> 
</g>
<g style="fill:#000000; fill-opacity:1.0000; stroke:none;">
<circle cx="63.1452" cy="88.8900" r="0.5500" /> 
</g>
<g style="fill:#000000; fill-opacity:1.0000; stroke:none;">
<circle cx="63.1452" cy="86.3500" r="0.5500" /> 
</g>
<g style="fill:#000000; fill-opacity:1.0000; stroke:none;">
<circle cx="63.1452" cy="83.8100" r="0.5500" /> 
</g>
<g style="fill:#000000; fill-opacity:1.0000; stroke:none;">
<circle cx="34.5902" cy="69.1000" r="0.6500" /> 
</g>
<g style="fill:#000000; fill-opacity:1.0000; stroke:none;">
<circle cx="34.5902" cy="74.1000" r="0.6500" /> 
</g>
<g style="fill:#000000; fill-opacity:1.0000; stroke:none;">
<circle cx="87.8402" cy="72.6449" r="0.4000" /> 
</g>
<g style="fill:#000000; fill-opacity:1.0000; stroke:none;">
<circle cx="87.8402" cy="75.1449" r="0.4000" /> 
</g>
<g style="fill:#000000; fill-opacity:1.0000; stroke:none;">
<circle cx="35.0352" cy="84.6000" r="0.6500" /> 
</g>
<g style="fill:#000000; fill-opacity:1.0000; stroke:none;">
<circle cx="35.0352" cy="89.6000" r="0.6500" /> 
</g>
<g style="fill:#000000; fill-opacity:1.0000; stroke:none;">
<circle cx="45.8402" cy="86.3500" r="0.4000" /> 
</g>
<g style="fill:#000000; fill-opacity:1.0000; stroke:none;">
<circle cx="45.8402" cy="83.8500" r="0.4000" /> 
</g>
<g style="fill:none; 
stroke:#000000; stroke-width:0.1500; stroke-opacity:1; 
stroke-linecap:round; stroke-linejoin:round;">
<g transform="rotate(90.000000 132.5452 24.6000)">
<text x="132.5452" y="25.1000"
transform="scale(-1 1) translate(-265.090400 0)"
textLength="1.9643" font-size="1.3333" lengthAdjust="spacingAndGlyphs"
text-anchor="middle" opacity="0" stroke-opacity="0">J4</text>
</g>
<g class="stroked-text"><desc>J4</desc>
<path d="M133.0904 24.9333
L132.3761 24.9333
" />
<path d="M132.3761 24.9333
L132.2332 24.9810
" />
<path d="M132.2332 24.9810
L132.1380 25.0762
" />
<path d="M132.1380 25.0762
L132.0904 25.2190
" />
<path d="M132.0904 25.2190
L132.0904 25.3143
" />
<path d="M132.7570 24.0286
L132.0904 24.0286
" />
<path d="M133.1380 24.2667
L132.4237 24.5048
" />
<path d="M132.4237 24.5048
L132.4237 23.8857
" />
</g><text x="105.4202" y="79.3800"
transform="scale(-1 1) translate(-210.840400 0)"
textLength="2.2024" font-size="1.3333" lengthAdjust="spacingAndGlyphs"
text-anchor="middle" opacity="0" stroke-opacity="0">D4</text>
<g class="stroked-text"><desc>D4</desc>
<path d="M106.1583 79.3348
L106.1583 78.3348
" />
<path d="M106.1583 78.3348
L105.9202 78.3348
" />
<path d="M105.9202 78.3348
L105.7773 78.3824
" />
<path d="M105.7773 78.3824
L105.6821 78.4777
" />
<path d="M105.6821 78.4777
L105.6345 78.5729
" />
<path d="M105.6345 78.5729
L105.5869 78.7634
" />
<path d="M105.5869 78.7634
L105.5869 78.9062
" />
<path d="M105.5869 78.9062
L105.6345 79.0967
" />
<path d="M105.6345 79.0967
L105.6821 79.1920
" />
<path d="M105.6821 79.1920
L105.7773 79.2872
" />
<path d="M105.7773 79.2872
L105.9202 79.3348
" />
<path d="M105.9202 79.3348
L106.1583 79.3348
" />
<path d="M104.7297 78.6682
L104.7297 79.3348
" />
<path d="M104.9678 78.2872
L105.2059 79.0015
" />
<path d="M105.2059 79.0015
L104.5869 79.0015
" />
</g><text x="110.5002" y="79.7500"
transform="scale(-1 1) translate(-221.000400 0)"
textLength="1.2500" font-size="1.3333" lengthAdjust="spacingAndGlyphs"
text-anchor="middle" opacity="0" stroke-opacity="0">K</text>
<g class="stroked-text"><desc>K</desc>
<path d="M110.7621 79.7048
L110.7621 78.7048
" />
<path d="M110.1907 79.7048
L110.6192 79.1334
" />
<path d="M110.1907 78.7048
L110.7621 79.2762
" />
</g><text x="105.4202" y="72.3200"
transform="scale(-1 1) translate(-210.840400 0)"
textLength="2.2024" font-size="1.3333" lengthAdjust="spacingAndGlyphs"
text-anchor="middle" opacity="0" stroke-opacity="0">D2</text>
<g class="stroked-text"><desc>D2</desc>
<path d="M106.1583 72.2748
L106.1583 71.2748
" />
<path d="M106.1583 71.2748
L105.9202 71.2748
" />
<path d="M105.9202 71.2748
L105.7773 71.3224
" />
<path d="M105.7773 71.3224
L105.6821 71.4177
" />
<path d="M105.6821 71.4177
L105.6345 71.5129
" />
<path d="M105.6345 71.5129
L105.5869 71.7034
" />
<path d="M105.5869 71.7034
L105.5869 71.8462
" />
<path d="M105.5869 71.8462
L105.6345 72.0367
" />
<path d="M105.6345 72.0367
L105.6821 72.1320
" />
<path d="M105.6821 72.1320
L105.7773 72.2272
" />
<path d="M105.7773 72.2272
L105.9202 72.2748
" />
<path d="M105.9202 72.2748
L106.1583 72.2748
" />
<path d="M105.2059 71.3701
L105.1583 71.3224
" />
<path d="M105.1583 71.3224
L105.0631 71.2748
" />
<path d="M105.0631 71.2748
L104.8250 71.2748
" />
<path d="M104.8250 71.2748
L104.7297 71.3224
" />
<path d="M104.7297 71.3224
L104.6821 71.3701
" />
<path d="M104.6821 71.3701
L104.6345 71.4653
" />
<path d="M104.6345 71.4653
L104.6345 71.5605
" />
<path d="M104.6345 71.5605
L104.6821 71.7034
" />
<path d="M104.6821 71.7034
L105.2535 72.2748
" />
<path d="M105.2535 72.2748
L104.6345 72.2748
" />
</g><text x="100.3402" y="71.9500"
transform="scale(-1 1) translate(-200.680400 0)"
textLength="1.2500" font-size="1.3333" lengthAdjust="spacingAndGlyphs"
text-anchor="middle" opacity="0" stroke-opacity="0">K</text>
<g class="stroked-text"><desc>K</desc>
<path d="M100.6021 71.9048
L100.6021 70.9048
" />
<path d="M100.0307 71.9048
L100.4592 71.3334
" />
<path d="M100.0307 70.9048
L100.6021 71.4762
" />
</g><text x="105.4202" y="73.8800"
transform="scale(-1 1) translate(-210.840400 0)"
textLength="2.2024" font-size="1.3333" lengthAdjust="spacingAndGlyphs"
text-anchor="middle" opacity="0" stroke-opacity="0">D3</text>
<g class="stroked-text"><desc>D3</desc>
<path d="M106.1583 73.8348
L106.1583 72.8348
" />
<path d="M106.1583 72.8348
L105.9202 72.8348
" />
<path d="M105.9202 72.8348
L105.7773 72.8824
" />
<path d="M105.7773 72.8824
L105.6821 72.9777
" />
<path d="M105.6821 72.9777
L105.6345 73.0729
" />
<path d="M105.6345 73.0729
L105.5869 73.2634
" />
<path d="M105.5869 73.2634
L105.5869 73.4062
" />
<path d="M105.5869 73.4062
L105.6345 73.5967
" />
<path d="M105.6345 73.5967
L105.6821 73.6920
" />
<path d="M105.6821 73.6920
L105.7773 73.7872
" />
<path d="M105.7773 73.7872
L105.9202 73.8348
" />
<path d="M105.9202 73.8348
L106.1583 73.8348
" />
<path d="M105.2535 72.8348
L104.6345 72.8348
" />
<path d="M104.6345 72.8348
L104.9678 73.2158
" />
<path d="M104.9678 73.2158
L104.8250 73.2158
" />
<path d="M104.8250 73.2158
L104.7297 73.2634
" />
<path d="M104.7297 73.2634
L104.6821 73.3110
" />
<path d="M104.6821 73.3110
L104.6345 73.4062
" />
<path d="M104.6345 73.4062
L104.6345 73.6443
" />
<path d="M104.6345 73.6443
L104.6821 73.7396
" />
<path d="M104.6821 73.7396
L104.7297 73.7872
" />
<path d="M104.7297 73.7872
L104.8250 73.8348
" />
<path d="M104.8250 73.8348
L105.1107 73.8348
" />
<path d="M105.1107 73.8348
L105.2059 73.7872
" />
<path d="M105.2059 73.7872
L105.2535 73.7396
" />
</g><text x="110.5002" y="74.2500"
transform="scale(-1 1) translate(-221.000400 0)"
textLength="1.2500" font-size="1.3333" lengthAdjust="spacingAndGlyphs"
text-anchor="middle" opacity="0" stroke-opacity="0">K</text>
<g class="stroked-text"><desc>K</desc>
<path d="M110.7621 74.2048
L110.7621 73.2048
" />
<path d="M110.1907 74.2048
L110.6192 73.6334
" />
<path d="M110.1907 73.2048
L110.7621 73.7762
" />
</g><g transform="rotate(90.000000 46.2902 70.1000)">
<text x="46.2902" y="70.6000"
transform="scale(-1 1) translate(-92.580400 0)"
textLength="2.2024" font-size="1.3333" lengthAdjust="spacingAndGlyphs"
text-anchor="middle" opacity="0" stroke-opacity="0">C2</text>
</g>
<g class="stroked-text"><desc>C2</desc>
<path d="M45.9306 70.2667
L45.8830 70.3143
" />
<path d="M45.8830 70.3143
L45.8354 70.4571
" />
<path d="M45.8354 70.4571
L45.8354 70.5524
" />
<path d="M45.8354 70.5524
L45.8830 70.6952
" />
<path d="M45.8830 70.6952
L45.9782 70.7905
" />
<path d="M45.9782 70.7905
L46.0735 70.8381
" />
<path d="M46.0735 70.8381
L46.2640 70.8857
" />
<path d="M46.2640 70.8857
L46.4068 70.8857
" />
<path d="M46.4068 70.8857
L46.5973 70.8381
" />
<path d="M46.5973 70.8381
L46.6925 70.7905
" />
<path d="M46.6925 70.7905
L46.7878 70.6952
" />
<path d="M46.7878 70.6952
L46.8354 70.5524
" />
<path d="M46.8354 70.5524
L46.8354 70.4571
" />
<path d="M46.8354 70.4571
L46.7878 70.3143
" />
<path d="M46.7878 70.3143
L46.7401 70.2667
" />
<path d="M46.7401 69.8857
L46.7878 69.8381
" />
<path d="M46.7878 69.8381
L46.8354 69.7429
" />
<path d="M46.8354 69.7429
L46.8354 69.5048
" />
<path d="M46.8354 69.5048
L46.7878 69.4095
" />
<path d="M46.7878 69.4095
L46.7401 69.3619
" />
<path d="M46.7401 69.3619
L46.6449 69.3143
" />
<path d="M46.6449 69.3143
L46.5497 69.3143
" />
<path d="M46.5497 69.3143
L46.4068 69.3619
" />
<path d="M46.4068 69.3619
L45.8354 69.9333
" />
<path d="M45.8354 69.9333
L45.8354 69.3143
" />
</g><g transform="rotate(90.000000 74.8402 86.3500)">
<text x="74.8402" y="86.8500"
transform="scale(-1 1) translate(-149.680400 0)"
textLength="3.2024" font-size="1.3333" lengthAdjust="spacingAndGlyphs"
text-anchor="middle" opacity="0" stroke-opacity="0">HS2</text>
</g>
<g class="stroked-text"><desc>HS2</desc>
<path d="M74.3854 87.5881
L75.3854 87.5881
" />
<path d="M74.9092 87.5881
L74.9092 87.0167
" />
<path d="M74.3854 87.0167
L75.3854 87.0167
" />
<path d="M74.4330 86.5881
L74.3854 86.4452
" />
<path d="M74.3854 86.4452
L74.3854 86.2071
" />
<path d="M74.3854 86.2071
L74.4330 86.1119
" />
<path d="M74.4330 86.1119
L74.4806 86.0643
" />
<path d="M74.4806 86.0643
L74.5759 86.0167
" />
<path d="M74.5759 86.0167
L74.6711 86.0167
" />
<path d="M74.6711 86.0167
L74.7663 86.0643
" />
<path d="M74.7663 86.0643
L74.8140 86.1119
" />
<path d="M74.8140 86.1119
L74.8616 86.2071
" />
<path d="M74.8616 86.2071
L74.9092 86.3976
" />
<path d="M74.9092 86.3976
L74.9568 86.4929
" />
<path d="M74.9568 86.4929
L75.0044 86.5405
" />
<path d="M75.0044 86.5405
L75.0997 86.5881
" />
<path d="M75.0997 86.5881
L75.1949 86.5881
" />
<path d="M75.1949 86.5881
L75.2901 86.5405
" />
<path d="M75.2901 86.5405
L75.3378 86.4929
" />
<path d="M75.3378 86.4929
L75.3854 86.3976
" />
<path d="M75.3854 86.3976
L75.3854 86.1595
" />
<path d="M75.3854 86.1595
L75.3378 86.0167
" />
<path d="M75.2901 85.6357
L75.3378 85.5881
" />
<path d="M75.3378 85.5881
L75.3854 85.4929
" />
<path d="M75.3854 85.4929
L75.3854 85.2548
" />
<path d="M75.3854 85.2548
L75.3378 85.1595
" />
<path d="M75.3378 85.1595
L75.2901 85.1119
" />
<path d="M75.2901 85.1119
L75.1949 85.0643
" />
<path d="M75.1949 85.0643
L75.0997 85.0643
" />
<path d="M75.0997 85.0643
L74.9568 85.1119
" />
<path d="M74.9568 85.1119
L74.3854 85.6833
" />
<path d="M74.3854 85.6833
L74.3854 85.0643
" />
</g><g transform="rotate(90.000000 115.1352 71.1000)">
<text x="115.1352" y="71.6000"
transform="scale(-1 1) translate(-230.270400 0)"
textLength="1.9643" font-size="1.3333" lengthAdjust="spacingAndGlyphs"
text-anchor="middle" opacity="0" stroke-opacity="0">J1</text>
</g>
<g class="stroked-text"><desc>J1</desc>
<path d="M115.6804 71.4333
L114.9661 71.4333
" />
<path d="M114.9661 71.4333
L114.8232 71.4810
" />
<path d="M114.8232 71.4810
L114.7280 71.5762
" />
<path d="M114.7280 71.5762
L114.6804 71.7190
" />
<path d="M114.6804 71.7190
L114.6804 71.8143
" />
<path d="M114.6804 70.4333
L114.6804 71.0048
" />
<path d="M114.6804 70.7190
L115.6804 70.7190
" />
<path d="M115.6804 70.7190
L115.5375 70.8143
" />
<path d="M115.5375 70.8143
L115.4423 70.9095
" />
<path d="M115.4423 70.9095
L115.3947 71.0048
" />
</g><g transform="rotate(90.000000 78.0902 59.1000)">
<text x="78.0902" y="59.6000"
transform="scale(-1 1) translate(-156.180400 0)"
textLength="3.2024" font-size="1.3333" lengthAdjust="spacingAndGlyphs"
text-anchor="middle" opacity="0" stroke-opacity="0">HS1</text>
</g>
<g class="stroked-text"><desc>HS1</desc>
<path d="M77.6354 60.3381
L78.6354 60.3381
" />
<path d="M78.1592 60.3381
L78.1592 59.7667
" />
<path d="M77.6354 59.7667
L78.6354 59.7667
" />
<path d="M77.6830 59.3381
L77.6354 59.1952
" />
<path d="M77.6354 59.1952
L77.6354 58.9571
" />
<path d="M77.6354 58.9571
L77.6830 58.8619
" />
<path d="M77.6830 58.8619
L77.7306 58.8143
" />
<path d="M77.7306 58.8143
L77.8259 58.7667
" />
<path d="M77.8259 58.7667
L77.9211 58.7667
" />
<path d="M77.9211 58.7667
L78.0163 58.8143
" />
<path d="M78.0163 58.8143
L78.0640 58.8619
" />
<path d="M78.0640 58.8619
L78.1116 58.9571
" />
<path d="M78.1116 58.9571
L78.1592 59.1476
" />
<path d="M78.1592 59.1476
L78.2068 59.2429
" />
<path d="M78.2068 59.2429
L78.2544 59.2905
" />
<path d="M78.2544 59.2905
L78.3497 59.3381
" />
<path d="M78.3497 59.3381
L78.4449 59.3381
" />
<path d="M78.4449 59.3381
L78.5401 59.2905
" />
<path d="M78.5401 59.2905
L78.5878 59.2429
" />
<path d="M78.5878 59.2429
L78.6354 59.1476
" />
<path d="M78.6354 59.1476
L78.6354 58.9095
" />
<path d="M78.6354 58.9095
L78.5878 58.7667
" />
<path d="M77.6354 57.8143
L77.6354 58.3857
" />
<path d="M77.6354 58.1000
L78.6354 58.1000
" />
<path d="M78.6354 58.1000
L78.4925 58.1952
" />
<path d="M78.4925 58.1952
L78.3973 58.2905
" />
<path d="M78.3973 58.2905
L78.3497 58.3857
" />
</g><g transform="rotate(90.000000 72.3352 58.7600)">
<text x="72.3352" y="59.2600"
transform="scale(-1 1) translate(-144.670400 0)"
textLength="2.2500" font-size="1.3333" lengthAdjust="spacingAndGlyphs"
text-anchor="middle" opacity="0" stroke-opacity="0">U1</text>
</g>
<g class="stroked-text"><desc>U1</desc>
<path d="M72.8804 59.5219
L72.0709 59.5219
" />
<path d="M72.0709 59.5219
L71.9756 59.4743
" />
<path d="M71.9756 59.4743
L71.9280 59.4267
" />
<path d="M71.9280 59.4267
L71.8804 59.3314
" />
<path d="M71.8804 59.3314
L71.8804 59.1410
" />
<path d="M71.8804 59.1410
L71.9280 59.0457
" />
<path d="M71.9280 59.0457
L71.9756 58.9981
" />
<path d="M71.9756 58.9981
L72.0709 58.9505
" />
<path d="M72.0709 58.9505
L72.8804 58.9505
" />
<path d="M71.8804 57.9505
L71.8804 58.5219
" />
<path d="M71.8804 58.2362
L72.8804 58.2362
" />
<path d="M72.8804 58.2362
L72.7375 58.3314
" />
<path d="M72.7375 58.3314
L72.6423 58.4267
" />
<path d="M72.6423 58.4267
L72.5947 58.5219
" />
</g><text x="105.4202" y="65.8200"
transform="scale(-1 1) translate(-210.840400 0)"
textLength="2.2024" font-size="1.3333" lengthAdjust="spacingAndGlyphs"
text-anchor="middle" opacity="0" stroke-opacity="0">D1</text>
<g class="stroked-text"><desc>D1</desc>
<path d="M106.1583 65.7748
L106.1583 64.7748
" />
<path d="M106.1583 64.7748
L105.9202 64.7748
" />
<path d="M105.9202 64.7748
L105.7773 64.8224
" />
<path d="M105.7773 64.8224
L105.6821 64.9177
" />
<path d="M105.6821 64.9177
L105.6345 65.0129
" />
<path d="M105.6345 65.0129
L105.5869 65.2034
" />
<path d="M105.5869 65.2034
L105.5869 65.3462
" />
<path d="M105.5869 65.3462
L105.6345 65.5367
" />
<path d="M105.6345 65.5367
L105.6821 65.6320
" />
<path d="M105.6821 65.6320
L105.7773 65.7272
" />
<path d="M105.7773 65.7272
L105.9202 65.7748
" />
<path d="M105.9202 65.7748
L106.1583 65.7748
" />
<path d="M104.6345 65.7748
L105.2059 65.7748
" />
<path d="M104.9202 65.7748
L104.9202 64.7748
" />
<path d="M104.9202 64.7748
L105.0154 64.9177
" />
<path d="M105.0154 64.9177
L105.1107 65.0129
" />
<path d="M105.1107 65.0129
L105.2059 65.0605
" />
</g><text x="100.3402" y="65.4500"
transform="scale(-1 1) translate(-200.680400 0)"
textLength="1.2500" font-size="1.3333" lengthAdjust="spacingAndGlyphs"
text-anchor="middle" opacity="0" stroke-opacity="0">K</text>
<g class="stroked-text"><desc>K</desc>
<path d="M100.6021 65.4048
L100.6021 64.4048
" />
<path d="M100.0307 65.4048
L100.4592 64.8334
" />
<path d="M100.0307 64.4048
L100.6021 64.9762
" />
</g><g transform="rotate(90.000000 67.7652 87.7700)">
<text x="67.7652" y="88.2700"
transform="scale(-1 1) translate(-135.530400 0)"
textLength="2.2500" font-size="1.3333" lengthAdjust="spacingAndGlyphs"
text-anchor="middle" opacity="0" stroke-opacity="0">U2</text>
</g>
<g class="stroked-text"><desc>U2</desc>
<path d="M68.3104 88.5319
L67.5009 88.5319
" />
<path d="M67.5009 88.5319
L67.4056 88.4843
" />
<path d="M67.4056 88.4843
L67.3580 88.4367
" />
<path d="M67.3580 88.4367
L67.3104 88.3414
" />
<path d="M67.3104 88.3414
L67.3104 88.1510
" />
<path d="M67.3104 88.1510
L67.3580 88.0557
" />
<path d="M67.3580 88.0557
L67.4056 88.0081
" />
<path d="M67.4056 88.0081
L67.5009 87.9605
" />
<path d="M67.5009 87.9605
L68.3104 87.9605
" />
<path d="M68.2151 87.5319
L68.2628 87.4843
" />
<path d="M68.2628 87.4843
L68.3104 87.3890
" />
<path d="M68.3104 87.3890
L68.3104 87.1510
" />
<path d="M68.3104 87.1510
L68.2628 87.0557
" />
<path d="M68.2628 87.0557
L68.2151 87.0081
" />
<path d="M68.2151 87.0081
L68.1199 86.9605
" />
<path d="M68.1199 86.9605
L68.0247 86.9605
" />
<path d="M68.0247 86.9605
L67.8818 87.0081
" />
<path d="M67.8818 87.0081
L67.3104 87.5795
" />
<path d="M67.3104 87.5795
L67.3104 86.9605
" />
</g><g transform="rotate(90.000000 40.8502 71.6000)">
<text x="40.8502" y="72.1000"
transform="scale(-1 1) translate(-81.700400 0)"
textLength="1.9643" font-size="1.3333" lengthAdjust="spacingAndGlyphs"
text-anchor="middle" opacity="0" stroke-opacity="0">J2</text>
</g>
<g class="stroked-text"><desc>J2</desc>
<path d="M41.3954 71.9333
L40.6811 71.9333
" />
<path d="M40.6811 71.9333
L40.5382 71.9810
" />
<path d="M40.5382 71.9810
L40.4430 72.0762
" />
<path d="M40.4430 72.0762
L40.3954 72.2190
" />
<path d="M40.3954 72.2190
L40.3954 72.3143
" />
<path d="M41.3001 71.5048
L41.3478 71.4571
" />
<path d="M41.3478 71.4571
L41.3954 71.3619
" />
<path d="M41.3954 71.3619
L41.3954 71.1238
" />
<path d="M41.3954 71.1238
L41.3478 71.0286
" />
<path d="M41.3478 71.0286
L41.3001 70.9810
" />
<path d="M41.3001 70.9810
L41.2049 70.9333
" />
<path d="M41.2049 70.9333
L41.1097 70.9333
" />
<path d="M41.1097 70.9333
L40.9668 70.9810
" />
<path d="M40.9668 70.9810
L40.3954 71.5524
" />
<path d="M40.3954 71.5524
L40.3954 70.9333
" />
</g><g transform="rotate(90.000000 84.0902 73.8949)">
<text x="84.0902" y="74.3949"
transform="scale(-1 1) translate(-168.180400 0)"
textLength="2.2024" font-size="1.3333" lengthAdjust="spacingAndGlyphs"
text-anchor="middle" opacity="0" stroke-opacity="0">C1</text>
</g>
<g class="stroked-text"><desc>C1</desc>
<path d="M83.7306 74.0616
L83.6830 74.1092
" />
<path d="M83.6830 74.1092
L83.6354 74.2520
" />
<path d="M83.6354 74.2520
L83.6354 74.3473
" />
<path d="M83.6354 74.3473
L83.6830 74.4901
" />
<path d="M83.6830 74.4901
L83.7782 74.5854
" />
<path d="M83.7782 74.5854
L83.8735 74.6330
" />
<path d="M83.8735 74.6330
L84.0640 74.6806
" />
<path d="M84.0640 74.6806
L84.2068 74.6806
" />
<path d="M84.2068 74.6806
L84.3973 74.6330
" />
<path d="M84.3973 74.6330
L84.4925 74.5854
" />
<path d="M84.4925 74.5854
L84.5878 74.4901
" />
<path d="M84.5878 74.4901
L84.6354 74.3473
" />
<path d="M84.6354 74.3473
L84.6354 74.2520
" />
<path d="M84.6354 74.2520
L84.5878 74.1092
" />
<path d="M84.5878 74.1092
L84.5401 74.0616
" />
<path d="M83.6354 73.1092
L83.6354 73.6806
" />
<path d="M83.6354 73.3949
L84.6354 73.3949
" />
<path d="M84.6354 73.3949
L84.4925 73.4901
" />
<path d="M84.4925 73.4901
L84.3973 73.5854
" />
<path d="M84.3973 73.5854
L84.3497 73.6806
" />
</g><g transform="rotate(90.000000 41.2952 87.1000)">
<text x="41.2952" y="87.6000"
transform="scale(-1 1) translate(-82.590400 0)"
textLength="1.9643" font-size="1.3333" lengthAdjust="spacingAndGlyphs"
text-anchor="middle" opacity="0" stroke-opacity="0">J3</text>
</g>
<g class="stroked-text"><desc>J3</desc>
<path d="M41.8404 87.4333
L41.1261 87.4333
" />
<path d="M41.1261 87.4333
L40.9832 87.4810
" />
<path d="M40.9832 87.4810
L40.8880 87.5762
" />
<path d="M40.8880 87.5762
L40.8404 87.7190
" />
<path d="M40.8404 87.7190
L40.8404 87.8143
" />
<path d="M41.8404 87.0524
L41.8404 86.4333
" />
<path d="M41.8404 86.4333
L41.4594 86.7667
" />
<path d="M41.4594 86.7667
L41.4594 86.6238
" />
<path d="M41.4594 86.6238
L41.4118 86.5286
" />
<path d="M41.4118 86.5286
L41.3642 86.4810
" />
<path d="M41.3642 86.4810
L41.2690 86.4333
" />
<path d="M41.2690 86.4333
L41.0309 86.4333
" />
<path d="M41.0309 86.4333
L40.9356 86.4810
" />
<path d="M40.9356 86.4810
L40.8880 86.5286
" />
<path d="M40.8880 86.5286
L40.8404 86.6238
" />
<path d="M40.8404 86.6238
L40.8404 86.9095
" />
<path d="M40.8404 86.9095
L40.8880 87.0048
" />
<path d="M40.8880 87.0048
L40.9356 87.0524
" />
</g><g transform="rotate(90.000000 42.5802 85.1000)">
<text x="42.5802" y="85.6000"
transform="scale(-1 1) translate(-85.160400 0)"
textLength="2.2024" font-size="1.3333" lengthAdjust="spacingAndGlyphs"
text-anchor="middle" opacity="0" stroke-opacity="0">C3</text>
</g>
<g class="stroked-text"><desc>C3</desc>
<path d="M42.2206 85.2667
L42.1730 85.3143
" />
<path d="M42.1730 85.3143
L42.1254 85.4571
" />
<path d="M42.1254 85.4571
L42.1254 85.5524
" />
<path d="M42.1254 85.5524
L42.1730 85.6952
" />
<path d="M42.1730 85.6952
L42.2682 85.7905
" />
<path d="M42.2682 85.7905
L42.3635 85.8381
" />
<path d="M42.3635 85.8381
L42.5540 85.8857
" />
<path d="M42.5540 85.8857
L42.6968 85.8857
" />
<path d="M42.6968 85.8857
L42.8873 85.8381
" />
<path d="M42.8873 85.8381
L42.9825 85.7905
" />
<path d="M42.9825 85.7905
L43.0778 85.6952
" />
<path d="M43.0778 85.6952
L43.1254 85.5524
" />
<path d="M43.1254 85.5524
L43.1254 85.4571
" />
<path d="M43.1254 85.4571
L43.0778 85.3143
" />
<path d="M43.0778 85.3143
L43.0301 85.2667
" />
<path d="M43.1254 84.9333
L43.1254 84.3143
" />
<path d="M43.1254 84.3143
L42.7444 84.6476
" />
<path d="M42.7444 84.6476
L42.7444 84.5048
" />
<path d="M42.7444 84.5048
L42.6968 84.4095
" />
<path d="M42.6968 84.4095
L42.6492 84.3619
" />
<path d="M42.6492 84.3619
L42.5540 84.3143
" />
<path d="M42.5540 84.3143
L42.3159 84.3143
" />
<path d="M42.3159 84.3143
L42.2206 84.3619
" />
<path d="M42.2206 84.3619
L42.1730 84.4095
" />
<path d="M42.1730 84.4095
L42.1254 84.5048
" />
<path d="M42.1254 84.5048
L42.1254 84.7905
" />
<path d="M42.1254 84.7905
L42.1730 84.8857
" />
<path d="M42.1730 84.8857
L42.2206 84.9333
" />
</g></g>
<g style="fill:none; 
stroke:#000000; stroke-width:0.1200; stroke-opacity:1; 
stroke-linecap:round; stroke-linejoin:round;">
<path d="M122.1252 29.9000
L121.3852 29.9000
" />
<path d="M121.3852 29.9000
L121.3852 29.4000
" />
<path d="M131.5462 29.6600
L121.6252 29.6600
" />
<path d="M131.5462 29.6600
L131.5462 19.5400
" />
<path d="M128.5862 29.6600
L128.5862 19.5400
" />
<path d="M123.6852 29.6600
L123.6852 19.5400
" />
<path d="M122.1852 29.6600
L122.1852 19.5400
" />
<path d="M121.6252 29.6600
L121.6252 19.5400
" />
<path d="M125.2622 23.3270
L125.2162 23.3740
" />
<path d="M125.0462 23.1340
L125.0112 23.1690
" />
<path d="M127.5602 21.0300
L127.5242 21.0650
" />
<path d="M127.3542 20.8250
L127.3082 20.8720
" />
<path d="M131.5462 19.5400
L121.6252 19.5400
" />
<path d="M125.6022 28.6354 A1.6805 1.6805 0.0 0 0 126.9692 28.6350" />
<path d="M127.8206 27.7830 A1.6805 1.6805 0.0 0 0 127.8202 26.4160" />
<path d="M124.6049 27.0712 A1.6805 1.6805 0.0 0 0 124.7502 27.7840" />
<path d="M124.7504 26.4167 A1.6800 1.6800 0.0 0 0 124.6052 27.1000" />
<path d="M126.9682 25.5646 A1.6805 1.6805 0.0 0 0 125.6012 25.5650" />
<circle cx="126.2852" cy="22.1000" r="1.6800" /> 
<path d="M109.0802 82.3500
L108.0602 82.3500
" />
<path d="M108.0602 80.8800
L108.0602 83.8200
" />
<path d="M108.0602 83.8200
L102.6202 83.8200
" />
<path d="M107.2802 80.8800
L107.2802 83.8200
" />
<path d="M107.1602 80.8800
L107.1602 83.8200
" />
<path d="M107.0402 80.8800
L107.0402 83.8200
" />
<path d="M102.6202 80.8800
L108.0602 80.8800
" />
<path d="M102.6202 83.8200
L102.6202 80.8800
" />
<path d="M101.6002 82.3500
L102.6202 82.3500
" />
<path d="M109.1602 69.3500
L108.1402 69.3500
" />
<path d="M108.1402 67.8800
L108.1402 70.8200
" />
<path d="M108.1402 70.8200
L102.7002 70.8200
" />
<path d="M103.7202 70.8200
L103.7202 67.8800
" />
<path d="M103.6002 70.8200
L103.6002 67.8800
" />
<path d="M103.4802 70.8200
L103.4802 67.8800
" />
<path d="M102.7002 67.8800
L108.1402 67.8800
" />
<path d="M102.7002 70.8200
L102.7002 67.8800
" />
<path d="M101.6802 69.3500
L102.7002 69.3500
" />
<path d="M109.1602 75.8500
L108.1402 75.8500
" />
<path d="M108.1402 74.3800
L108.1402 77.3200
" />
<path d="M108.1402 77.3200
L102.7002 77.3200
" />
<path d="M107.3602 74.3800
L107.3602 77.3200
" />
<path d="M107.2402 74.3800
L107.2402 77.3200
" />
<path d="M107.1202 74.3800
L107.1202 77.3200
" />
<path d="M102.7002 74.3800
L108.1402 74.3800
" />
<path d="M102.7002 77.3200
L102.7002 74.3800
" />
<path d="M101.6802 75.8500
L102.7002 75.8500
" />
<path d="M47.4202 71.9200
L47.6652 71.9200
" />
<path d="M47.4202 68.2800
L47.4202 71.9200
" />
<path d="M47.4202 68.2800
L47.6652 68.2800
" />
<path d="M49.5152 71.9200
L49.7602 71.9200
" />
<path d="M49.5152 68.2800
L49.7602 68.2800
" />
<path d="M49.7602 68.2800
L49.7602 71.9200
" />
<path d="M79.4002 79.6300
L79.4002 81.0600
" />
<path d="M79.4002 81.0600
L67.9002 81.0600
" />
<path d="M79.4002 91.6400
L79.4002 93.0700
" />
<path d="M67.9002 81.0600
L67.9002 91.6400
" />
<path d="M67.9002 91.6400
L79.4002 91.6400
" />
<path d="M67.6002 84.4500
L67.9002 84.4500
" />
<path d="M67.6002 88.2500
L67.9002 88.2500
" />
<path d="M67.0402 84.4500
L67.3402 84.4500
" />
<path d="M67.0402 88.2500
L67.3402 88.2500
" />
<path d="M66.4802 79.6300
L79.4002 79.6300
" />
<path d="M66.4802 79.6300
L66.4802 93.0700
" />
<path d="M66.4802 84.4500
L66.7802 84.4500
" />
<path d="M66.4802 88.2500
L66.7802 88.2500
" />
<path d="M66.4802 93.0700
L79.4002 93.0700
" />
<path d="M126.2952 65.8000
L126.2952 66.3000
" />
<path d="M126.0552 66.0400
L126.0552 76.1600
" />
<path d="M125.5552 65.8000
L126.2952 65.8000
" />
<path d="M125.4952 66.0400
L125.4952 76.1600
" />
<path d="M123.9952 66.0400
L123.9952 76.1600
" />
<path d="M122.6342 72.5660
L122.6692 72.5310
" />
<path d="M122.4182 72.3730
L122.4642 72.3260
" />
<path d="M120.3262 74.8750
L120.3722 74.8280
" />
<path d="M120.1202 74.6700
L120.1562 74.6350
" />
<path d="M119.0942 66.0400
L119.0942 76.1600
" />
<path d="M116.1342 66.0400
L126.0552 66.0400
" />
<path d="M116.1342 66.0400
L116.1342 76.1600
" />
<path d="M116.1342 76.1600
L126.0552 76.1600
" />
<path d="M123.0755 68.6288 A1.6805 1.6805 0.0 0 0 122.9302 67.9160" />
<path d="M122.9300 69.2833 A1.6800 1.6800 0.0 0 0 123.0752 68.6000" />
<path d="M122.0782 67.0646 A1.6805 1.6805 0.0 0 0 120.7112 67.0650" />
<path d="M120.7122 70.1354 A1.6805 1.6805 0.0 0 0 122.0792 70.1350" />
<path d="M119.8598 67.9170 A1.6805 1.6805 0.0 0 0 119.8602 69.2840" />
<circle cx="121.3952" cy="73.6000" r="1.6800" /> 
<path d="M71.9802 65.8200
L84.9002 65.8200
" />
<path d="M84.9002 64.3900
L84.9002 65.8200
" />
<path d="M73.4002 64.3900
L84.9002 64.3900
" />
<path d="M73.1002 61.0000
L73.4002 61.0000
" />
<path d="M72.5402 61.0000
L72.8402 61.0000
" />
<path d="M71.9802 61.0000
L72.2802 61.0000
" />
<path d="M73.1002 57.2000
L73.4002 57.2000
" />
<path d="M72.5402 57.2000
L72.8402 57.2000
" />
<path d="M71.9802 57.2000
L72.2802 57.2000
" />
<path d="M84.9002 53.8100
L73.4002 53.8100
" />
<path d="M73.4002 53.8100
L73.4002 64.3900
" />
<path d="M84.9002 52.3800
L84.9002 53.8100
" />
<path d="M71.9802 52.3800
L71.9802 65.8200
" />
<path d="M71.9802 52.3800
L84.9002 52.3800
" />
<path d="M71.9152 54.0200
L67.2742 54.0200
" />
<path d="M71.9152 57.2890
L70.4052 57.2890
" />
<path d="M71.9152 60.9900
L70.4052 60.9900
" />
<path d="M67.2742 64.2600
L67.2742 54.0200
" />
<path d="M70.4052 64.2600
L70.4052 54.0200
" />
<path d="M71.9152 64.2600
L71.9152 54.0200
" />
<path d="M71.9152 64.2600
L67.2742 64.2600
" />
<path d="M109.1602 62.8500
L108.1402 62.8500
" />
<path d="M108.1402 61.3800
L108.1402 64.3200
" />
<path d="M108.1402 64.3200
L102.7002 64.3200
" />
<path d="M103.7202 64.3200
L103.7202 61.3800
" />
<path d="M103.6002 64.3200
L103.6002 61.3800
" />
<path d="M103.4802 64.3200
L103.4802 61.3800
" />
<path d="M102.7002 61.3800
L108.1402 61.3800
" />
<path d="M102.7002 64.3200
L102.7002 61.3800
" />
<path d="M101.6802 62.8500
L102.7002 62.8500
" />
<path d="M66.4152 81.2300
L61.7742 81.2300
" />
<path d="M66.4152 84.4990
L64.9052 84.4990
" />
<path d="M66.4152 88.2000
L64.9052 88.2000
" />
<path d="M66.4152 91.4700
L66.4152 81.2300
" />
<path d="M66.4152 91.4700
L61.7742 91.4700
" />
<path d="M64.9052 91.4700
L64.9052 81.2300
" />
<path d="M61.7742 91.4700
L61.7742 81.2300
" />
<circle cx="34.5902" cy="69.1000" r="1.6800" /> 
<path d="M32.9099 74.0712 A1.6805 1.6805 0.0 0 0 33.0552 74.7840" />
<path d="M33.0554 73.4167 A1.6800 1.6800 0.0 0 0 32.9102 74.1000" />
<path d="M33.9072 75.6354 A1.6805 1.6805 0.0 0 0 35.2742 75.6350" />
<path d="M35.2732 72.5646 A1.6805 1.6805 0.0 0 0 33.9062 72.5650" />
<path d="M36.1256 74.7830 A1.6805 1.6805 0.0 0 0 36.1252 73.4160" />
<path d="M29.6902 76.9000
L29.6902 76.4000
" />
<path d="M29.9302 76.6600
L29.9302 66.5400
" />
<path d="M30.4302 76.9000
L29.6902 76.9000
" />
<path d="M30.4902 76.6600
L30.4902 66.5400
" />
<path d="M31.9902 76.6600
L31.9902 66.5400
" />
<path d="M33.3512 70.1340
L33.3162 70.1690
" />
<path d="M33.5672 70.3270
L33.5212 70.3740
" />
<path d="M35.6592 67.8250
L35.6132 67.8720
" />
<path d="M35.8652 68.0300
L35.8292 68.0650
" />
<path d="M36.8912 76.6600
L36.8912 66.5400
" />
<path d="M39.8512 76.6600
L29.9302 76.6600
" />
<path d="M39.8512 76.6600
L39.8512 66.5400
" />
<path d="M39.8512 66.5400
L29.9302 66.5400
" />
<path d="M88.8802 74.1349
L90.4092 74.1349
" />
<path d="M88.8802 74.1749
L90.4052 74.1749
" />
<path d="M88.8802 74.2149
L90.4012 74.2149
" />
<path d="M88.8802 74.2549
L90.3962 74.2549
" />
<path d="M88.8802 74.2949
L90.3902 74.2949
" />
<path d="M88.8802 74.3349
L90.3832 74.3349
" />
<path d="M88.8802 74.3749
L90.3762 74.3749
" />
<path d="M88.8802 74.4149
L90.3682 74.4149
" />
<path d="M88.8802 74.4549
L90.3602 74.4549
" />
<path d="M88.8802 74.4949
L90.3512 74.4949
" />
<path d="M88.8802 74.5349
L90.3412 74.5349
" />
<path d="M88.8802 74.5749
L90.3312 74.5749
" />
<path d="M88.8802 74.6159
L90.3202 74.6159
" />
<path d="M88.8802 74.6559
L90.3082 74.6559
" />
<path d="M88.8802 74.6959
L90.2952 74.6959
" />
<path d="M88.8802 74.7359
L90.2822 74.7359
" />
<path d="M88.8802 74.7759
L90.2682 74.7759
" />
<path d="M88.8802 74.8159
L90.2542 74.8159
" />
<path d="M88.8802 74.8559
L90.2382 74.8559
" />
<path d="M88.8802 74.8959
L90.2222 74.8959
" />
<path d="M88.8802 74.9359
L90.2052 74.9359
" />
<path d="M88.8802 74.9759
L90.1882 74.9759
" />
<path d="M88.8802 75.0159
L90.1692 75.0159
" />
<path d="M88.8802 75.0559
L90.1502 75.0559
" />
<path d="M88.8802 75.0959
L90.1302 75.0959
" />
<path d="M88.8802 75.1359
L90.1082 75.1359
" />
<path d="M88.8802 75.1759
L90.0872 75.1759
" />
<path d="M88.8802 75.2159
L90.0642 75.2159
" />
<path d="M88.8802 75.2559
L90.0402 75.2559
" />
<path d="M88.8802 75.2959
L90.0152 75.2959
" />
<path d="M88.8802 75.3359
L89.9892 75.3359
" />
<path d="M88.8802 75.3759
L89.9622 75.3759
" />
<path d="M88.8802 75.4159
L89.9352 75.4159
" />
<path d="M88.8802 75.4559
L89.9052 75.4559
" />
<path d="M88.8802 75.4959
L89.8752 75.4959
" />
<path d="M88.8802 75.5359
L89.8442 75.5359
" />
<path d="M88.8802 75.5759
L89.8112 75.5759
" />
<path d="M88.8802 75.6159
L89.7772 75.6159
" />
<path d="M88.8802 75.6559
L89.7412 75.6559
" />
<path d="M88.8802 75.6959
L89.7042 75.6959
" />
<path d="M88.8802 75.7359
L89.6662 75.7359
" />
<path d="M88.8802 75.7759
L89.6252 75.7759
" />
<path d="M88.8802 75.8159
L89.5832 75.8159
" />
<path d="M88.8802 75.8559
L89.5392 75.8559
" />
<path d="M88.8802 75.8959
L89.4932 75.8959
" />
<path d="M88.8802 75.9359
L89.4452 75.9359
" />
<path d="M88.8802 75.9759
L89.3942 75.9759
" />
<path d="M88.8802 76.0159
L89.3402 76.0159
" />
<path d="M88.8802 76.0559
L89.2832 76.0559
" />
<path d="M88.8802 76.0959
L89.2232 76.0959
" />
<path d="M88.8802 76.1359
L89.1592 76.1359
" />
<path d="M88.8802 76.1759
L89.0912 76.1759
" />
<path d="M87.5562 76.4959
L88.1242 76.4959
" />
<path d="M87.3222 76.4559
L88.3582 76.4559
" />
<path d="M87.1632 76.4159
L88.5172 76.4159
" />
<path d="M87.0352 76.3759
L88.6452 76.3759
" />
<path d="M86.9252 76.3359
L88.7552 76.3359
" />
<path d="M86.8292 76.2959
L88.8512 76.2959
" />
<path d="M86.7422 76.2559
L88.9382 76.2559
" />
<path d="M86.6622 76.2159
L89.0182 76.2159
" />
<path d="M86.5892 76.1759
L86.8002 76.1759
" />
<path d="M86.5212 76.1359
L86.8002 76.1359
" />
<path d="M86.4572 76.0959
L86.8002 76.0959
" />
<path d="M86.3972 76.0559
L86.8002 76.0559
" />
<path d="M86.3652 71.0901
L86.3652 71.5901
" />
<path d="M86.3402 76.0159
L86.8002 76.0159
" />
<path d="M86.2862 75.9759
L86.8002 75.9759
" />
<path d="M86.2352 75.9359
L86.8002 75.9359
" />
<path d="M86.1872 75.8959
L86.8002 75.8959
" />
<path d="M86.1412 75.8559
L86.8002 75.8559
" />
<path d="M86.1152 71.3401
L86.6152 71.3401
" />
<path d="M86.0972 75.8159
L86.8002 75.8159
" />
<path d="M86.0552 75.7759
L86.8002 75.7759
" />
<path d="M86.0142 75.7359
L86.8002 75.7359
" />
<path d="M85.9762 75.6959
L86.8002 75.6959
" />
<path d="M85.9392 75.6559
L86.8002 75.6559
" />
<path d="M85.9032 75.6159
L86.8002 75.6159
" />
<path d="M85.8692 75.5759
L86.8002 75.5759
" />
<path d="M85.8362 75.5359
L86.8002 75.5359
" />
<path d="M85.8052 75.4959
L86.8002 75.4959
" />
<path d="M85.7752 75.4559
L86.8002 75.4559
" />
<path d="M85.7452 75.4159
L86.8002 75.4159
" />
<path d="M85.7182 75.3759
L86.8002 75.3759
" />
<path d="M85.6912 75.3359
L86.8002 75.3359
" />
<path d="M85.6652 75.2959
L86.8002 75.2959
" />
<path d="M85.6402 75.2559
L86.8002 75.2559
" />
<path d="M85.6162 75.2159
L86.8002 75.2159
" />
<path d="M85.5932 75.1759
L86.8002 75.1759
" />
<path d="M85.5722 75.1359
L86.8002 75.1359
" />
<path d="M85.5502 75.0959
L86.8002 75.0959
" />
<path d="M85.5302 75.0559
L86.8002 75.0559
" />
<path d="M85.5112 75.0159
L86.8002 75.0159
" />
<path d="M85.4922 74.9759
L86.8002 74.9759
" />
<path d="M85.4752 74.9359
L86.8002 74.9359
" />
<path d="M85.4582 74.8959
L86.8002 74.8959
" />
<path d="M85.4422 74.8559
L86.8002 74.8559
" />
<path d="M85.4262 74.8159
L86.8002 74.8159
" />
<path d="M85.4122 74.7759
L86.8002 74.7759
" />
<path d="M85.3982 74.7359
L86.8002 74.7359
" />
<path d="M85.3852 74.6959
L86.8002 74.6959
" />
<path d="M85.3722 74.6559
L86.8002 74.6559
" />
<path d="M85.3602 74.6159
L86.8002 74.6159
" />
<path d="M85.3492 74.5749
L86.8002 74.5749
" />
<path d="M85.3392 74.5349
L86.8002 74.5349
" />
<path d="M85.3292 74.4949
L86.8002 74.4949
" />
<path d="M85.3202 74.4549
L86.8002 74.4549
" />
<path d="M85.3122 74.4149
L86.8002 74.4149
" />
<path d="M85.3042 74.3749
L86.8002 74.3749
" />
<path d="M85.2972 74.3349
L86.8002 74.3349
" />
<path d="M85.2902 74.2949
L86.8002 74.2949
" />
<path d="M85.2842 74.2549
L86.8002 74.2549
" />
<path d="M85.2792 74.2149
L86.8002 74.2149
" />
<path d="M85.2752 74.1749
L86.8002 74.1749
" />
<path d="M85.2712 74.1349
L86.8002 74.1349
" />
<path d="M85.2672 74.0949
L90.4132 74.0949
" />
<path d="M85.2642 74.0549
L90.4162 74.0549
" />
<path d="M85.2622 74.0149
L90.4182 74.0149
" />
<path d="M85.2612 73.9749
L90.4192 73.9749
" />
<path d="M85.2602 73.8949
L90.4202 73.8949
" />
<path d="M85.2602 73.9349
L90.4202 73.9349
" />
<circle cx="87.8402" cy="73.8949" r="2.6200" /> 
<circle cx="35.0352" cy="84.6000" r="1.6800" /> 
<path d="M33.3549 89.5712 A1.6805 1.6805 0.0 0 0 33.5002 90.2840" />
<path d="M33.5004 88.9167 A1.6800 1.6800 0.0 0 0 33.3552 89.6000" />
<path d="M34.3522 91.1354 A1.6805 1.6805 0.0 0 0 35.7192 91.1350" />
<path d="M35.7182 88.0646 A1.6805 1.6805 0.0 0 0 34.3512 88.0650" />
<path d="M36.5706 90.2830 A1.6805 1.6805 0.0 0 0 36.5702 88.9160" />
<path d="M30.1352 92.4000
L30.1352 91.9000
" />
<path d="M30.3752 92.1600
L30.3752 82.0400
" />
<path d="M30.8752 92.4000
L30.1352 92.4000
" />
<path d="M30.9352 92.1600
L30.9352 82.0400
" />
<path d="M32.4352 92.1600
L32.4352 82.0400
" />
<path d="M33.7962 85.6340
L33.7612 85.6690
" />
<path d="M34.0122 85.8270
L33.9662 85.8740
" />
<path d="M36.1042 83.3250
L36.0582 83.3720
" />
<path d="M36.3102 83.5300
L36.2742 83.5650
" />
<path d="M37.3362 92.1600
L37.3362 82.0400
" />
<path d="M40.2962 92.1600
L30.3752 92.1600
" />
<path d="M40.2962 92.1600
L40.2962 82.0400
" />
<path d="M40.2962 82.0400
L30.3752 82.0400
" />
<path d="M44.6702 86.9200
L44.9152 86.9200
" />
<path d="M44.6702 83.2800
L44.6702 86.9200
" />
<path d="M44.6702 83.2800
L44.9152 83.2800
" />
<path d="M46.7652 86.9200
L47.0102 86.9200
" />
<path d="M46.7652 83.2800
L47.0102 83.2800
" />
<path d="M47.0102 83.2800
L47.0102 86.9200
" />
</g>
<g style="fill:#000000; fill-opacity:1.0000; stroke:none;">
<circle cx="126.2852" cy="27.1000" r="0.6500" /> 
</g>
<g style="fill:#000000; fill-opacity:1.0000; stroke:none;">
<circle cx="126.2852" cy="22.1000" r="0.6500" /> 
</g>
<g style="fill:#000000; fill-opacity:1.0000; stroke:none;">
<circle cx="110.4202" cy="82.3500" r="0.5500" /> 
</g>
<g style="fill:#000000; fill-opacity:1.0000; stroke:none;">
<circle cx="100.2602" cy="82.3500" r="0.5500" /> 
</g>
<g style="fill:#000000; fill-opacity:1.0000; stroke:none;">
<circle cx="100.3402" cy="69.3500" r="0.5500" /> 
</g>
<g style="fill:#000000; fill-opacity:1.0000; stroke:none;">
<circle cx="110.5002" cy="69.3500" r="0.5500" /> 
</g>
<g style="fill:#000000; fill-opacity:1.0000; stroke:none;">
<circle cx="110.5002" cy="75.8500" r="0.5500" /> 
</g>
<g style="fill:#000000; fill-opacity:1.0000; stroke:none;">
<circle cx="100.3402" cy="75.8500" r="0.5500" /> 
</g>
<g style="fill:#000000; fill-opacity:1.0000; stroke:none;">
<circle cx="48.5902" cy="71.3500" r="0.4000" /> 
</g>
<g style="fill:#000000; fill-opacity:1.0000; stroke:none;">
<circle cx="48.5902" cy="68.8500" r="0.4000" /> 
</g>
<g style="fill:#000000; fill-opacity:1.0000; stroke:none;">
<circle cx="121.3952" cy="68.6000" r="0.6500" /> 
</g>
<g style="fill:#000000; fill-opacity:1.0000; stroke:none;">
<circle cx="121.3952" cy="73.6000" r="0.6500" /> 
</g>
<g style="fill:#000000; fill-opacity:1.0000; stroke:none;">
<circle cx="68.6452" cy="56.6000" r="0.5500" /> 
</g>
<g style="fill:#000000; fill-opacity:1.0000; stroke:none;">
<circle cx="68.6452" cy="59.1400" r="0.5500" /> 
</g>
<g style="fill:#000000; fill-opacity:1.0000; stroke:none;">
<circle cx="68.6452" cy="61.6800" r="0.5500" /> 
</g>
<g style="fill:#000000; fill-opacity:1.0000; stroke:none;">
<circle cx="100.3402" cy="62.8500" r="0.5500" /> 
</g>
<g style="fill:#000000; fill-opacity:1.0000; stroke:none;">
<circle cx="110.5002" cy="62.8500" r="0.5500" /> 
</g>
<g style="fill:#000000; fill-opacity:1.0000; stroke:none;">
<circle cx="63.1452" cy="88.8900" r="0.5500" /> 
</g>
<g style="fill:#000000; fill-opacity:1.0000; stroke:none;">
<circle cx="63.1452" cy="86.3500" r="0.5500" /> 
</g>
<g style="fill:#000000; fill-opacity:1.0000; stroke:none;">
<circle cx="63.1452" cy="83.8100" r="0.5500" /> 
</g>
<g style="fill:#000000; fill-opacity:1.0000; stroke:none;">
<circle cx="34.5902" cy="69.1000" r="0.6500" /> 
</g>
<g style="fill:#000000; fill-opacity:1.0000; stroke:none;">
<circle cx="34.5902" cy="74.1000" r="0.6500" /> 
</g>
<g style="fill:#000000; fill-opacity:1.0000; stroke:none;">
<circle cx="87.8402" cy="72.6449" r="0.4000" /> 
</g>
<g style="fill:#000000; fill-opacity:1.0000; stroke:none;">
<circle cx="87.8402" cy="75.1449" r="0.4000" /> 
</g>
<g style="fill:#000000; fill-opacity:1.0000; stroke:none;">
<circle cx="35.0352" cy="84.6000" r="0.6500" /> 
</g>
<g style="fill:#000000; fill-opacity:1.0000; stroke:none;">
<circle cx="35.0352" cy="89.6000" r="0.6500" /> 
</g>
<g style="fill:#000000; fill-opacity:1.0000; stroke:none;">
<circle cx="45.8402" cy="86.3500" r="0.4000" /> 
</g>
<g style="fill:#000000; fill-opacity:1.0000; stroke:none;">
<circle cx="45.8402" cy="83.8500" r="0.4000" /> 
<path style="fill:none; 
stroke:#000000; stroke-width:0.2000; stroke-opacity:1; 
stroke-linecap:round; stroke-linejoin:round;fill:none"
d="M 150.0902,0.1000
0.0902,0.1000
0.0902,100.1000
150.0902,100.1000
Z" /> 
<path style="fill:#000000; fill-opacity:1.0000; stroke:none;fill-rule:evenodd;"
d="M 124.9852,28.4000
127.5852,28.4000
127.5852,25.8000
124.9852,25.8000
Z" /> 
</g>
<g style="fill:#000000; fill-opacity:1.0000; stroke:none;">
<circle cx="126.2852" cy="22.1000" r="1.3000" /> 
<path style="fill:#000000; fill-opacity:1.0000; stroke:none;fill-rule:evenodd;"
d="M 111.5202,83.4500
111.5202,81.2500
109.3202,81.2500
109.3202,83.4500
Z" /> 
</g>
<g style="fill:#000000; fill-opacity:1.0000; stroke:none;">
<circle cx="100.2602" cy="82.3500" r="1.1000" /> 
<path style="fill:#000000; fill-opacity:1.0000; stroke:none;fill-rule:evenodd;"
d="M 99.2402,68.2500
99.2402,70.4500
101.4402,70.4500
101.4402,68.2500
Z" /> 
<circle cx="110.5002" cy="69.3500" r="1.1000" /> 
<path style="fill:#000000; fill-opacity:1.0000; stroke:none;fill-rule:evenodd;"
d="M 111.6002,76.9500
111.6002,74.7500
109.4002,74.7500
109.4002,76.9500
Z" /> 
<circle cx="100.3402" cy="75.8500" r="1.1000" /> 
<circle cx="48.5902" cy="71.3500" r="0.8000" /> 
</g>
<g style="fill:#000000; fill-opacity:1.0000; stroke:none;">
<circle cx="48.5902" cy="68.8500" r="0.8000" /> 
<path style="fill:#000000; fill-opacity:1.0000; stroke:none;fill-rule:evenodd;"
d="M 122.6952,67.3000
120.0952,67.3000
120.0952,69.9000
122.6952,69.9000
Z" /> 
</g>
<g style="fill:#000000; fill-opacity:1.0000; stroke:none;">
<circle cx="121.3952" cy="73.6000" r="1.3000" /> 
</g>
<g style="fill:none; 
stroke:#000000; stroke-width:1.9050; stroke-opacity:1; 
stroke-linecap:round; stroke-linejoin:round;">
<path d="M68.6927 56.6000
L68.5977 56.6000
" />
<path d="M68.6927 59.1400
L68.5977 59.1400
" />
<path style="fill:#000000; fill-opacity:1.0000; stroke:none;fill-rule:evenodd;"
d="M 67.6452,62.6325
69.6452,62.6325
69.6452,60.7275
67.6452,60.7275
Z" /> 
<path style="fill:#000000; fill-opacity:1.0000; stroke:none;fill-rule:evenodd;"
d="M 99.2402,61.7500
99.2402,63.9500
101.4402,63.9500
101.4402,61.7500
Z" /> 
</g>
<g style="fill:#000000; fill-opacity:1.0000; stroke:none;">
<circle cx="110.5002" cy="62.8500" r="1.1000" /> 
<path style="fill:#000000; fill-opacity:1.0000; stroke:none;fill-rule:evenodd;"
d="M 62.1452,89.8425
64.1452,89.8425
64.1452,87.9375
62.1452,87.9375
Z" /> 
</g>
<g style="fill:none; 
stroke:#000000; stroke-width:1.9050; stroke-opacity:1; 
stroke-linecap:round; stroke-linejoin:round;">
<path d="M63.1927 86.3500
L63.0977 86.3500
" />
<path d="M63.1927 83.8100
L63.0977 83.8100
" />
</g>
<g style="fill:#000000; fill-opacity:1.0000; stroke:none;">
<circle cx="34.5902" cy="69.1000" r="1.3000" /> 
<path style="fill:#000000; fill-opacity:1.0000; stroke:none;fill-rule:evenodd;"
d="M 33.2902,75.4000
35.8902,75.4000
35.8902,72.8000
33.2902,72.8000
Z" /> 
<path style="fill:#000000; fill-opacity:1.0000; stroke:none;fill-rule:evenodd;"
d="M 88.6402,71.8449
87.0402,71.8449
87.0402,73.4449
88.6402,73.4449
Z" /> 
</g>
<g style="fill:#000000; fill-opacity:1.0000; stroke:none;">
<circle cx="87.8402" cy="75.1449" r="0.8000" /> 
</g>
<g style="fill:#000000; fill-opacity:1.0000; stroke:none;">
<circle cx="35.0352" cy="84.6000" r="1.3000" /> 
<path style="fill:#000000; fill-opacity:1.0000; stroke:none;fill-rule:evenodd;"
d="M 33.7352,90.9000
36.3352,90.9000
36.3352,88.3000
33.7352,88.3000
Z" /> 
</g>
<g style="fill:#000000; fill-opacity:1.0000; stroke:none;">
<circle cx="45.8402" cy="86.3500" r="0.8000" /> 
</g>
<g style="fill:#000000; fill-opacity:1.0000; stroke:none;">
<circle cx="45.8402" cy="83.8500" r="0.8000" /> 
</g>
<g style="fill:none; 
stroke:#000000; stroke-width:1.0000; stroke-opacity:1; 
stroke-linecap:round; stroke-linejoin:round;">
<path d="M54.0077 68.8500
L48.5902 68.8500
" />
<path d="M54.0352 68.8775
L54.0077 68.8500
" />
<path d="M55.0902 67.8225
L54.0352 68.8775
" />
<path d="M55.0902 57.3775
L55.0902 67.8225
" />
<path d="M55.8677 56.6000
L55.0902 57.3775
" />
<path d="M68.6452 56.6000
L55.8677 56.6000
" />
<path d="M60.5352 69.6000
L87.8402 69.6000
" />
<path d="M87.8402 69.6000
L87.8402 72.6449
" />
<path d="M100.0902 69.6000
L87.8402 69.6000
" />
<path d="M100.3402 69.3500
L100.0902 69.6000
" />
<path d="M68.6452 61.6800
L59.9552 61.6800
" />
<path d="M52.5902 89.3500
L52.5902 94.3500
" />
<path d="M63.1452 88.8900
L53.0502 88.8900
" />
<path d="M53.0502 88.8900
L52.5902 89.3500
" />
<path d="M63.1452 86.3500
L45.8402 86.3500
" />
<path d="M60.8402 83.8500
L45.8402 83.8500
" />
<path d="M60.8802 83.8100
L60.8402 83.8500
" />
<path d="M63.1452 83.8100
L60.8802 83.8100
" />
<path d="M57.8552 59.1400
L68.6452 59.1400
" />
<path d="M57.3952 59.6000
L57.8552 59.1400
" />
<path d="M57.3952 74.0450
L57.3952 59.6000
" />
<path d="M59.5902 68.6550
L59.5902 62.0450
" />
<path d="M60.5352 69.6000
L59.5902 68.6550
" />
<path d="M59.5902 62.0450
L59.9552 61.6800
" />
<path d="M54.0902 95.8500
L52.5902 94.3500
" />
<path d="M89.3402 95.8500
L54.0902 95.8500
" />
<path d="M90.3402 94.8500
L89.3402 95.8500
" />
<path d="M91.3402 85.3500
L90.3402 86.3500
" />
<path d="M130.5902 85.3500
L91.3402 85.3500
" />
<path d="M131.5902 60.8500
L131.5902 84.3500
" />
<path d="M129.5902 58.8500
L131.5902 60.8500
" />
<path d="M131.5902 84.3500
L130.5902 85.3500
" />
<path d="M100.3402 58.8500
L129.5902 58.8500
" />
<path d="M100.3402 62.8500
L100.3402 58.8500
" />
<path d="M90.3402 86.3500
L90.3402 94.8500
" />
<path d="M28.0902 94.1000
L45.8402 94.1000
" />
<path d="M27.0902 81.6000
L27.0902 93.1000
" />
<path d="M27.0902 93.1000
L28.0902 94.1000
" />
<path d="M41.3402 80.1000
L28.5902 80.1000
" />
<path d="M42.0902 79.3500
L41.3402 80.1000
" />
<path d="M28.5902 80.1000
L27.0902 81.6000
" />
<path d="M42.0902 74.1000
L42.0902 79.3500
" />
<path d="M45.8402 94.1000
L45.8402 89.6000
" />
<path d="M52.5902 94.3500
L53.3402 95.1000
" />
<path d="M86.8402 80.3500
L100.2602 80.3500
" />
<path d="M82.8402 74.3500
L84.3402 75.8500
" />
<path d="M84.3402 75.8500
L84.3402 77.8500
" />
<path d="M74.3402 74.3500
L82.8402 74.3500
" />
<path d="M100.2602 80.3500
L100.2602 82.3500
" />
<path d="M100.2602 78.8500
L100.2602 80.3500
" />
<path d="M84.3402 77.8500
L86.8402 80.3500
" />
<path d="M114.8952 68.6000
L121.3952 68.6000
" />
<path d="M114.3402 62.8500
L114.3402 68.0450
" />
<path d="M114.3402 68.0450
L114.8952 68.6000
" />
<path d="M48.5902 73.8500
L48.3402 74.1000
" />
<path d="M48.5902 71.3500
L48.5902 73.8500
" />
<path d="M46.0902 74.1000
L48.3402 74.1000
" />
<path d="M34.5902 69.1000
L48.3402 69.1000
" />
</g>
<g style="fill:none; 
stroke:#000000; stroke-width:0.5000; stroke-opacity:1; 
stroke-linecap:round; stroke-linejoin:round;">
<path d="M48.3402 69.1000
L48.5902 68.8500
" />
<path d="M74.0902 74.3500
L74.3402 74.3500
" />
</g>
<g style="fill:none; 
stroke:#000000; stroke-width:1.0000; stroke-opacity:1; 
stroke-linecap:round; stroke-linejoin:round;">
<path d="M42.0902 74.1000
L46.0902 74.1000
" />
</g>
<g style="fill:none; 
stroke:#000000; stroke-width:0.5000; stroke-opacity:1; 
stroke-linecap:round; stroke-linejoin:round;">
<path d="M100.3402 76.3500
L100.2602 76.4300
" />
</g>
<g style="fill:none; 
stroke:#000000; stroke-width:1.0000; stroke-opacity:1; 
stroke-linecap:round; stroke-linejoin:round;">
<path d="M35.0352 89.6000
L45.8402 89.6000
" />
<path d="M100.2602 76.4300
L100.2602 78.8500
" />
</g>
<g style="fill:none; 
stroke:#000000; stroke-width:0.5000; stroke-opacity:1; 
stroke-linecap:round; stroke-linejoin:round;">
<path d="M100.3402 75.8500
L100.3402 76.3500
" />
</g>
<g style="fill:none; 
stroke:#000000; stroke-width:1.0000; stroke-opacity:1; 
stroke-linecap:round; stroke-linejoin:round;">
<path d="M87.8402 75.1449
L87.8402 80.3500
" />
</g>
<g style="fill:none; 
stroke:#000000; stroke-width:0.5000; stroke-opacity:1; 
stroke-linecap:round; stroke-linejoin:round;">
<path d="M46.0902 86.1000
L45.8402 86.3500
" />
</g>
<g style="fill:none; 
stroke:#000000; stroke-width:1.0000; stroke-opacity:1; 
stroke-linecap:round; stroke-linejoin:round;">
<path d="M45.8402 89.6000
L45.8402 86.3500
" />
<path d="M34.5902 74.1000
L42.0902 74.1000
" />
<path d="M100.3402 65.8500
L100.3402 66.8500
" />
<path d="M100.3402 66.8500
L100.3402 69.3500
" />
</g>
<g style="fill:none; 
stroke:#000000; stroke-width:0.5000; stroke-opacity:1; 
stroke-linecap:round; stroke-linejoin:round;">
<path d="M100.2852 66.7950
L100.3402 66.8500
" />
</g>
<g style="fill:none; 
stroke:#000000; stroke-width:1.0000; stroke-opacity:1; 
stroke-linecap:round; stroke-linejoin:round;">
<path d="M100.3402 62.8500
L100.3402 65.8500
" />
</g>
<g style="fill:none; 
stroke:#000000; stroke-width:0.5000; stroke-opacity:1; 
stroke-linecap:round; stroke-linejoin:round;">
<path d="M46.1302 83.5600
L45.8402 83.8500
" />
<path d="M35.7852 83.8500
L35.0352 84.6000
" />
</g>
<g style="fill:none; 
stroke:#000000; stroke-width:1.0000; stroke-opacity:1; 
stroke-linecap:round; stroke-linejoin:round;">
<path d="M45.8402 83.8500
L35.7852 83.8500
" />
<path d="M127.5902 61.3500
L114.3402 61.3500
" />
<path d="M114.3402 62.8500
L110.5002 62.8500
" />
<path d="M114.3402 61.3500
L114.3402 62.8500
" />
<path d="M110.4202 82.3500
L129.3402 82.3500
" />
<path d="M129.3402 82.3500
L129.3402 63.1000
" />
<path d="M129.3402 63.1000
L127.5902 61.3500
" />
<path d="M121.3952 73.6000
L110.5552 73.6000
" />
<path d="M110.5002 72.3500
L110.5002 75.8500
" />
<path d="M110.5002 71.3500
L110.5002 72.3500
" />
<path d="M110.5002 69.3500
L110.5002 71.3500
" />
<path d="M48.8402 74.3500
L48.5902 74.1000
" />
<path d="M48.5902 74.1000
L48.3402 74.1000
" />
<path d="M57.0902 74.3500
L48.8402 74.3500
" />
</g>
<g style="fill:none; 
stroke:#000000; stroke-width:0.5000; stroke-opacity:1; 
stroke-linecap:round; stroke-linejoin:round;">
<path d="M57.3952 74.0450
L57.0902 74.3500
" />
</g>
<g style="fill:none; 
stroke:#000000; stroke-width:1.0000; stroke-opacity:1; 
stroke-linecap:round; stroke-linejoin:round;">
<path d="M74.0902 74.3500
L57.0902 74.3500
" />
</g>
<g style="fill:#FFFFFF; fill-opacity:1.0000; stroke:none;">
<circle cx="126.2852" cy="27.1000" r="0.6500" /> 
</g>
<g style="fill:#FFFFFF; fill-opacity:1.0000; stroke:none;">
<circle cx="126.2852" cy="22.1000" r="0.6500" /> 
</g>
<g style="fill:#FFFFFF; fill-opacity:1.0000; stroke:none;">
<circle cx="110.4202" cy="82.3500" r="0.5500" /> 
</g>
<g style="fill:#FFFFFF; fill-opacity:1.0000; stroke:none;">
<circle cx="100.2602" cy="82.3500" r="0.5500" /> 
</g>
<g style="fill:#FFFFFF; fill-opacity:1.0000; stroke:none;">
<circle cx="100.3402" cy="69.3500" r="0.5500" /> 
</g>
<g style="fill:#FFFFFF; fill-opacity:1.0000; stroke:none;">
<circle cx="110.5002" cy="69.3500" r="0.5500" /> 
</g>
<g style="fill:#FFFFFF; fill-opacity:1.0000; stroke:none;">
<circle cx="110.5002" cy="75.8500" r="0.5500" /> 
</g>
<g style="fill:#FFFFFF; fill-opacity:1.0000; stroke:none;">
<circle cx="100.3402" cy="75.8500" r="0.5500" /> 
</g>
<g style="fill:#FFFFFF; fill-opacity:1.0000; stroke:none;">
<circle cx="48.5902" cy="71.3500" r="0.4000" /> 
</g>
<g style="fill:#FFFFFF; fill-opacity:1.0000; stroke:none;">
<circle cx="48.5902" cy="68.8500" r="0.4000" /> 
</g>
<g style="fill:#FFFFFF; fill-opacity:1.0000; stroke:none;">
<circle cx="121.3952" cy="68.6000" r="0.6500" /> 
</g>
<g style="fill:#FFFFFF; fill-opacity:1.0000; stroke:none;">
<circle cx="121.3952" cy="73.6000" r="0.6500" /> 
</g>
<g style="fill:#FFFFFF; fill-opacity:1.0000; stroke:none;">
<circle cx="68.6452" cy="56.6000" r="0.5500" /> 
</g>
<g style="fill:#FFFFFF; fill-opacity:1.0000; stroke:none;">
<circle cx="68.6452" cy="59.1400" r="0.5500" /> 
</g>
<g style="fill:#FFFFFF; fill-opacity:1.0000; stroke:none;">
<circle cx="68.6452" cy="61.6800" r="0.5500" /> 
</g>
<g style="fill:#FFFFFF; fill-opacity:1.0000; stroke:none;">
<circle cx="100.3402" cy="62.8500" r="0.5500" /> 
</g>
<g style="fill:#FFFFFF; fill-opacity:1.0000; stroke:none;">
<circle cx="110.5002" cy="62.8500" r="0.5500" /> 
</g>
<g style="fill:#FFFFFF; fill-opacity:1.0000; stroke:none;">
<circle cx="63.1452" cy="88.8900" r="0.5500" /> 
</g>
<g style="fill:#FFFFFF; fill-opacity:1.0000; stroke:none;">
<circle cx="63.1452" cy="86.3500" r="0.5500" /> 
</g>
<g style="fill:#FFFFFF; fill-opacity:1.0000; stroke:none;">
<circle cx="63.1452" cy="83.8100" r="0.5500" /> 
</g>
<g style="fill:#FFFFFF; fill-opacity:1.0000; stroke:none;">
<circle cx="34.5902" cy="69.1000" r="0.6500" /> 
</g>
<g style="fill:#FFFFFF; fill-opacity:1.0000; stroke:none;">
<circle cx="34.5902" cy="74.1000" r="0.6500" /> 
</g>
<g style="fill:#FFFFFF; fill-opacity:1.0000; stroke:none;">
<circle cx="87.8402" cy="72.6449" r="0.4000" /> 
</g>
<g style="fill:#FFFFFF; fill-opacity:1.0000; stroke:none;">
<circle cx="87.8402" cy="75.1449" r="0.4000" /> 
</g>
<g style="fill:#FFFFFF; fill-opacity:1.0000; stroke:none;">
<circle cx="35.0352" cy="84.6000" r="0.6500" /> 
</g>
<g style="fill:#FFFFFF; fill-opacity:1.0000; stroke:none;">
<circle cx="35.0352" cy="89.6000" r="0.6500" /> 
</g>
<g style="fill:#FFFFFF; fill-opacity:1.0000; stroke:none;">
<circle cx="45.8402" cy="86.3500" r="0.4000" /> 
</g>
<g style="fill:#FFFFFF; fill-opacity:1.0000; stroke:none;">
<circle cx="45.8402" cy="83.8500" r="0.4000" /> 
</g> 
</svg>
