<?xml version="1.0" standalone="no"?>
 <!DOCTYPE svg PUBLIC "-//W3C//DTD SVG 1.1//EN" 
 "http://www.w3.org/Graphics/SVG/1.1/DTD/svg11.dtd"> 
<svg
  xmlns:svg="http://www.w3.org/2000/svg"
  xmlns="http://www.w3.org/2000/svg"
  xmlns:xlink="http://www.w3.org/1999/xlink"
  version="1.1"
  width="297.0022mm" height="210.0072mm" viewBox="0.0000 0.0000 297.0022 210.0072">
<title>SVG Image created as AC to DC-F_Silkscreen.svg date 2024/11/09 15:36:02 </title>
  <desc>Image generated by PCBNEW </desc>
<g style="fill:#000000; fill-opacity:1.0000;stroke:#000000; stroke-opacity:1.0000;
stroke-linecap:round; stroke-linejoin:round;"
 transform="translate(0 0) scale(1 1)">
</g>
<g style="fill:none; 
stroke:#000000; stroke-width:0.1500; stroke-opacity:1; 
stroke-linecap:round; stroke-linejoin:round;">
<path d="M177.0022 166.0072
L285.0022 166.0072
L285.0022 198.0072
L177.0022 198.0072
L177.0022 166.0072
" />
</g>
<g style="fill:none; 
stroke:#000000; stroke-width:0.1500; stroke-opacity:1; 
stroke-linecap:round; stroke-linejoin:round;">
<path d="M10.0000 10.0000
L287.0022 10.0000
L287.0022 200.0072
L10.0000 200.0072
L10.0000 10.0000
" />
</g>
<g style="fill:none; 
stroke:#000000; stroke-width:0.1500; stroke-opacity:1; 
stroke-linecap:round; stroke-linejoin:round;">
<path d="M12.0000 12.0000
L285.0022 12.0000
L285.0022 198.0072
L12.0000 198.0072
L12.0000 12.0000
" />
</g>
<g style="fill:none; 
stroke:#000000; stroke-width:0.1500; stroke-opacity:1; 
stroke-linecap:round; stroke-linejoin:round;">
<path d="M60.0000 12.0000
L60.0000 10.0000
" />
</g>
<g style="fill:none; 
stroke:#000000; stroke-width:0.1500; stroke-opacity:1; 
stroke-linecap:round; stroke-linejoin:round;">
<path d="M110.0000 12.0000
L110.0000 10.0000
" />
</g>
<g style="fill:none; 
stroke:#000000; stroke-width:0.1500; stroke-opacity:1; 
stroke-linecap:round; stroke-linejoin:round;">
<path d="M160.0000 12.0000
L160.0000 10.0000
" />
</g>
<g style="fill:none; 
stroke:#000000; stroke-width:0.1500; stroke-opacity:1; 
stroke-linecap:round; stroke-linejoin:round;">
<path d="M210.0000 12.0000
L210.0000 10.0000
" />
</g>
<g style="fill:none; 
stroke:#000000; stroke-width:0.1500; stroke-opacity:1; 
stroke-linecap:round; stroke-linejoin:round;">
<path d="M260.0000 12.0000
L260.0000 10.0000
" />
</g>
<g style="fill:none; 
stroke:#000000; stroke-width:0.1500; stroke-opacity:1; 
stroke-linecap:round; stroke-linejoin:round;">
<text x="35.0000" y="11.6500"
textLength="1.4281" font-size="1.7333" lengthAdjust="spacingAndGlyphs"
text-anchor="start" opacity="0" stroke-opacity="0">1</text>
<g class="stroked-text"><desc>1</desc>
<path d="M36.0892 11.5936
L35.3463 11.5936
" />
<path d="M35.7177 11.5936
L35.7177 10.2936
" />
<path d="M35.7177 10.2936
L35.5939 10.4793
" />
<path d="M35.5939 10.4793
L35.4701 10.6031
" />
<path d="M35.4701 10.6031
L35.3463 10.6650
" />
</g></g>
<g style="fill:none; 
stroke:#000000; stroke-width:0.1500; stroke-opacity:1; 
stroke-linecap:round; stroke-linejoin:round;">
<text x="85.0000" y="11.6500"
textLength="1.4281" font-size="1.7333" lengthAdjust="spacingAndGlyphs"
text-anchor="start" opacity="0" stroke-opacity="0">2</text>
<g class="stroked-text"><desc>2</desc>
<path d="M85.3463 10.4174
L85.4082 10.3555
" />
<path d="M85.4082 10.3555
L85.5320 10.2936
" />
<path d="M85.5320 10.2936
L85.8415 10.2936
" />
<path d="M85.8415 10.2936
L85.9654 10.3555
" />
<path d="M85.9654 10.3555
L86.0273 10.4174
" />
<path d="M86.0273 10.4174
L86.0892 10.5412
" />
<path d="M86.0892 10.5412
L86.0892 10.6650
" />
<path d="M86.0892 10.6650
L86.0273 10.8507
" />
<path d="M86.0273 10.8507
L85.2844 11.5936
" />
<path d="M85.2844 11.5936
L86.0892 11.5936
" />
</g></g>
<g style="fill:none; 
stroke:#000000; stroke-width:0.1500; stroke-opacity:1; 
stroke-linecap:round; stroke-linejoin:round;">
<text x="135.0000" y="11.6500"
textLength="1.4281" font-size="1.7333" lengthAdjust="spacingAndGlyphs"
text-anchor="start" opacity="0" stroke-opacity="0">3</text>
<g class="stroked-text"><desc>3</desc>
<path d="M135.2844 10.2936
L136.0892 10.2936
" />
<path d="M136.0892 10.2936
L135.6558 10.7888
" />
<path d="M135.6558 10.7888
L135.8415 10.7888
" />
<path d="M135.8415 10.7888
L135.9654 10.8507
" />
<path d="M135.9654 10.8507
L136.0273 10.9127
" />
<path d="M136.0273 10.9127
L136.0892 11.0365
" />
<path d="M136.0892 11.0365
L136.0892 11.3460
" />
<path d="M136.0892 11.3460
L136.0273 11.4698
" />
<path d="M136.0273 11.4698
L135.9654 11.5317
" />
<path d="M135.9654 11.5317
L135.8415 11.5936
" />
<path d="M135.8415 11.5936
L135.4701 11.5936
" />
<path d="M135.4701 11.5936
L135.3463 11.5317
" />
<path d="M135.3463 11.5317
L135.2844 11.4698
" />
</g></g>
<g style="fill:none; 
stroke:#000000; stroke-width:0.1500; stroke-opacity:1; 
stroke-linecap:round; stroke-linejoin:round;">
<text x="185.0000" y="11.6500"
textLength="1.4281" font-size="1.7333" lengthAdjust="spacingAndGlyphs"
text-anchor="start" opacity="0" stroke-opacity="0">4</text>
<g class="stroked-text"><desc>4</desc>
<path d="M185.9654 10.7269
L185.9654 11.5936
" />
<path d="M185.6558 10.2317
L185.3463 11.1603
" />
<path d="M185.3463 11.1603
L186.1511 11.1603
" />
</g></g>
<g style="fill:none; 
stroke:#000000; stroke-width:0.1500; stroke-opacity:1; 
stroke-linecap:round; stroke-linejoin:round;">
<text x="235.0000" y="11.6500"
textLength="1.4281" font-size="1.7333" lengthAdjust="spacingAndGlyphs"
text-anchor="start" opacity="0" stroke-opacity="0">5</text>
<g class="stroked-text"><desc>5</desc>
<path d="M236.0273 10.2936
L235.4082 10.2936
" />
<path d="M235.4082 10.2936
L235.3463 10.9127
" />
<path d="M235.3463 10.9127
L235.4082 10.8507
" />
<path d="M235.4082 10.8507
L235.5320 10.7888
" />
<path d="M235.5320 10.7888
L235.8415 10.7888
" />
<path d="M235.8415 10.7888
L235.9654 10.8507
" />
<path d="M235.9654 10.8507
L236.0273 10.9127
" />
<path d="M236.0273 10.9127
L236.0892 11.0365
" />
<path d="M236.0892 11.0365
L236.0892 11.3460
" />
<path d="M236.0892 11.3460
L236.0273 11.4698
" />
<path d="M236.0273 11.4698
L235.9654 11.5317
" />
<path d="M235.9654 11.5317
L235.8415 11.5936
" />
<path d="M235.8415 11.5936
L235.5320 11.5936
" />
<path d="M235.5320 11.5936
L235.4082 11.5317
" />
<path d="M235.4082 11.5317
L235.3463 11.4698
" />
</g></g>
<g style="fill:none; 
stroke:#000000; stroke-width:0.1500; stroke-opacity:1; 
stroke-linecap:round; stroke-linejoin:round;">
<text x="285.0000" y="11.6500"
textLength="1.4281" font-size="1.7333" lengthAdjust="spacingAndGlyphs"
text-anchor="start" opacity="0" stroke-opacity="0">6</text>
<g class="stroked-text"><desc>6</desc>
<path d="M285.9654 10.2936
L285.7177 10.2936
" />
<path d="M285.7177 10.2936
L285.5939 10.3555
" />
<path d="M285.5939 10.3555
L285.5320 10.4174
" />
<path d="M285.5320 10.4174
L285.4082 10.6031
" />
<path d="M285.4082 10.6031
L285.3463 10.8507
" />
<path d="M285.3463 10.8507
L285.3463 11.3460
" />
<path d="M285.3463 11.3460
L285.4082 11.4698
" />
<path d="M285.4082 11.4698
L285.4701 11.5317
" />
<path d="M285.4701 11.5317
L285.5939 11.5936
" />
<path d="M285.5939 11.5936
L285.8415 11.5936
" />
<path d="M285.8415 11.5936
L285.9654 11.5317
" />
<path d="M285.9654 11.5317
L286.0273 11.4698
" />
<path d="M286.0273 11.4698
L286.0892 11.3460
" />
<path d="M286.0892 11.3460
L286.0892 11.0365
" />
<path d="M286.0892 11.0365
L286.0273 10.9127
" />
<path d="M286.0273 10.9127
L285.9654 10.8507
" />
<path d="M285.9654 10.8507
L285.8415 10.7888
" />
<path d="M285.8415 10.7888
L285.5939 10.7888
" />
<path d="M285.5939 10.7888
L285.4701 10.8507
" />
<path d="M285.4701 10.8507
L285.4082 10.9127
" />
<path d="M285.4082 10.9127
L285.3463 11.0365
" />
</g></g>
<g style="fill:none; 
stroke:#000000; stroke-width:0.1500; stroke-opacity:1; 
stroke-linecap:round; stroke-linejoin:round;">
<path d="M60.0000 198.0072
L60.0000 200.0072
" />
</g>
<g style="fill:none; 
stroke:#000000; stroke-width:0.1500; stroke-opacity:1; 
stroke-linecap:round; stroke-linejoin:round;">
<path d="M110.0000 198.0072
L110.0000 200.0072
" />
</g>
<g style="fill:none; 
stroke:#000000; stroke-width:0.1500; stroke-opacity:1; 
stroke-linecap:round; stroke-linejoin:round;">
<path d="M160.0000 198.0072
L160.0000 200.0072
" />
</g>
<g style="fill:none; 
stroke:#000000; stroke-width:0.1500; stroke-opacity:1; 
stroke-linecap:round; stroke-linejoin:round;">
<path d="M210.0000 198.0072
L210.0000 200.0072
" />
</g>
<g style="fill:none; 
stroke:#000000; stroke-width:0.1500; stroke-opacity:1; 
stroke-linecap:round; stroke-linejoin:round;">
<path d="M260.0000 198.0072
L260.0000 200.0072
" />
</g>
<g style="fill:none; 
stroke:#000000; stroke-width:0.1500; stroke-opacity:1; 
stroke-linecap:round; stroke-linejoin:round;">
<text x="35.0000" y="199.6572"
textLength="1.4281" font-size="1.7333" lengthAdjust="spacingAndGlyphs"
text-anchor="start" opacity="0" stroke-opacity="0">1</text>
<g class="stroked-text"><desc>1</desc>
<path d="M36.0892 199.6008
L35.3463 199.6008
" />
<path d="M35.7177 199.6008
L35.7177 198.3008
" />
<path d="M35.7177 198.3008
L35.5939 198.4865
" />
<path d="M35.5939 198.4865
L35.4701 198.6103
" />
<path d="M35.4701 198.6103
L35.3463 198.6722
" />
</g></g>
<g style="fill:none; 
stroke:#000000; stroke-width:0.1500; stroke-opacity:1; 
stroke-linecap:round; stroke-linejoin:round;">
<text x="85.0000" y="199.6572"
textLength="1.4281" font-size="1.7333" lengthAdjust="spacingAndGlyphs"
text-anchor="start" opacity="0" stroke-opacity="0">2</text>
<g class="stroked-text"><desc>2</desc>
<path d="M85.3463 198.4246
L85.4082 198.3627
" />
<path d="M85.4082 198.3627
L85.5320 198.3008
" />
<path d="M85.5320 198.3008
L85.8415 198.3008
" />
<path d="M85.8415 198.3008
L85.9654 198.3627
" />
<path d="M85.9654 198.3627
L86.0273 198.4246
" />
<path d="M86.0273 198.4246
L86.0892 198.5484
" />
<path d="M86.0892 198.5484
L86.0892 198.6722
" />
<path d="M86.0892 198.6722
L86.0273 198.8579
" />
<path d="M86.0273 198.8579
L85.2844 199.6008
" />
<path d="M85.2844 199.6008
L86.0892 199.6008
" />
</g></g>
<g style="fill:none; 
stroke:#000000; stroke-width:0.1500; stroke-opacity:1; 
stroke-linecap:round; stroke-linejoin:round;">
<text x="135.0000" y="199.6572"
textLength="1.4281" font-size="1.7333" lengthAdjust="spacingAndGlyphs"
text-anchor="start" opacity="0" stroke-opacity="0">3</text>
<g class="stroked-text"><desc>3</desc>
<path d="M135.2844 198.3008
L136.0892 198.3008
" />
<path d="M136.0892 198.3008
L135.6558 198.7960
" />
<path d="M135.6558 198.7960
L135.8415 198.7960
" />
<path d="M135.8415 198.7960
L135.9654 198.8579
" />
<path d="M135.9654 198.8579
L136.0273 198.9199
" />
<path d="M136.0273 198.9199
L136.0892 199.0437
" />
<path d="M136.0892 199.0437
L136.0892 199.3532
" />
<path d="M136.0892 199.3532
L136.0273 199.4770
" />
<path d="M136.0273 199.4770
L135.9654 199.5389
" />
<path d="M135.9654 199.5389
L135.8415 199.6008
" />
<path d="M135.8415 199.6008
L135.4701 199.6008
" />
<path d="M135.4701 199.6008
L135.3463 199.5389
" />
<path d="M135.3463 199.5389
L135.2844 199.4770
" />
</g></g>
<g style="fill:none; 
stroke:#000000; stroke-width:0.1500; stroke-opacity:1; 
stroke-linecap:round; stroke-linejoin:round;">
<text x="185.0000" y="199.6572"
textLength="1.4281" font-size="1.7333" lengthAdjust="spacingAndGlyphs"
text-anchor="start" opacity="0" stroke-opacity="0">4</text>
<g class="stroked-text"><desc>4</desc>
<path d="M185.9654 198.7341
L185.9654 199.6008
" />
<path d="M185.6558 198.2389
L185.3463 199.1675
" />
<path d="M185.3463 199.1675
L186.1511 199.1675
" />
</g></g>
<g style="fill:none; 
stroke:#000000; stroke-width:0.1500; stroke-opacity:1; 
stroke-linecap:round; stroke-linejoin:round;">
<text x="235.0000" y="199.6572"
textLength="1.4281" font-size="1.7333" lengthAdjust="spacingAndGlyphs"
text-anchor="start" opacity="0" stroke-opacity="0">5</text>
<g class="stroked-text"><desc>5</desc>
<path d="M236.0273 198.3008
L235.4082 198.3008
" />
<path d="M235.4082 198.3008
L235.3463 198.9199
" />
<path d="M235.3463 198.9199
L235.4082 198.8579
" />
<path d="M235.4082 198.8579
L235.5320 198.7960
" />
<path d="M235.5320 198.7960
L235.8415 198.7960
" />
<path d="M235.8415 198.7960
L235.9654 198.8579
" />
<path d="M235.9654 198.8579
L236.0273 198.9199
" />
<path d="M236.0273 198.9199
L236.0892 199.0437
" />
<path d="M236.0892 199.0437
L236.0892 199.3532
" />
<path d="M236.0892 199.3532
L236.0273 199.4770
" />
<path d="M236.0273 199.4770
L235.9654 199.5389
" />
<path d="M235.9654 199.5389
L235.8415 199.6008
" />
<path d="M235.8415 199.6008
L235.5320 199.6008
" />
<path d="M235.5320 199.6008
L235.4082 199.5389
" />
<path d="M235.4082 199.5389
L235.3463 199.4770
" />
</g></g>
<g style="fill:none; 
stroke:#000000; stroke-width:0.1500; stroke-opacity:1; 
stroke-linecap:round; stroke-linejoin:round;">
<text x="285.0000" y="199.6572"
textLength="1.4281" font-size="1.7333" lengthAdjust="spacingAndGlyphs"
text-anchor="start" opacity="0" stroke-opacity="0">6</text>
<g class="stroked-text"><desc>6</desc>
<path d="M285.9654 198.3008
L285.7177 198.3008
" />
<path d="M285.7177 198.3008
L285.5939 198.3627
" />
<path d="M285.5939 198.3627
L285.5320 198.4246
" />
<path d="M285.5320 198.4246
L285.4082 198.6103
" />
<path d="M285.4082 198.6103
L285.3463 198.8579
" />
<path d="M285.3463 198.8579
L285.3463 199.3532
" />
<path d="M285.3463 199.3532
L285.4082 199.4770
" />
<path d="M285.4082 199.4770
L285.4701 199.5389
" />
<path d="M285.4701 199.5389
L285.5939 199.6008
" />
<path d="M285.5939 199.6008
L285.8415 199.6008
" />
<path d="M285.8415 199.6008
L285.9654 199.5389
" />
<path d="M285.9654 199.5389
L286.0273 199.4770
" />
<path d="M286.0273 199.4770
L286.0892 199.3532
" />
<path d="M286.0892 199.3532
L286.0892 199.0437
" />
<path d="M286.0892 199.0437
L286.0273 198.9199
" />
<path d="M286.0273 198.9199
L285.9654 198.8579
" />
<path d="M285.9654 198.8579
L285.8415 198.7960
" />
<path d="M285.8415 198.7960
L285.5939 198.7960
" />
<path d="M285.5939 198.7960
L285.4701 198.8579
" />
<path d="M285.4701 198.8579
L285.4082 198.9199
" />
<path d="M285.4082 198.9199
L285.3463 199.0437
" />
</g></g>
<g style="fill:none; 
stroke:#000000; stroke-width:0.1500; stroke-opacity:1; 
stroke-linecap:round; stroke-linejoin:round;">
<path d="M10.0000 60.0000
L12.0000 60.0000
" />
</g>
<g style="fill:none; 
stroke:#000000; stroke-width:0.1500; stroke-opacity:1; 
stroke-linecap:round; stroke-linejoin:round;">
<path d="M10.0000 110.0000
L12.0000 110.0000
" />
</g>
<g style="fill:none; 
stroke:#000000; stroke-width:0.1500; stroke-opacity:1; 
stroke-linecap:round; stroke-linejoin:round;">
<path d="M10.0000 160.0000
L12.0000 160.0000
" />
</g>
<g style="fill:none; 
stroke:#000000; stroke-width:0.1500; stroke-opacity:1; 
stroke-linecap:round; stroke-linejoin:round;">
<text x="11.0000" y="35.6500"
textLength="1.3043" font-size="1.7333" lengthAdjust="spacingAndGlyphs"
text-anchor="middle" opacity="0" stroke-opacity="0">A</text>
<g class="stroked-text"><desc>A</desc>
<path d="M10.6905 35.2222
L11.3095 35.2222
" />
<path d="M10.5667 35.5936
L11.0000 34.2936
" />
<path d="M11.0000 34.2936
L11.4333 35.5936
" />
</g></g>
<g style="fill:none; 
stroke:#000000; stroke-width:0.1500; stroke-opacity:1; 
stroke-linecap:round; stroke-linejoin:round;">
<text x="11.0000" y="85.6500"
textLength="1.4900" font-size="1.7333" lengthAdjust="spacingAndGlyphs"
text-anchor="middle" opacity="0" stroke-opacity="0">B</text>
<g class="stroked-text"><desc>B</desc>
<path d="M11.0929 84.9127
L11.2786 84.9746
" />
<path d="M11.2786 84.9746
L11.3405 85.0365
" />
<path d="M11.3405 85.0365
L11.4024 85.1603
" />
<path d="M11.4024 85.1603
L11.4024 85.3460
" />
<path d="M11.4024 85.3460
L11.3405 85.4698
" />
<path d="M11.3405 85.4698
L11.2786 85.5317
" />
<path d="M11.2786 85.5317
L11.1548 85.5936
" />
<path d="M11.1548 85.5936
L10.6595 85.5936
" />
<path d="M10.6595 85.5936
L10.6595 84.2936
" />
<path d="M10.6595 84.2936
L11.0929 84.2936
" />
<path d="M11.0929 84.2936
L11.2167 84.3555
" />
<path d="M11.2167 84.3555
L11.2786 84.4174
" />
<path d="M11.2786 84.4174
L11.3405 84.5412
" />
<path d="M11.3405 84.5412
L11.3405 84.6650
" />
<path d="M11.3405 84.6650
L11.2786 84.7888
" />
<path d="M11.2786 84.7888
L11.2167 84.8507
" />
<path d="M11.2167 84.8507
L11.0929 84.9127
" />
<path d="M11.0929 84.9127
L10.6595 84.9127
" />
</g></g>
<g style="fill:none; 
stroke:#000000; stroke-width:0.1500; stroke-opacity:1; 
stroke-linecap:round; stroke-linejoin:round;">
<text x="11.0000" y="135.6500"
textLength="1.4900" font-size="1.7333" lengthAdjust="spacingAndGlyphs"
text-anchor="middle" opacity="0" stroke-opacity="0">C</text>
<g class="stroked-text"><desc>C</desc>
<path d="M11.4024 135.4698
L11.3405 135.5317
" />
<path d="M11.3405 135.5317
L11.1548 135.5936
" />
<path d="M11.1548 135.5936
L11.0310 135.5936
" />
<path d="M11.0310 135.5936
L10.8452 135.5317
" />
<path d="M10.8452 135.5317
L10.7214 135.4079
" />
<path d="M10.7214 135.4079
L10.6595 135.2841
" />
<path d="M10.6595 135.2841
L10.5976 135.0365
" />
<path d="M10.5976 135.0365
L10.5976 134.8507
" />
<path d="M10.5976 134.8507
L10.6595 134.6031
" />
<path d="M10.6595 134.6031
L10.7214 134.4793
" />
<path d="M10.7214 134.4793
L10.8452 134.3555
" />
<path d="M10.8452 134.3555
L11.0310 134.2936
" />
<path d="M11.0310 134.2936
L11.1548 134.2936
" />
<path d="M11.1548 134.2936
L11.3405 134.3555
" />
<path d="M11.3405 134.3555
L11.4024 134.4174
" />
</g></g>
<g style="fill:none; 
stroke:#000000; stroke-width:0.1500; stroke-opacity:1; 
stroke-linecap:round; stroke-linejoin:round;">
<text x="11.0000" y="185.6500"
textLength="1.4900" font-size="1.7333" lengthAdjust="spacingAndGlyphs"
text-anchor="middle" opacity="0" stroke-opacity="0">D</text>
<g class="stroked-text"><desc>D</desc>
<path d="M10.6595 185.5936
L10.6595 184.2936
" />
<path d="M10.6595 184.2936
L10.9690 184.2936
" />
<path d="M10.9690 184.2936
L11.1548 184.3555
" />
<path d="M11.1548 184.3555
L11.2786 184.4793
" />
<path d="M11.2786 184.4793
L11.3405 184.6031
" />
<path d="M11.3405 184.6031
L11.4024 184.8507
" />
<path d="M11.4024 184.8507
L11.4024 185.0365
" />
<path d="M11.4024 185.0365
L11.3405 185.2841
" />
<path d="M11.3405 185.2841
L11.2786 185.4079
" />
<path d="M11.2786 185.4079
L11.1548 185.5317
" />
<path d="M11.1548 185.5317
L10.9690 185.5936
" />
<path d="M10.9690 185.5936
L10.6595 185.5936
" />
</g></g>
<g style="fill:none; 
stroke:#000000; stroke-width:0.1500; stroke-opacity:1; 
stroke-linecap:round; stroke-linejoin:round;">
<path d="M287.0022 60.0000
L285.0022 60.0000
" />
</g>
<g style="fill:none; 
stroke:#000000; stroke-width:0.1500; stroke-opacity:1; 
stroke-linecap:round; stroke-linejoin:round;">
<path d="M287.0022 110.0000
L285.0022 110.0000
" />
</g>
<g style="fill:none; 
stroke:#000000; stroke-width:0.1500; stroke-opacity:1; 
stroke-linecap:round; stroke-linejoin:round;">
<path d="M287.0022 160.0000
L285.0022 160.0000
" />
</g>
<g style="fill:none; 
stroke:#000000; stroke-width:0.1500; stroke-opacity:1; 
stroke-linecap:round; stroke-linejoin:round;">
<text x="286.0022" y="35.6500"
textLength="1.3043" font-size="1.7333" lengthAdjust="spacingAndGlyphs"
text-anchor="middle" opacity="0" stroke-opacity="0">A</text>
<g class="stroked-text"><desc>A</desc>
<path d="M285.6927 35.2222
L286.3117 35.2222
" />
<path d="M285.5689 35.5936
L286.0022 34.2936
" />
<path d="M286.0022 34.2936
L286.4355 35.5936
" />
</g></g>
<g style="fill:none; 
stroke:#000000; stroke-width:0.1500; stroke-opacity:1; 
stroke-linecap:round; stroke-linejoin:round;">
<text x="286.0022" y="85.6500"
textLength="1.4900" font-size="1.7333" lengthAdjust="spacingAndGlyphs"
text-anchor="middle" opacity="0" stroke-opacity="0">B</text>
<g class="stroked-text"><desc>B</desc>
<path d="M286.0951 84.9127
L286.2808 84.9746
" />
<path d="M286.2808 84.9746
L286.3427 85.0365
" />
<path d="M286.3427 85.0365
L286.4046 85.1603
" />
<path d="M286.4046 85.1603
L286.4046 85.3460
" />
<path d="M286.4046 85.3460
L286.3427 85.4698
" />
<path d="M286.3427 85.4698
L286.2808 85.5317
" />
<path d="M286.2808 85.5317
L286.1570 85.5936
" />
<path d="M286.1570 85.5936
L285.6617 85.5936
" />
<path d="M285.6617 85.5936
L285.6617 84.2936
" />
<path d="M285.6617 84.2936
L286.0951 84.2936
" />
<path d="M286.0951 84.2936
L286.2189 84.3555
" />
<path d="M286.2189 84.3555
L286.2808 84.4174
" />
<path d="M286.2808 84.4174
L286.3427 84.5412
" />
<path d="M286.3427 84.5412
L286.3427 84.6650
" />
<path d="M286.3427 84.6650
L286.2808 84.7888
" />
<path d="M286.2808 84.7888
L286.2189 84.8507
" />
<path d="M286.2189 84.8507
L286.0951 84.9127
" />
<path d="M286.0951 84.9127
L285.6617 84.9127
" />
</g></g>
<g style="fill:none; 
stroke:#000000; stroke-width:0.1500; stroke-opacity:1; 
stroke-linecap:round; stroke-linejoin:round;">
<text x="286.0022" y="135.6500"
textLength="1.4900" font-size="1.7333" lengthAdjust="spacingAndGlyphs"
text-anchor="middle" opacity="0" stroke-opacity="0">C</text>
<g class="stroked-text"><desc>C</desc>
<path d="M286.4046 135.4698
L286.3427 135.5317
" />
<path d="M286.3427 135.5317
L286.1570 135.5936
" />
<path d="M286.1570 135.5936
L286.0332 135.5936
" />
<path d="M286.0332 135.5936
L285.8474 135.5317
" />
<path d="M285.8474 135.5317
L285.7236 135.4079
" />
<path d="M285.7236 135.4079
L285.6617 135.2841
" />
<path d="M285.6617 135.2841
L285.5998 135.0365
" />
<path d="M285.5998 135.0365
L285.5998 134.8507
" />
<path d="M285.5998 134.8507
L285.6617 134.6031
" />
<path d="M285.6617 134.6031
L285.7236 134.4793
" />
<path d="M285.7236 134.4793
L285.8474 134.3555
" />
<path d="M285.8474 134.3555
L286.0332 134.2936
" />
<path d="M286.0332 134.2936
L286.1570 134.2936
" />
<path d="M286.1570 134.2936
L286.3427 134.3555
" />
<path d="M286.3427 134.3555
L286.4046 134.4174
" />
</g></g>
<g style="fill:none; 
stroke:#000000; stroke-width:0.1500; stroke-opacity:1; 
stroke-linecap:round; stroke-linejoin:round;">
<text x="286.0022" y="185.6500"
textLength="1.4900" font-size="1.7333" lengthAdjust="spacingAndGlyphs"
text-anchor="middle" opacity="0" stroke-opacity="0">D</text>
<g class="stroked-text"><desc>D</desc>
<path d="M285.6617 185.5936
L285.6617 184.2936
" />
<path d="M285.6617 184.2936
L285.9712 184.2936
" />
<path d="M285.9712 184.2936
L286.1570 184.3555
" />
<path d="M286.1570 184.3555
L286.2808 184.4793
" />
<path d="M286.2808 184.4793
L286.3427 184.6031
" />
<path d="M286.3427 184.6031
L286.4046 184.8507
" />
<path d="M286.4046 184.8507
L286.4046 185.0365
" />
<path d="M286.4046 185.0365
L286.3427 185.2841
" />
<path d="M286.3427 185.2841
L286.2808 185.4079
" />
<path d="M286.2808 185.4079
L286.1570 185.5317
" />
<path d="M286.1570 185.5317
L285.9712 185.5936
" />
<path d="M285.9712 185.5936
L285.6617 185.5936
" />
</g></g>
<g style="fill:none; 
stroke:#000000; stroke-width:0.1500; stroke-opacity:1; 
stroke-linecap:round; stroke-linejoin:round;">
<text x="200.0022" y="193.8572"
textLength="7.0071" font-size="2.0000" lengthAdjust="spacingAndGlyphs"
text-anchor="start" opacity="0" stroke-opacity="0">Date: </text>
<g class="stroked-text"><desc>Date: </desc>
<path d="M200.4580 193.7933
L200.4580 192.2933
" />
<path d="M200.4580 192.2933
L200.8152 192.2933
" />
<path d="M200.8152 192.2933
L201.0295 192.3648
" />
<path d="M201.0295 192.3648
L201.1723 192.5076
" />
<path d="M201.1723 192.5076
L201.2437 192.6505
" />
<path d="M201.2437 192.6505
L201.3152 192.9362
" />
<path d="M201.3152 192.9362
L201.3152 193.1505
" />
<path d="M201.3152 193.1505
L201.2437 193.4362
" />
<path d="M201.2437 193.4362
L201.1723 193.5790
" />
<path d="M201.1723 193.5790
L201.0295 193.7219
" />
<path d="M201.0295 193.7219
L200.8152 193.7933
" />
<path d="M200.8152 193.7933
L200.4580 193.7933
" />
<path d="M202.6009 193.7933
L202.6009 193.0076
" />
<path d="M202.6009 193.0076
L202.5295 192.8648
" />
<path d="M202.5295 192.8648
L202.3866 192.7933
" />
<path d="M202.3866 192.7933
L202.1009 192.7933
" />
<path d="M202.1009 192.7933
L201.9580 192.8648
" />
<path d="M202.6009 193.7219
L202.4580 193.7933
" />
<path d="M202.4580 193.7933
L202.1009 193.7933
" />
<path d="M202.1009 193.7933
L201.9580 193.7219
" />
<path d="M201.9580 193.7219
L201.8866 193.5790
" />
<path d="M201.8866 193.5790
L201.8866 193.4362
" />
<path d="M201.8866 193.4362
L201.9580 193.2933
" />
<path d="M201.9580 193.2933
L202.1009 193.2219
" />
<path d="M202.1009 193.2219
L202.4580 193.2219
" />
<path d="M202.4580 193.2219
L202.6009 193.1505
" />
<path d="M203.1009 192.7933
L203.6723 192.7933
" />
<path d="M203.3152 192.2933
L203.3152 193.5790
" />
<path d="M203.3152 193.5790
L203.3866 193.7219
" />
<path d="M203.3866 193.7219
L203.5295 193.7933
" />
<path d="M203.5295 193.7933
L203.6723 193.7933
" />
<path d="M204.7437 193.7219
L204.6009 193.7933
" />
<path d="M204.6009 193.7933
L204.3152 193.7933
" />
<path d="M204.3152 193.7933
L204.1723 193.7219
" />
<path d="M204.1723 193.7219
L204.1009 193.5790
" />
<path d="M204.1009 193.5790
L204.1009 193.0076
" />
<path d="M204.1009 193.0076
L204.1723 192.8648
" />
<path d="M204.1723 192.8648
L204.3152 192.7933
" />
<path d="M204.3152 192.7933
L204.6009 192.7933
" />
<path d="M204.6009 192.7933
L204.7437 192.8648
" />
<path d="M204.7437 192.8648
L204.8152 193.0076
" />
<path d="M204.8152 193.0076
L204.8152 193.1505
" />
<path d="M204.8152 193.1505
L204.1009 193.2933
" />
<path d="M205.4580 193.6505
L205.5295 193.7219
" />
<path d="M205.5295 193.7219
L205.4580 193.7933
" />
<path d="M205.4580 193.7933
L205.3866 193.7219
" />
<path d="M205.3866 193.7219
L205.4580 193.6505
" />
<path d="M205.4580 193.6505
L205.4580 193.7933
" />
<path d="M205.4580 192.8648
L205.5295 192.9362
" />
<path d="M205.5295 192.9362
L205.4580 193.0076
" />
<path d="M205.4580 193.0076
L205.3866 192.9362
" />
<path d="M205.3866 192.9362
L205.4580 192.8648
" />
<path d="M205.4580 192.8648
L205.4580 193.0076
" />
</g></g>
<g style="fill:none; 
stroke:#000000; stroke-width:0.1500; stroke-opacity:1; 
stroke-linecap:round; stroke-linejoin:round;">
<path d="M177.0022 194.5072
L285.0022 194.5072
" />
</g>
<g style="fill:none; 
stroke:#000000; stroke-width:0.1500; stroke-opacity:1; 
stroke-linecap:round; stroke-linejoin:round;">
<text x="178.0022" y="196.6572"
textLength="20.8643" font-size="2.0000" lengthAdjust="spacingAndGlyphs"
text-anchor="start" opacity="0" stroke-opacity="0">KiCad E.D.A. 8.0.5</text>
<g class="stroked-text"><desc>KiCad E.D.A. 8.0.5</desc>
<path d="M178.4580 196.5933
L178.4580 195.0933
" />
<path d="M179.3152 196.5933
L178.6723 195.7362
" />
<path d="M179.3152 195.0933
L178.4580 195.9505
" />
<path d="M179.9580 196.5933
L179.9580 195.5933
" />
<path d="M179.9580 195.0933
L179.8866 195.1648
" />
<path d="M179.8866 195.1648
L179.9580 195.2362
" />
<path d="M179.9580 195.2362
L180.0295 195.1648
" />
<path d="M180.0295 195.1648
L179.9580 195.0933
" />
<path d="M179.9580 195.0933
L179.9580 195.2362
" />
<path d="M181.5295 196.4505
L181.4580 196.5219
" />
<path d="M181.4580 196.5219
L181.2437 196.5933
" />
<path d="M181.2437 196.5933
L181.1009 196.5933
" />
<path d="M181.1009 196.5933
L180.8866 196.5219
" />
<path d="M180.8866 196.5219
L180.7437 196.3790
" />
<path d="M180.7437 196.3790
L180.6723 196.2362
" />
<path d="M180.6723 196.2362
L180.6009 195.9505
" />
<path d="M180.6009 195.9505
L180.6009 195.7362
" />
<path d="M180.6009 195.7362
L180.6723 195.4505
" />
<path d="M180.6723 195.4505
L180.7437 195.3076
" />
<path d="M180.7437 195.3076
L180.8866 195.1648
" />
<path d="M180.8866 195.1648
L181.1009 195.0933
" />
<path d="M181.1009 195.0933
L181.2437 195.0933
" />
<path d="M181.2437 195.0933
L181.4580 195.1648
" />
<path d="M181.4580 195.1648
L181.5295 195.2362
" />
<path d="M182.8152 196.5933
L182.8152 195.8076
" />
<path d="M182.8152 195.8076
L182.7437 195.6648
" />
<path d="M182.7437 195.6648
L182.6009 195.5933
" />
<path d="M182.6009 195.5933
L182.3152 195.5933
" />
<path d="M182.3152 195.5933
L182.1723 195.6648
" />
<path d="M182.8152 196.5219
L182.6723 196.5933
" />
<path d="M182.6723 196.5933
L182.3152 196.5933
" />
<path d="M182.3152 196.5933
L182.1723 196.5219
" />
<path d="M182.1723 196.5219
L182.1009 196.3790
" />
<path d="M182.1009 196.3790
L182.1009 196.2362
" />
<path d="M182.1009 196.2362
L182.1723 196.0933
" />
<path d="M182.1723 196.0933
L182.3152 196.0219
" />
<path d="M182.3152 196.0219
L182.6723 196.0219
" />
<path d="M182.6723 196.0219
L182.8152 195.9505
" />
<path d="M184.1723 196.5933
L184.1723 195.0933
" />
<path d="M184.1723 196.5219
L184.0295 196.5933
" />
<path d="M184.0295 196.5933
L183.7437 196.5933
" />
<path d="M183.7437 196.5933
L183.6009 196.5219
" />
<path d="M183.6009 196.5219
L183.5295 196.4505
" />
<path d="M183.5295 196.4505
L183.4580 196.3076
" />
<path d="M183.4580 196.3076
L183.4580 195.8790
" />
<path d="M183.4580 195.8790
L183.5295 195.7362
" />
<path d="M183.5295 195.7362
L183.6009 195.6648
" />
<path d="M183.6009 195.6648
L183.7437 195.5933
" />
<path d="M183.7437 195.5933
L184.0295 195.5933
" />
<path d="M184.0295 195.5933
L184.1723 195.6648
" />
<path d="M186.0295 195.8076
L186.5295 195.8076
" />
<path d="M186.7437 196.5933
L186.0295 196.5933
" />
<path d="M186.0295 196.5933
L186.0295 195.0933
" />
<path d="M186.0295 195.0933
L186.7437 195.0933
" />
<path d="M187.3866 196.4505
L187.4580 196.5219
" />
<path d="M187.4580 196.5219
L187.3866 196.5933
" />
<path d="M187.3866 196.5933
L187.3152 196.5219
" />
<path d="M187.3152 196.5219
L187.3866 196.4505
" />
<path d="M187.3866 196.4505
L187.3866 196.5933
" />
<path d="M188.1009 196.5933
L188.1009 195.0933
" />
<path d="M188.1009 195.0933
L188.4580 195.0933
" />
<path d="M188.4580 195.0933
L188.6723 195.1648
" />
<path d="M188.6723 195.1648
L188.8152 195.3076
" />
<path d="M188.8152 195.3076
L188.8866 195.4505
" />
<path d="M188.8866 195.4505
L188.9580 195.7362
" />
<path d="M188.9580 195.7362
L188.9580 195.9505
" />
<path d="M188.9580 195.9505
L188.8866 196.2362
" />
<path d="M188.8866 196.2362
L188.8152 196.3790
" />
<path d="M188.8152 196.3790
L188.6723 196.5219
" />
<path d="M188.6723 196.5219
L188.4580 196.5933
" />
<path d="M188.4580 196.5933
L188.1009 196.5933
" />
<path d="M189.6009 196.4505
L189.6723 196.5219
" />
<path d="M189.6723 196.5219
L189.6009 196.5933
" />
<path d="M189.6009 196.5933
L189.5295 196.5219
" />
<path d="M189.5295 196.5219
L189.6009 196.4505
" />
<path d="M189.6009 196.4505
L189.6009 196.5933
" />
<path d="M190.2437 196.1648
L190.9580 196.1648
" />
<path d="M190.1009 196.5933
L190.6009 195.0933
" />
<path d="M190.6009 195.0933
L191.1009 196.5933
" />
<path d="M191.6009 196.4505
L191.6723 196.5219
" />
<path d="M191.6723 196.5219
L191.6009 196.5933
" />
<path d="M191.6009 196.5933
L191.5295 196.5219
" />
<path d="M191.5295 196.5219
L191.6009 196.4505
" />
<path d="M191.6009 196.4505
L191.6009 196.5933
" />
<path d="M193.6723 195.7362
L193.5295 195.6648
" />
<path d="M193.5295 195.6648
L193.4580 195.5933
" />
<path d="M193.4580 195.5933
L193.3866 195.4505
" />
<path d="M193.3866 195.4505
L193.3866 195.3790
" />
<path d="M193.3866 195.3790
L193.4580 195.2362
" />
<path d="M193.4580 195.2362
L193.5295 195.1648
" />
<path d="M193.5295 195.1648
L193.6723 195.0933
" />
<path d="M193.6723 195.0933
L193.9580 195.0933
" />
<path d="M193.9580 195.0933
L194.1009 195.1648
" />
<path d="M194.1009 195.1648
L194.1723 195.2362
" />
<path d="M194.1723 195.2362
L194.2437 195.3790
" />
<path d="M194.2437 195.3790
L194.2437 195.4505
" />
<path d="M194.2437 195.4505
L194.1723 195.5933
" />
<path d="M194.1723 195.5933
L194.1009 195.6648
" />
<path d="M194.1009 195.6648
L193.9580 195.7362
" />
<path d="M193.9580 195.7362
L193.6723 195.7362
" />
<path d="M193.6723 195.7362
L193.5295 195.8076
" />
<path d="M193.5295 195.8076
L193.4580 195.8790
" />
<path d="M193.4580 195.8790
L193.3866 196.0219
" />
<path d="M193.3866 196.0219
L193.3866 196.3076
" />
<path d="M193.3866 196.3076
L193.4580 196.4505
" />
<path d="M193.4580 196.4505
L193.5295 196.5219
" />
<path d="M193.5295 196.5219
L193.6723 196.5933
" />
<path d="M193.6723 196.5933
L193.9580 196.5933
" />
<path d="M193.9580 196.5933
L194.1009 196.5219
" />
<path d="M194.1009 196.5219
L194.1723 196.4505
" />
<path d="M194.1723 196.4505
L194.2437 196.3076
" />
<path d="M194.2437 196.3076
L194.2437 196.0219
" />
<path d="M194.2437 196.0219
L194.1723 195.8790
" />
<path d="M194.1723 195.8790
L194.1009 195.8076
" />
<path d="M194.1009 195.8076
L193.9580 195.7362
" />
<path d="M194.8866 196.4505
L194.9580 196.5219
" />
<path d="M194.9580 196.5219
L194.8866 196.5933
" />
<path d="M194.8866 196.5933
L194.8152 196.5219
" />
<path d="M194.8152 196.5219
L194.8866 196.4505
" />
<path d="M194.8866 196.4505
L194.8866 196.5933
" />
<path d="M195.8866 195.0933
L196.0295 195.0933
" />
<path d="M196.0295 195.0933
L196.1723 195.1648
" />
<path d="M196.1723 195.1648
L196.2437 195.2362
" />
<path d="M196.2437 195.2362
L196.3152 195.3790
" />
<path d="M196.3152 195.3790
L196.3866 195.6648
" />
<path d="M196.3866 195.6648
L196.3866 196.0219
" />
<path d="M196.3866 196.0219
L196.3152 196.3076
" />
<path d="M196.3152 196.3076
L196.2437 196.4505
" />
<path d="M196.2437 196.4505
L196.1723 196.5219
" />
<path d="M196.1723 196.5219
L196.0295 196.5933
" />
<path d="M196.0295 196.5933
L195.8866 196.5933
" />
<path d="M195.8866 196.5933
L195.7437 196.5219
" />
<path d="M195.7437 196.5219
L195.6723 196.4505
" />
<path d="M195.6723 196.4505
L195.6009 196.3076
" />
<path d="M195.6009 196.3076
L195.5295 196.0219
" />
<path d="M195.5295 196.0219
L195.5295 195.6648
" />
<path d="M195.5295 195.6648
L195.6009 195.3790
" />
<path d="M195.6009 195.3790
L195.6723 195.2362
" />
<path d="M195.6723 195.2362
L195.7437 195.1648
" />
<path d="M195.7437 195.1648
L195.8866 195.0933
" />
<path d="M197.0295 196.4505
L197.1009 196.5219
" />
<path d="M197.1009 196.5219
L197.0295 196.5933
" />
<path d="M197.0295 196.5933
L196.9580 196.5219
" />
<path d="M196.9580 196.5219
L197.0295 196.4505
" />
<path d="M197.0295 196.4505
L197.0295 196.5933
" />
<path d="M198.4580 195.0933
L197.7437 195.0933
" />
<path d="M197.7437 195.0933
L197.6723 195.8076
" />
<path d="M197.6723 195.8076
L197.7437 195.7362
" />
<path d="M197.7437 195.7362
L197.8866 195.6648
" />
<path d="M197.8866 195.6648
L198.2437 195.6648
" />
<path d="M198.2437 195.6648
L198.3866 195.7362
" />
<path d="M198.3866 195.7362
L198.4580 195.8076
" />
<path d="M198.4580 195.8076
L198.5295 195.9505
" />
<path d="M198.5295 195.9505
L198.5295 196.3076
" />
<path d="M198.5295 196.3076
L198.4580 196.4505
" />
<path d="M198.4580 196.4505
L198.3866 196.5219
" />
<path d="M198.3866 196.5219
L198.2437 196.5933
" />
<path d="M198.2437 196.5933
L197.8866 196.5933
" />
<path d="M197.8866 196.5933
L197.7437 196.5219
" />
<path d="M197.7437 196.5219
L197.6723 196.4505
" />
</g></g>
<g style="fill:none; 
stroke:#000000; stroke-width:0.1500; stroke-opacity:1; 
stroke-linecap:round; stroke-linejoin:round;">
<path d="M177.0022 191.5072
L285.0022 191.5072
" />
</g>
<g style="fill:none; 
stroke:#000000; stroke-width:0.3000; stroke-opacity:1; 
stroke-linecap:round; stroke-linejoin:round;">
<text x="263.0022" y="193.8572"
textLength="6.3857" font-size="2.0000" lengthAdjust="spacingAndGlyphs"
text-anchor="start" opacity="0" stroke-opacity="0">Rev: </text>
<g class="stroked-text"><desc>Rev: </desc>
<path d="M264.4139 193.7855
L263.9139 193.0712
" />
<path d="M263.5567 193.7855
L263.5567 192.2855
" />
<path d="M263.5567 192.2855
L264.1281 192.2855
" />
<path d="M264.1281 192.2855
L264.2710 192.3570
" />
<path d="M264.2710 192.3570
L264.3424 192.4284
" />
<path d="M264.3424 192.4284
L264.4139 192.5712
" />
<path d="M264.4139 192.5712
L264.4139 192.7855
" />
<path d="M264.4139 192.7855
L264.3424 192.9284
" />
<path d="M264.3424 192.9284
L264.2710 192.9998
" />
<path d="M264.2710 192.9998
L264.1281 193.0712
" />
<path d="M264.1281 193.0712
L263.5567 193.0712
" />
<path d="M265.6281 193.7141
L265.4853 193.7855
" />
<path d="M265.4853 193.7855
L265.1996 193.7855
" />
<path d="M265.1996 193.7855
L265.0567 193.7141
" />
<path d="M265.0567 193.7141
L264.9853 193.5712
" />
<path d="M264.9853 193.5712
L264.9853 192.9998
" />
<path d="M264.9853 192.9998
L265.0567 192.8570
" />
<path d="M265.0567 192.8570
L265.1996 192.7855
" />
<path d="M265.1996 192.7855
L265.4853 192.7855
" />
<path d="M265.4853 192.7855
L265.6281 192.8570
" />
<path d="M265.6281 192.8570
L265.6996 192.9998
" />
<path d="M265.6996 192.9998
L265.6996 193.1427
" />
<path d="M265.6996 193.1427
L264.9853 193.2855
" />
<path d="M266.1996 192.7855
L266.5567 193.7855
" />
<path d="M266.5567 193.7855
L266.9139 192.7855
" />
<path d="M267.4853 193.6427
L267.5567 193.7141
" />
<path d="M267.5567 193.7141
L267.4853 193.7855
" />
<path d="M267.4853 193.7855
L267.4139 193.7141
" />
<path d="M267.4139 193.7141
L267.4853 193.6427
" />
<path d="M267.4853 193.6427
L267.4853 193.7855
" />
<path d="M267.4853 192.8570
L267.5567 192.9284
" />
<path d="M267.5567 192.9284
L267.4853 192.9998
" />
<path d="M267.4853 192.9998
L267.4139 192.9284
" />
<path d="M267.4139 192.9284
L267.4853 192.8570
" />
<path d="M267.4853 192.8570
L267.4853 192.9998
" />
</g></g>
<g style="fill:none; 
stroke:#000000; stroke-width:0.1500; stroke-opacity:1; 
stroke-linecap:round; stroke-linejoin:round;">
<text x="178.0022" y="193.8572"
textLength="9.3643" font-size="2.0000" lengthAdjust="spacingAndGlyphs"
text-anchor="start" opacity="0" stroke-opacity="0">Size: A4</text>
<g class="stroked-text"><desc>Size: A4</desc>
<path d="M178.3866 193.7219
L178.6009 193.7933
" />
<path d="M178.6009 193.7933
L178.9580 193.7933
" />
<path d="M178.9580 193.7933
L179.1009 193.7219
" />
<path d="M179.1009 193.7219
L179.1723 193.6505
" />
<path d="M179.1723 193.6505
L179.2437 193.5076
" />
<path d="M179.2437 193.5076
L179.2437 193.3648
" />
<path d="M179.2437 193.3648
L179.1723 193.2219
" />
<path d="M179.1723 193.2219
L179.1009 193.1505
" />
<path d="M179.1009 193.1505
L178.9580 193.0790
" />
<path d="M178.9580 193.0790
L178.6723 193.0076
" />
<path d="M178.6723 193.0076
L178.5295 192.9362
" />
<path d="M178.5295 192.9362
L178.4580 192.8648
" />
<path d="M178.4580 192.8648
L178.3866 192.7219
" />
<path d="M178.3866 192.7219
L178.3866 192.5790
" />
<path d="M178.3866 192.5790
L178.4580 192.4362
" />
<path d="M178.4580 192.4362
L178.5295 192.3648
" />
<path d="M178.5295 192.3648
L178.6723 192.2933
" />
<path d="M178.6723 192.2933
L179.0295 192.2933
" />
<path d="M179.0295 192.2933
L179.2437 192.3648
" />
<path d="M179.8866 193.7933
L179.8866 192.7933
" />
<path d="M179.8866 192.2933
L179.8152 192.3648
" />
<path d="M179.8152 192.3648
L179.8866 192.4362
" />
<path d="M179.8866 192.4362
L179.9580 192.3648
" />
<path d="M179.9580 192.3648
L179.8866 192.2933
" />
<path d="M179.8866 192.2933
L179.8866 192.4362
" />
<path d="M180.4580 192.7933
L181.2437 192.7933
" />
<path d="M181.2437 192.7933
L180.4580 193.7933
" />
<path d="M180.4580 193.7933
L181.2437 193.7933
" />
<path d="M182.3866 193.7219
L182.2437 193.7933
" />
<path d="M182.2437 193.7933
L181.9580 193.7933
" />
<path d="M181.9580 193.7933
L181.8152 193.7219
" />
<path d="M181.8152 193.7219
L181.7437 193.5790
" />
<path d="M181.7437 193.5790
L181.7437 193.0076
" />
<path d="M181.7437 193.0076
L181.8152 192.8648
" />
<path d="M181.8152 192.8648
L181.9580 192.7933
" />
<path d="M181.9580 192.7933
L182.2437 192.7933
" />
<path d="M182.2437 192.7933
L182.3866 192.8648
" />
<path d="M182.3866 192.8648
L182.4580 193.0076
" />
<path d="M182.4580 193.0076
L182.4580 193.1505
" />
<path d="M182.4580 193.1505
L181.7437 193.2933
" />
<path d="M183.1009 193.6505
L183.1723 193.7219
" />
<path d="M183.1723 193.7219
L183.1009 193.7933
" />
<path d="M183.1009 193.7933
L183.0295 193.7219
" />
<path d="M183.0295 193.7219
L183.1009 193.6505
" />
<path d="M183.1009 193.6505
L183.1009 193.7933
" />
<path d="M183.1009 192.8648
L183.1723 192.9362
" />
<path d="M183.1723 192.9362
L183.1009 193.0076
" />
<path d="M183.1009 193.0076
L183.0295 192.9362
" />
<path d="M183.0295 192.9362
L183.1009 192.8648
" />
<path d="M183.1009 192.8648
L183.1009 193.0076
" />
<path d="M184.8866 193.3648
L185.6009 193.3648
" />
<path d="M184.7437 193.7933
L185.2437 192.2933
" />
<path d="M185.2437 192.2933
L185.7437 193.7933
" />
<path d="M186.8866 192.7933
L186.8866 193.7933
" />
<path d="M186.5295 192.2219
L186.1723 193.2933
" />
<path d="M186.1723 193.2933
L187.1009 193.2933
" />
</g></g>
<g style="fill:none; 
stroke:#000000; stroke-width:0.1500; stroke-opacity:1; 
stroke-linecap:round; stroke-linejoin:round;">
<text x="263.0022" y="196.6572"
textLength="8.5071" font-size="2.0000" lengthAdjust="spacingAndGlyphs"
text-anchor="start" opacity="0" stroke-opacity="0">Id: 1/1</text>
<g class="stroked-text"><desc>Id: 1/1</desc>
<path d="M263.4580 196.5933
L263.4580 195.0933
" />
<path d="M264.8152 196.5933
L264.8152 195.0933
" />
<path d="M264.8152 196.5219
L264.6723 196.5933
" />
<path d="M264.6723 196.5933
L264.3866 196.5933
" />
<path d="M264.3866 196.5933
L264.2437 196.5219
" />
<path d="M264.2437 196.5219
L264.1723 196.4505
" />
<path d="M264.1723 196.4505
L264.1009 196.3076
" />
<path d="M264.1009 196.3076
L264.1009 195.8790
" />
<path d="M264.1009 195.8790
L264.1723 195.7362
" />
<path d="M264.1723 195.7362
L264.2437 195.6648
" />
<path d="M264.2437 195.6648
L264.3866 195.5933
" />
<path d="M264.3866 195.5933
L264.6723 195.5933
" />
<path d="M264.6723 195.5933
L264.8152 195.6648
" />
<path d="M265.5295 196.4505
L265.6009 196.5219
" />
<path d="M265.6009 196.5219
L265.5295 196.5933
" />
<path d="M265.5295 196.5933
L265.4580 196.5219
" />
<path d="M265.4580 196.5219
L265.5295 196.4505
" />
<path d="M265.5295 196.4505
L265.5295 196.5933
" />
<path d="M265.5295 195.6648
L265.6009 195.7362
" />
<path d="M265.6009 195.7362
L265.5295 195.8076
" />
<path d="M265.5295 195.8076
L265.4580 195.7362
" />
<path d="M265.4580 195.7362
L265.5295 195.6648
" />
<path d="M265.5295 195.6648
L265.5295 195.8076
" />
<path d="M268.1723 196.5933
L267.3152 196.5933
" />
<path d="M267.7437 196.5933
L267.7437 195.0933
" />
<path d="M267.7437 195.0933
L267.6009 195.3076
" />
<path d="M267.6009 195.3076
L267.4580 195.4505
" />
<path d="M267.4580 195.4505
L267.3152 195.5219
" />
<path d="M269.8866 195.0219
L268.6009 196.9505
" />
<path d="M271.1723 196.5933
L270.3152 196.5933
" />
<path d="M270.7437 196.5933
L270.7437 195.0933
" />
<path d="M270.7437 195.0933
L270.6009 195.3076
" />
<path d="M270.6009 195.3076
L270.4580 195.4505
" />
<path d="M270.4580 195.4505
L270.3152 195.5219
" />
</g></g>
<g style="fill:none; 
stroke:#000000; stroke-width:0.1500; stroke-opacity:1; 
stroke-linecap:round; stroke-linejoin:round;">
<path d="M177.0022 187.5072
L285.0022 187.5072
" />
</g>
<g style="fill:none; 
stroke:#000000; stroke-width:0.4000; stroke-opacity:1; 
stroke-linecap:round; stroke-linejoin:round;">
<text x="178.0022" y="190.3072"
textLength="9.6571" font-size="2.6667" lengthAdjust="spacingAndGlyphs"
text-anchor="start" opacity="0" stroke-opacity="0">Title: </text>
<g class="stroked-text"><desc>Title: </desc>
<path d="M178.6939 188.2116
L179.8368 188.2116
" />
<path d="M179.0154 190.2116
L179.2654 188.2116
" />
<path d="M180.2535 190.2116
L180.4201 188.8783
" />
<path d="M180.5035 188.2116
L180.3963 188.3069
" />
<path d="M180.3963 188.3069
L180.4796 188.4021
" />
<path d="M180.4796 188.4021
L180.5868 188.3069
" />
<path d="M180.5868 188.3069
L180.5035 188.2116
" />
<path d="M180.5035 188.2116
L180.4796 188.4021
" />
<path d="M181.0868 188.8783
L181.8487 188.8783
" />
<path d="M181.4558 188.2116
L181.2415 189.9259
" />
<path d="M181.2415 189.9259
L181.3130 190.1164
" />
<path d="M181.3130 190.1164
L181.4915 190.2116
" />
<path d="M181.4915 190.2116
L181.6820 190.2116
" />
<path d="M182.6344 190.2116
L182.4558 190.1164
" />
<path d="M182.4558 190.1164
L182.3844 189.9259
" />
<path d="M182.3844 189.9259
L182.5987 188.2116
" />
<path d="M184.1701 190.1164
L183.9677 190.2116
" />
<path d="M183.9677 190.2116
L183.5868 190.2116
" />
<path d="M183.5868 190.2116
L183.4082 190.1164
" />
<path d="M183.4082 190.1164
L183.3368 189.9259
" />
<path d="M183.3368 189.9259
L183.4320 189.1640
" />
<path d="M183.4320 189.1640
L183.5511 188.9735
" />
<path d="M183.5511 188.9735
L183.7535 188.8783
" />
<path d="M183.7535 188.8783
L184.1344 188.8783
" />
<path d="M184.1344 188.8783
L184.3130 188.9735
" />
<path d="M184.3130 188.9735
L184.3844 189.1640
" />
<path d="M184.3844 189.1640
L184.3606 189.3545
" />
<path d="M184.3606 189.3545
L183.3844 189.5450
" />
<path d="M185.1344 190.0212
L185.2177 190.1164
" />
<path d="M185.2177 190.1164
L185.1106 190.2116
" />
<path d="M185.1106 190.2116
L185.0273 190.1164
" />
<path d="M185.0273 190.1164
L185.1344 190.0212
" />
<path d="M185.1344 190.0212
L185.1106 190.2116
" />
<path d="M185.2654 188.9735
L185.3487 189.0688
" />
<path d="M185.3487 189.0688
L185.2415 189.1640
" />
<path d="M185.2415 189.1640
L185.1582 189.0688
" />
<path d="M185.1582 189.0688
L185.2654 188.9735
" />
<path d="M185.2654 188.9735
L185.2415 189.1640
" />
</g></g>
<g style="fill:none; 
stroke:#000000; stroke-width:0.1500; stroke-opacity:1; 
stroke-linecap:round; stroke-linejoin:round;">
<text x="178.0022" y="186.4572"
textLength="28.1500" font-size="2.0000" lengthAdjust="spacingAndGlyphs"
text-anchor="start" opacity="0" stroke-opacity="0">File: AC to DC.kicad_pcb</text>
<g class="stroked-text"><desc>File: AC to DC.kicad_pcb</desc>
<path d="M178.9580 185.6076
L178.4580 185.6076
" />
<path d="M178.4580 186.3933
L178.4580 184.8933
" />
<path d="M178.4580 184.8933
L179.1723 184.8933
" />
<path d="M179.7437 186.3933
L179.7437 185.3933
" />
<path d="M179.7437 184.8933
L179.6723 184.9648
" />
<path d="M179.6723 184.9648
L179.7437 185.0362
" />
<path d="M179.7437 185.0362
L179.8152 184.9648
" />
<path d="M179.8152 184.9648
L179.7437 184.8933
" />
<path d="M179.7437 184.8933
L179.7437 185.0362
" />
<path d="M180.6723 186.3933
L180.5295 186.3219
" />
<path d="M180.5295 186.3219
L180.4580 186.1790
" />
<path d="M180.4580 186.1790
L180.4580 184.8933
" />
<path d="M181.8152 186.3219
L181.6723 186.3933
" />
<path d="M181.6723 186.3933
L181.3866 186.3933
" />
<path d="M181.3866 186.3933
L181.2437 186.3219
" />
<path d="M181.2437 186.3219
L181.1723 186.1790
" />
<path d="M181.1723 186.1790
L181.1723 185.6076
" />
<path d="M181.1723 185.6076
L181.2437 185.4648
" />
<path d="M181.2437 185.4648
L181.3866 185.3933
" />
<path d="M181.3866 185.3933
L181.6723 185.3933
" />
<path d="M181.6723 185.3933
L181.8152 185.4648
" />
<path d="M181.8152 185.4648
L181.8866 185.6076
" />
<path d="M181.8866 185.6076
L181.8866 185.7505
" />
<path d="M181.8866 185.7505
L181.1723 185.8933
" />
<path d="M182.5295 186.2505
L182.6009 186.3219
" />
<path d="M182.6009 186.3219
L182.5295 186.3933
" />
<path d="M182.5295 186.3933
L182.4580 186.3219
" />
<path d="M182.4580 186.3219
L182.5295 186.2505
" />
<path d="M182.5295 186.2505
L182.5295 186.3933
" />
<path d="M182.5295 185.4648
L182.6009 185.5362
" />
<path d="M182.6009 185.5362
L182.5295 185.6076
" />
<path d="M182.5295 185.6076
L182.4580 185.5362
" />
<path d="M182.4580 185.5362
L182.5295 185.4648
" />
<path d="M182.5295 185.4648
L182.5295 185.6076
" />
<path d="M184.3152 185.9648
L185.0295 185.9648
" />
<path d="M184.1723 186.3933
L184.6723 184.8933
" />
<path d="M184.6723 184.8933
L185.1723 186.3933
" />
<path d="M186.5295 186.2505
L186.4580 186.3219
" />
<path d="M186.4580 186.3219
L186.2437 186.3933
" />
<path d="M186.2437 186.3933
L186.1009 186.3933
" />
<path d="M186.1009 186.3933
L185.8866 186.3219
" />
<path d="M185.8866 186.3219
L185.7437 186.1790
" />
<path d="M185.7437 186.1790
L185.6723 186.0362
" />
<path d="M185.6723 186.0362
L185.6009 185.7505
" />
<path d="M185.6009 185.7505
L185.6009 185.5362
" />
<path d="M185.6009 185.5362
L185.6723 185.2505
" />
<path d="M185.6723 185.2505
L185.7437 185.1076
" />
<path d="M185.7437 185.1076
L185.8866 184.9648
" />
<path d="M185.8866 184.9648
L186.1009 184.8933
" />
<path d="M186.1009 184.8933
L186.2437 184.8933
" />
<path d="M186.2437 184.8933
L186.4580 184.9648
" />
<path d="M186.4580 184.9648
L186.5295 185.0362
" />
<path d="M188.1009 185.3933
L188.6723 185.3933
" />
<path d="M188.3152 184.8933
L188.3152 186.1790
" />
<path d="M188.3152 186.1790
L188.3866 186.3219
" />
<path d="M188.3866 186.3219
L188.5295 186.3933
" />
<path d="M188.5295 186.3933
L188.6723 186.3933
" />
<path d="M189.3866 186.3933
L189.2437 186.3219
" />
<path d="M189.2437 186.3219
L189.1723 186.2505
" />
<path d="M189.1723 186.2505
L189.1009 186.1076
" />
<path d="M189.1009 186.1076
L189.1009 185.6790
" />
<path d="M189.1009 185.6790
L189.1723 185.5362
" />
<path d="M189.1723 185.5362
L189.2437 185.4648
" />
<path d="M189.2437 185.4648
L189.3866 185.3933
" />
<path d="M189.3866 185.3933
L189.6009 185.3933
" />
<path d="M189.6009 185.3933
L189.7437 185.4648
" />
<path d="M189.7437 185.4648
L189.8152 185.5362
" />
<path d="M189.8152 185.5362
L189.8866 185.6790
" />
<path d="M189.8866 185.6790
L189.8866 186.1076
" />
<path d="M189.8866 186.1076
L189.8152 186.2505
" />
<path d="M189.8152 186.2505
L189.7437 186.3219
" />
<path d="M189.7437 186.3219
L189.6009 186.3933
" />
<path d="M189.6009 186.3933
L189.3866 186.3933
" />
<path d="M191.6723 186.3933
L191.6723 184.8933
" />
<path d="M191.6723 184.8933
L192.0295 184.8933
" />
<path d="M192.0295 184.8933
L192.2437 184.9648
" />
<path d="M192.2437 184.9648
L192.3866 185.1076
" />
<path d="M192.3866 185.1076
L192.4580 185.2505
" />
<path d="M192.4580 185.2505
L192.5295 185.5362
" />
<path d="M192.5295 185.5362
L192.5295 185.7505
" />
<path d="M192.5295 185.7505
L192.4580 186.0362
" />
<path d="M192.4580 186.0362
L192.3866 186.1790
" />
<path d="M192.3866 186.1790
L192.2437 186.3219
" />
<path d="M192.2437 186.3219
L192.0295 186.3933
" />
<path d="M192.0295 186.3933
L191.6723 186.3933
" />
<path d="M194.0295 186.2505
L193.9580 186.3219
" />
<path d="M193.9580 186.3219
L193.7437 186.3933
" />
<path d="M193.7437 186.3933
L193.6009 186.3933
" />
<path d="M193.6009 186.3933
L193.3866 186.3219
" />
<path d="M193.3866 186.3219
L193.2437 186.1790
" />
<path d="M193.2437 186.1790
L193.1723 186.0362
" />
<path d="M193.1723 186.0362
L193.1009 185.7505
" />
<path d="M193.1009 185.7505
L193.1009 185.5362
" />
<path d="M193.1009 185.5362
L193.1723 185.2505
" />
<path d="M193.1723 185.2505
L193.2437 185.1076
" />
<path d="M193.2437 185.1076
L193.3866 184.9648
" />
<path d="M193.3866 184.9648
L193.6009 184.8933
" />
<path d="M193.6009 184.8933
L193.7437 184.8933
" />
<path d="M193.7437 184.8933
L193.9580 184.9648
" />
<path d="M193.9580 184.9648
L194.0295 185.0362
" />
<path d="M194.6723 186.2505
L194.7437 186.3219
" />
<path d="M194.7437 186.3219
L194.6723 186.3933
" />
<path d="M194.6723 186.3933
L194.6009 186.3219
" />
<path d="M194.6009 186.3219
L194.6723 186.2505
" />
<path d="M194.6723 186.2505
L194.6723 186.3933
" />
<path d="M195.3866 186.3933
L195.3866 184.8933
" />
<path d="M195.5295 185.8219
L195.9580 186.3933
" />
<path d="M195.9580 185.3933
L195.3866 185.9648
" />
<path d="M196.6009 186.3933
L196.6009 185.3933
" />
<path d="M196.6009 184.8933
L196.5295 184.9648
" />
<path d="M196.5295 184.9648
L196.6009 185.0362
" />
<path d="M196.6009 185.0362
L196.6723 184.9648
" />
<path d="M196.6723 184.9648
L196.6009 184.8933
" />
<path d="M196.6009 184.8933
L196.6009 185.0362
" />
<path d="M197.9580 186.3219
L197.8152 186.3933
" />
<path d="M197.8152 186.3933
L197.5295 186.3933
" />
<path d="M197.5295 186.3933
L197.3866 186.3219
" />
<path d="M197.3866 186.3219
L197.3152 186.2505
" />
<path d="M197.3152 186.2505
L197.2437 186.1076
" />
<path d="M197.2437 186.1076
L197.2437 185.6790
" />
<path d="M197.2437 185.6790
L197.3152 185.5362
" />
<path d="M197.3152 185.5362
L197.3866 185.4648
" />
<path d="M197.3866 185.4648
L197.5295 185.3933
" />
<path d="M197.5295 185.3933
L197.8152 185.3933
" />
<path d="M197.8152 185.3933
L197.9580 185.4648
" />
<path d="M199.2437 186.3933
L199.2437 185.6076
" />
<path d="M199.2437 185.6076
L199.1723 185.4648
" />
<path d="M199.1723 185.4648
L199.0295 185.3933
" />
<path d="M199.0295 185.3933
L198.7437 185.3933
" />
<path d="M198.7437 185.3933
L198.6009 185.4648
" />
<path d="M199.2437 186.3219
L199.1009 186.3933
" />
<path d="M199.1009 186.3933
L198.7437 186.3933
" />
<path d="M198.7437 186.3933
L198.6009 186.3219
" />
<path d="M198.6009 186.3219
L198.5295 186.1790
" />
<path d="M198.5295 186.1790
L198.5295 186.0362
" />
<path d="M198.5295 186.0362
L198.6009 185.8933
" />
<path d="M198.6009 185.8933
L198.7437 185.8219
" />
<path d="M198.7437 185.8219
L199.1009 185.8219
" />
<path d="M199.1009 185.8219
L199.2437 185.7505
" />
<path d="M200.6009 186.3933
L200.6009 184.8933
" />
<path d="M200.6009 186.3219
L200.4580 186.3933
" />
<path d="M200.4580 186.3933
L200.1723 186.3933
" />
<path d="M200.1723 186.3933
L200.0295 186.3219
" />
<path d="M200.0295 186.3219
L199.9580 186.2505
" />
<path d="M199.9580 186.2505
L199.8866 186.1076
" />
<path d="M199.8866 186.1076
L199.8866 185.6790
" />
<path d="M199.8866 185.6790
L199.9580 185.5362
" />
<path d="M199.9580 185.5362
L200.0295 185.4648
" />
<path d="M200.0295 185.4648
L200.1723 185.3933
" />
<path d="M200.1723 185.3933
L200.4580 185.3933
" />
<path d="M200.4580 185.3933
L200.6009 185.4648
" />
<path d="M200.9580 186.5362
L202.1009 186.5362
" />
<path d="M202.4580 185.3933
L202.4580 186.8933
" />
<path d="M202.4580 185.4648
L202.6009 185.3933
" />
<path d="M202.6009 185.3933
L202.8866 185.3933
" />
<path d="M202.8866 185.3933
L203.0295 185.4648
" />
<path d="M203.0295 185.4648
L203.1009 185.5362
" />
<path d="M203.1009 185.5362
L203.1723 185.6790
" />
<path d="M203.1723 185.6790
L203.1723 186.1076
" />
<path d="M203.1723 186.1076
L203.1009 186.2505
" />
<path d="M203.1009 186.2505
L203.0295 186.3219
" />
<path d="M203.0295 186.3219
L202.8866 186.3933
" />
<path d="M202.8866 186.3933
L202.6009 186.3933
" />
<path d="M202.6009 186.3933
L202.4580 186.3219
" />
<path d="M204.4580 186.3219
L204.3152 186.3933
" />
<path d="M204.3152 186.3933
L204.0295 186.3933
" />
<path d="M204.0295 186.3933
L203.8866 186.3219
" />
<path d="M203.8866 186.3219
L203.8152 186.2505
" />
<path d="M203.8152 186.2505
L203.7437 186.1076
" />
<path d="M203.7437 186.1076
L203.7437 185.6790
" />
<path d="M203.7437 185.6790
L203.8152 185.5362
" />
<path d="M203.8152 185.5362
L203.8866 185.4648
" />
<path d="M203.8866 185.4648
L204.0295 185.3933
" />
<path d="M204.0295 185.3933
L204.3152 185.3933
" />
<path d="M204.3152 185.3933
L204.4580 185.4648
" />
<path d="M205.1009 186.3933
L205.1009 184.8933
" />
<path d="M205.1009 185.4648
L205.2437 185.3933
" />
<path d="M205.2437 185.3933
L205.5295 185.3933
" />
<path d="M205.5295 185.3933
L205.6723 185.4648
" />
<path d="M205.6723 185.4648
L205.7437 185.5362
" />
<path d="M205.7437 185.5362
L205.8152 185.6790
" />
<path d="M205.8152 185.6790
L205.8152 186.1076
" />
<path d="M205.8152 186.1076
L205.7437 186.2505
" />
<path d="M205.7437 186.2505
L205.6723 186.3219
" />
<path d="M205.6723 186.3219
L205.5295 186.3933
" />
<path d="M205.5295 186.3933
L205.2437 186.3933
" />
<path d="M205.2437 186.3933
L205.1009 186.3219
" />
</g></g>
<g style="fill:none; 
stroke:#000000; stroke-width:0.1500; stroke-opacity:1; 
stroke-linecap:round; stroke-linejoin:round;">
<path d="M177.0022 181.5072
L285.0022 181.5072
" />
</g>
<g style="fill:none; 
stroke:#000000; stroke-width:0.1500; stroke-opacity:1; 
stroke-linecap:round; stroke-linejoin:round;">
<text x="178.0022" y="183.7572"
textLength="8.2214" font-size="2.0000" lengthAdjust="spacingAndGlyphs"
text-anchor="start" opacity="0" stroke-opacity="0">Sheet: </text>
<g class="stroked-text"><desc>Sheet: </desc>
<path d="M178.3866 183.6219
L178.6009 183.6933
" />
<path d="M178.6009 183.6933
L178.9580 183.6933
" />
<path d="M178.9580 183.6933
L179.1009 183.6219
" />
<path d="M179.1009 183.6219
L179.1723 183.5505
" />
<path d="M179.1723 183.5505
L179.2437 183.4076
" />
<path d="M179.2437 183.4076
L179.2437 183.2648
" />
<path d="M179.2437 183.2648
L179.1723 183.1219
" />
<path d="M179.1723 183.1219
L179.1009 183.0505
" />
<path d="M179.1009 183.0505
L178.9580 182.9790
" />
<path d="M178.9580 182.9790
L178.6723 182.9076
" />
<path d="M178.6723 182.9076
L178.5295 182.8362
" />
<path d="M178.5295 182.8362
L178.4580 182.7648
" />
<path d="M178.4580 182.7648
L178.3866 182.6219
" />
<path d="M178.3866 182.6219
L178.3866 182.4790
" />
<path d="M178.3866 182.4790
L178.4580 182.3362
" />
<path d="M178.4580 182.3362
L178.5295 182.2648
" />
<path d="M178.5295 182.2648
L178.6723 182.1933
" />
<path d="M178.6723 182.1933
L179.0295 182.1933
" />
<path d="M179.0295 182.1933
L179.2437 182.2648
" />
<path d="M179.8866 183.6933
L179.8866 182.1933
" />
<path d="M180.5295 183.6933
L180.5295 182.9076
" />
<path d="M180.5295 182.9076
L180.4580 182.7648
" />
<path d="M180.4580 182.7648
L180.3152 182.6933
" />
<path d="M180.3152 182.6933
L180.1009 182.6933
" />
<path d="M180.1009 182.6933
L179.9580 182.7648
" />
<path d="M179.9580 182.7648
L179.8866 182.8362
" />
<path d="M181.8152 183.6219
L181.6723 183.6933
" />
<path d="M181.6723 183.6933
L181.3866 183.6933
" />
<path d="M181.3866 183.6933
L181.2437 183.6219
" />
<path d="M181.2437 183.6219
L181.1723 183.4790
" />
<path d="M181.1723 183.4790
L181.1723 182.9076
" />
<path d="M181.1723 182.9076
L181.2437 182.7648
" />
<path d="M181.2437 182.7648
L181.3866 182.6933
" />
<path d="M181.3866 182.6933
L181.6723 182.6933
" />
<path d="M181.6723 182.6933
L181.8152 182.7648
" />
<path d="M181.8152 182.7648
L181.8866 182.9076
" />
<path d="M181.8866 182.9076
L181.8866 183.0505
" />
<path d="M181.8866 183.0505
L181.1723 183.1933
" />
<path d="M183.1009 183.6219
L182.9580 183.6933
" />
<path d="M182.9580 183.6933
L182.6723 183.6933
" />
<path d="M182.6723 183.6933
L182.5295 183.6219
" />
<path d="M182.5295 183.6219
L182.4580 183.4790
" />
<path d="M182.4580 183.4790
L182.4580 182.9076
" />
<path d="M182.4580 182.9076
L182.5295 182.7648
" />
<path d="M182.5295 182.7648
L182.6723 182.6933
" />
<path d="M182.6723 182.6933
L182.9580 182.6933
" />
<path d="M182.9580 182.6933
L183.1009 182.7648
" />
<path d="M183.1009 182.7648
L183.1723 182.9076
" />
<path d="M183.1723 182.9076
L183.1723 183.0505
" />
<path d="M183.1723 183.0505
L182.4580 183.1933
" />
<path d="M183.6009 182.6933
L184.1723 182.6933
" />
<path d="M183.8152 182.1933
L183.8152 183.4790
" />
<path d="M183.8152 183.4790
L183.8866 183.6219
" />
<path d="M183.8866 183.6219
L184.0295 183.6933
" />
<path d="M184.0295 183.6933
L184.1723 183.6933
" />
<path d="M184.6723 183.5505
L184.7437 183.6219
" />
<path d="M184.7437 183.6219
L184.6723 183.6933
" />
<path d="M184.6723 183.6933
L184.6009 183.6219
" />
<path d="M184.6009 183.6219
L184.6723 183.5505
" />
<path d="M184.6723 183.5505
L184.6723 183.6933
" />
<path d="M184.6723 182.7648
L184.7437 182.8362
" />
<path d="M184.7437 182.8362
L184.6723 182.9076
" />
<path d="M184.6723 182.9076
L184.6009 182.8362
" />
<path d="M184.6009 182.8362
L184.6723 182.7648
" />
<path d="M184.6723 182.7648
L184.6723 182.9076
" />
</g></g>
<g style="fill:none; 
stroke:#000000; stroke-width:0.3000; stroke-opacity:1; 
stroke-linecap:round; stroke-linejoin:round;">
<text x="178.0022" y="180.7572"
textLength="0.9000" font-size="2.0000" lengthAdjust="spacingAndGlyphs"
text-anchor="start" opacity="0" stroke-opacity="0"></text>
<g class="stroked-text"><desc></desc>
</g></g>
<g style="fill:none; 
stroke:#000000; stroke-width:0.1500; stroke-opacity:1; 
stroke-linecap:round; stroke-linejoin:round;">
<text x="178.0022" y="177.7572"
textLength="0.4500" font-size="2.0000" lengthAdjust="spacingAndGlyphs"
text-anchor="start" opacity="0" stroke-opacity="0"></text>
<g class="stroked-text"><desc></desc>
</g></g>
<g style="fill:none; 
stroke:#000000; stroke-width:0.1500; stroke-opacity:1; 
stroke-linecap:round; stroke-linejoin:round;">
<text x="178.0022" y="174.7572"
textLength="0.4500" font-size="2.0000" lengthAdjust="spacingAndGlyphs"
text-anchor="start" opacity="0" stroke-opacity="0"></text>
<g class="stroked-text"><desc></desc>
</g></g>
<g style="fill:none; 
stroke:#000000; stroke-width:0.1500; stroke-opacity:1; 
stroke-linecap:round; stroke-linejoin:round;">
<text x="178.0022" y="171.7572"
textLength="0.4500" font-size="2.0000" lengthAdjust="spacingAndGlyphs"
text-anchor="start" opacity="0" stroke-opacity="0"></text>
<g class="stroked-text"><desc></desc>
</g></g>
<g style="fill:none; 
stroke:#000000; stroke-width:0.1500; stroke-opacity:1; 
stroke-linecap:round; stroke-linejoin:round;">
<text x="178.0022" y="168.7572"
textLength="0.4500" font-size="2.0000" lengthAdjust="spacingAndGlyphs"
text-anchor="start" opacity="0" stroke-opacity="0"></text>
<g class="stroked-text"><desc></desc>
</g></g>
<g style="fill:none; 
stroke:#000000; stroke-width:0.1500; stroke-opacity:1; 
stroke-linecap:round; stroke-linejoin:round;">
<path d="M197.0022 191.5072
L197.0022 194.5072
" />
</g>
<g style="fill:none; 
stroke:#000000; stroke-width:0.1500; stroke-opacity:1; 
stroke-linecap:round; stroke-linejoin:round;">
<path d="M261.0022 191.5072
L261.0022 198.0072
" />
<g transform="rotate(-90.000000 118.0450 74.5000)">
<text x="118.0450" y="75.0000"
textLength="1.9643" font-size="1.3333" lengthAdjust="spacingAndGlyphs"
text-anchor="middle" opacity="0" stroke-opacity="0">J4</text>
</g>
<g class="stroked-text"><desc>J4</desc>
<path d="M117.4998 74.8333
L118.2141 74.8333
" />
<path d="M118.2141 74.8333
L118.3570 74.8810
" />
<path d="M118.3570 74.8810
L118.4522 74.9762
" />
<path d="M118.4522 74.9762
L118.4998 75.1190
" />
<path d="M118.4998 75.1190
L118.4998 75.2143
" />
<path d="M117.8332 73.9286
L118.4998 73.9286
" />
<path d="M117.4522 74.1667
L118.1665 74.4048
" />
<path d="M118.1665 74.4048
L118.1665 73.7857
" />
</g><text x="145.1700" y="129.2800"
textLength="2.2024" font-size="1.3333" lengthAdjust="spacingAndGlyphs"
text-anchor="middle" opacity="0" stroke-opacity="0">D4</text>
<g class="stroked-text"><desc>D4</desc>
<path d="M144.4319 129.2348
L144.4319 128.2348
" />
<path d="M144.4319 128.2348
L144.6700 128.2348
" />
<path d="M144.6700 128.2348
L144.8129 128.2824
" />
<path d="M144.8129 128.2824
L144.9081 128.3777
" />
<path d="M144.9081 128.3777
L144.9557 128.4729
" />
<path d="M144.9557 128.4729
L145.0033 128.6634
" />
<path d="M145.0033 128.6634
L145.0033 128.8062
" />
<path d="M145.0033 128.8062
L144.9557 128.9967
" />
<path d="M144.9557 128.9967
L144.9081 129.0920
" />
<path d="M144.9081 129.0920
L144.8129 129.1872
" />
<path d="M144.8129 129.1872
L144.6700 129.2348
" />
<path d="M144.6700 129.2348
L144.4319 129.2348
" />
<path d="M145.8605 128.5682
L145.8605 129.2348
" />
<path d="M145.6224 128.1872
L145.3843 128.9015
" />
<path d="M145.3843 128.9015
L146.0033 128.9015
" />
</g><text x="140.0900" y="129.6500"
textLength="1.2500" font-size="1.3333" lengthAdjust="spacingAndGlyphs"
text-anchor="middle" opacity="0" stroke-opacity="0">K</text>
<g class="stroked-text"><desc>K</desc>
<path d="M139.8281 129.6048
L139.8281 128.6048
" />
<path d="M140.3995 129.6048
L139.9710 129.0334
" />
<path d="M140.3995 128.6048
L139.8281 129.1762
" />
</g><text x="145.1700" y="122.2200"
textLength="2.2024" font-size="1.3333" lengthAdjust="spacingAndGlyphs"
text-anchor="middle" opacity="0" stroke-opacity="0">D2</text>
<g class="stroked-text"><desc>D2</desc>
<path d="M144.4319 122.1748
L144.4319 121.1748
" />
<path d="M144.4319 121.1748
L144.6700 121.1748
" />
<path d="M144.6700 121.1748
L144.8129 121.2224
" />
<path d="M144.8129 121.2224
L144.9081 121.3177
" />
<path d="M144.9081 121.3177
L144.9557 121.4129
" />
<path d="M144.9557 121.4129
L145.0033 121.6034
" />
<path d="M145.0033 121.6034
L145.0033 121.7462
" />
<path d="M145.0033 121.7462
L144.9557 121.9367
" />
<path d="M144.9557 121.9367
L144.9081 122.0320
" />
<path d="M144.9081 122.0320
L144.8129 122.1272
" />
<path d="M144.8129 122.1272
L144.6700 122.1748
" />
<path d="M144.6700 122.1748
L144.4319 122.1748
" />
<path d="M145.3843 121.2701
L145.4319 121.2224
" />
<path d="M145.4319 121.2224
L145.5271 121.1748
" />
<path d="M145.5271 121.1748
L145.7652 121.1748
" />
<path d="M145.7652 121.1748
L145.8605 121.2224
" />
<path d="M145.8605 121.2224
L145.9081 121.2701
" />
<path d="M145.9081 121.2701
L145.9557 121.3653
" />
<path d="M145.9557 121.3653
L145.9557 121.4605
" />
<path d="M145.9557 121.4605
L145.9081 121.6034
" />
<path d="M145.9081 121.6034
L145.3367 122.1748
" />
<path d="M145.3367 122.1748
L145.9557 122.1748
" />
</g><text x="150.2500" y="121.8500"
textLength="1.2500" font-size="1.3333" lengthAdjust="spacingAndGlyphs"
text-anchor="middle" opacity="0" stroke-opacity="0">K</text>
<g class="stroked-text"><desc>K</desc>
<path d="M149.9881 121.8048
L149.9881 120.8048
" />
<path d="M150.5595 121.8048
L150.1310 121.2334
" />
<path d="M150.5595 120.8048
L149.9881 121.3762
" />
</g><text x="145.1700" y="123.7800"
textLength="2.2024" font-size="1.3333" lengthAdjust="spacingAndGlyphs"
text-anchor="middle" opacity="0" stroke-opacity="0">D3</text>
<g class="stroked-text"><desc>D3</desc>
<path d="M144.4319 123.7348
L144.4319 122.7348
" />
<path d="M144.4319 122.7348
L144.6700 122.7348
" />
<path d="M144.6700 122.7348
L144.8129 122.7824
" />
<path d="M144.8129 122.7824
L144.9081 122.8777
" />
<path d="M144.9081 122.8777
L144.9557 122.9729
" />
<path d="M144.9557 122.9729
L145.0033 123.1634
" />
<path d="M145.0033 123.1634
L145.0033 123.3062
" />
<path d="M145.0033 123.3062
L144.9557 123.4967
" />
<path d="M144.9557 123.4967
L144.9081 123.5920
" />
<path d="M144.9081 123.5920
L144.8129 123.6872
" />
<path d="M144.8129 123.6872
L144.6700 123.7348
" />
<path d="M144.6700 123.7348
L144.4319 123.7348
" />
<path d="M145.3367 122.7348
L145.9557 122.7348
" />
<path d="M145.9557 122.7348
L145.6224 123.1158
" />
<path d="M145.6224 123.1158
L145.7652 123.1158
" />
<path d="M145.7652 123.1158
L145.8605 123.1634
" />
<path d="M145.8605 123.1634
L145.9081 123.2110
" />
<path d="M145.9081 123.2110
L145.9557 123.3062
" />
<path d="M145.9557 123.3062
L145.9557 123.5443
" />
<path d="M145.9557 123.5443
L145.9081 123.6396
" />
<path d="M145.9081 123.6396
L145.8605 123.6872
" />
<path d="M145.8605 123.6872
L145.7652 123.7348
" />
<path d="M145.7652 123.7348
L145.4795 123.7348
" />
<path d="M145.4795 123.7348
L145.3843 123.6872
" />
<path d="M145.3843 123.6872
L145.3367 123.6396
" />
</g><text x="140.0900" y="124.1500"
textLength="1.2500" font-size="1.3333" lengthAdjust="spacingAndGlyphs"
text-anchor="middle" opacity="0" stroke-opacity="0">K</text>
<g class="stroked-text"><desc>K</desc>
<path d="M139.8281 124.1048
L139.8281 123.1048
" />
<path d="M140.3995 124.1048
L139.9710 123.5334
" />
<path d="M140.3995 123.1048
L139.8281 123.6762
" />
</g><g transform="rotate(-90.000000 204.3000 120.0000)">
<text x="204.3000" y="120.5000"
textLength="2.2024" font-size="1.3333" lengthAdjust="spacingAndGlyphs"
text-anchor="middle" opacity="0" stroke-opacity="0">C2</text>
</g>
<g class="stroked-text"><desc>C2</desc>
<path d="M204.6596 120.1667
L204.7072 120.2143
" />
<path d="M204.7072 120.2143
L204.7548 120.3571
" />
<path d="M204.7548 120.3571
L204.7548 120.4524
" />
<path d="M204.7548 120.4524
L204.7072 120.5952
" />
<path d="M204.7072 120.5952
L204.6120 120.6905
" />
<path d="M204.6120 120.6905
L204.5167 120.7381
" />
<path d="M204.5167 120.7381
L204.3262 120.7857
" />
<path d="M204.3262 120.7857
L204.1834 120.7857
" />
<path d="M204.1834 120.7857
L203.9929 120.7381
" />
<path d="M203.9929 120.7381
L203.8977 120.6905
" />
<path d="M203.8977 120.6905
L203.8024 120.5952
" />
<path d="M203.8024 120.5952
L203.7548 120.4524
" />
<path d="M203.7548 120.4524
L203.7548 120.3571
" />
<path d="M203.7548 120.3571
L203.8024 120.2143
" />
<path d="M203.8024 120.2143
L203.8501 120.1667
" />
<path d="M203.8501 119.7857
L203.8024 119.7381
" />
<path d="M203.8024 119.7381
L203.7548 119.6429
" />
<path d="M203.7548 119.6429
L203.7548 119.4048
" />
<path d="M203.7548 119.4048
L203.8024 119.3095
" />
<path d="M203.8024 119.3095
L203.8501 119.2619
" />
<path d="M203.8501 119.2619
L203.9453 119.2143
" />
<path d="M203.9453 119.2143
L204.0405 119.2143
" />
<path d="M204.0405 119.2143
L204.1834 119.2619
" />
<path d="M204.1834 119.2619
L204.7548 119.8333
" />
<path d="M204.7548 119.8333
L204.7548 119.2143
" />
</g><g transform="rotate(-90.000000 175.7500 136.2500)">
<text x="175.7500" y="136.7500"
textLength="3.2024" font-size="1.3333" lengthAdjust="spacingAndGlyphs"
text-anchor="middle" opacity="0" stroke-opacity="0">HS2</text>
</g>
<g class="stroked-text"><desc>HS2</desc>
<path d="M176.2048 137.4881
L175.2048 137.4881
" />
<path d="M175.6810 137.4881
L175.6810 136.9167
" />
<path d="M176.2048 136.9167
L175.2048 136.9167
" />
<path d="M176.1572 136.4881
L176.2048 136.3452
" />
<path d="M176.2048 136.3452
L176.2048 136.1071
" />
<path d="M176.2048 136.1071
L176.1572 136.0119
" />
<path d="M176.1572 136.0119
L176.1096 135.9643
" />
<path d="M176.1096 135.9643
L176.0143 135.9167
" />
<path d="M176.0143 135.9167
L175.9191 135.9167
" />
<path d="M175.9191 135.9167
L175.8239 135.9643
" />
<path d="M175.8239 135.9643
L175.7762 136.0119
" />
<path d="M175.7762 136.0119
L175.7286 136.1071
" />
<path d="M175.7286 136.1071
L175.6810 136.2976
" />
<path d="M175.6810 136.2976
L175.6334 136.3929
" />
<path d="M175.6334 136.3929
L175.5858 136.4405
" />
<path d="M175.5858 136.4405
L175.4905 136.4881
" />
<path d="M175.4905 136.4881
L175.3953 136.4881
" />
<path d="M175.3953 136.4881
L175.3001 136.4405
" />
<path d="M175.3001 136.4405
L175.2524 136.3929
" />
<path d="M175.2524 136.3929
L175.2048 136.2976
" />
<path d="M175.2048 136.2976
L175.2048 136.0595
" />
<path d="M175.2048 136.0595
L175.2524 135.9167
" />
<path d="M175.3001 135.5357
L175.2524 135.4881
" />
<path d="M175.2524 135.4881
L175.2048 135.3929
" />
<path d="M175.2048 135.3929
L175.2048 135.1548
" />
<path d="M175.2048 135.1548
L175.2524 135.0595
" />
<path d="M175.2524 135.0595
L175.3001 135.0119
" />
<path d="M175.3001 135.0119
L175.3953 134.9643
" />
<path d="M175.3953 134.9643
L175.4905 134.9643
" />
<path d="M175.4905 134.9643
L175.6334 135.0119
" />
<path d="M175.6334 135.0119
L176.2048 135.5833
" />
<path d="M176.2048 135.5833
L176.2048 134.9643
" />
</g><g transform="rotate(-90.000000 135.4550 121.0000)">
<text x="135.4550" y="121.5000"
textLength="1.9643" font-size="1.3333" lengthAdjust="spacingAndGlyphs"
text-anchor="middle" opacity="0" stroke-opacity="0">J1</text>
</g>
<g class="stroked-text"><desc>J1</desc>
<path d="M134.9098 121.3333
L135.6241 121.3333
" />
<path d="M135.6241 121.3333
L135.7670 121.3810
" />
<path d="M135.7670 121.3810
L135.8622 121.4762
" />
<path d="M135.8622 121.4762
L135.9098 121.6190
" />
<path d="M135.9098 121.6190
L135.9098 121.7143
" />
<path d="M135.9098 120.3333
L135.9098 120.9048
" />
<path d="M135.9098 120.6190
L134.9098 120.6190
" />
<path d="M134.9098 120.6190
L135.0527 120.7143
" />
<path d="M135.0527 120.7143
L135.1479 120.8095
" />
<path d="M135.1479 120.8095
L135.1955 120.9048
" />
</g><g transform="rotate(-90.000000 172.5000 109.0000)">
<text x="172.5000" y="109.5000"
textLength="3.2024" font-size="1.3333" lengthAdjust="spacingAndGlyphs"
text-anchor="middle" opacity="0" stroke-opacity="0">HS1</text>
</g>
<g class="stroked-text"><desc>HS1</desc>
<path d="M172.9548 110.2381
L171.9548 110.2381
" />
<path d="M172.4310 110.2381
L172.4310 109.6667
" />
<path d="M172.9548 109.6667
L171.9548 109.6667
" />
<path d="M172.9072 109.2381
L172.9548 109.0952
" />
<path d="M172.9548 109.0952
L172.9548 108.8571
" />
<path d="M172.9548 108.8571
L172.9072 108.7619
" />
<path d="M172.9072 108.7619
L172.8596 108.7143
" />
<path d="M172.8596 108.7143
L172.7643 108.6667
" />
<path d="M172.7643 108.6667
L172.6691 108.6667
" />
<path d="M172.6691 108.6667
L172.5739 108.7143
" />
<path d="M172.5739 108.7143
L172.5262 108.7619
" />
<path d="M172.5262 108.7619
L172.4786 108.8571
" />
<path d="M172.4786 108.8571
L172.4310 109.0476
" />
<path d="M172.4310 109.0476
L172.3834 109.1429
" />
<path d="M172.3834 109.1429
L172.3358 109.1905
" />
<path d="M172.3358 109.1905
L172.2405 109.2381
" />
<path d="M172.2405 109.2381
L172.1453 109.2381
" />
<path d="M172.1453 109.2381
L172.0501 109.1905
" />
<path d="M172.0501 109.1905
L172.0024 109.1429
" />
<path d="M172.0024 109.1429
L171.9548 109.0476
" />
<path d="M171.9548 109.0476
L171.9548 108.8095
" />
<path d="M171.9548 108.8095
L172.0024 108.6667
" />
<path d="M172.9548 107.7143
L172.9548 108.2857
" />
<path d="M172.9548 108.0000
L171.9548 108.0000
" />
<path d="M171.9548 108.0000
L172.0977 108.0952
" />
<path d="M172.0977 108.0952
L172.1929 108.1905
" />
<path d="M172.1929 108.1905
L172.2405 108.2857
" />
</g><g transform="rotate(-90.000000 178.2550 108.6600)">
<text x="178.2550" y="109.1600"
textLength="2.2500" font-size="1.3333" lengthAdjust="spacingAndGlyphs"
text-anchor="middle" opacity="0" stroke-opacity="0">U1</text>
</g>
<g class="stroked-text"><desc>U1</desc>
<path d="M177.7098 109.4219
L178.5193 109.4219
" />
<path d="M178.5193 109.4219
L178.6146 109.3743
" />
<path d="M178.6146 109.3743
L178.6622 109.3267
" />
<path d="M178.6622 109.3267
L178.7098 109.2314
" />
<path d="M178.7098 109.2314
L178.7098 109.0410
" />
<path d="M178.7098 109.0410
L178.6622 108.9457
" />
<path d="M178.6622 108.9457
L178.6146 108.8981
" />
<path d="M178.6146 108.8981
L178.5193 108.8505
" />
<path d="M178.5193 108.8505
L177.7098 108.8505
" />
<path d="M178.7098 107.8505
L178.7098 108.4219
" />
<path d="M178.7098 108.1362
L177.7098 108.1362
" />
<path d="M177.7098 108.1362
L177.8527 108.2314
" />
<path d="M177.8527 108.2314
L177.9479 108.3267
" />
<path d="M177.9479 108.3267
L177.9955 108.4219
" />
</g><text x="145.1700" y="115.7200"
textLength="2.2024" font-size="1.3333" lengthAdjust="spacingAndGlyphs"
text-anchor="middle" opacity="0" stroke-opacity="0">D1</text>
<g class="stroked-text"><desc>D1</desc>
<path d="M144.4319 115.6748
L144.4319 114.6748
" />
<path d="M144.4319 114.6748
L144.6700 114.6748
" />
<path d="M144.6700 114.6748
L144.8129 114.7224
" />
<path d="M144.8129 114.7224
L144.9081 114.8177
" />
<path d="M144.9081 114.8177
L144.9557 114.9129
" />
<path d="M144.9557 114.9129
L145.0033 115.1034
" />
<path d="M145.0033 115.1034
L145.0033 115.2462
" />
<path d="M145.0033 115.2462
L144.9557 115.4367
" />
<path d="M144.9557 115.4367
L144.9081 115.5320
" />
<path d="M144.9081 115.5320
L144.8129 115.6272
" />
<path d="M144.8129 115.6272
L144.6700 115.6748
" />
<path d="M144.6700 115.6748
L144.4319 115.6748
" />
<path d="M145.9557 115.6748
L145.3843 115.6748
" />
<path d="M145.6700 115.6748
L145.6700 114.6748
" />
<path d="M145.6700 114.6748
L145.5748 114.8177
" />
<path d="M145.5748 114.8177
L145.4795 114.9129
" />
<path d="M145.4795 114.9129
L145.3843 114.9605
" />
</g><text x="150.2500" y="115.3500"
textLength="1.2500" font-size="1.3333" lengthAdjust="spacingAndGlyphs"
text-anchor="middle" opacity="0" stroke-opacity="0">K</text>
<g class="stroked-text"><desc>K</desc>
<path d="M149.9881 115.3048
L149.9881 114.3048
" />
<path d="M150.5595 115.3048
L150.1310 114.7334
" />
<path d="M150.5595 114.3048
L149.9881 114.8762
" />
</g><g transform="rotate(-90.000000 182.8250 137.6700)">
<text x="182.8250" y="138.1700"
textLength="2.2500" font-size="1.3333" lengthAdjust="spacingAndGlyphs"
text-anchor="middle" opacity="0" stroke-opacity="0">U2</text>
</g>
<g class="stroked-text"><desc>U2</desc>
<path d="M182.2798 138.4319
L183.0893 138.4319
" />
<path d="M183.0893 138.4319
L183.1846 138.3843
" />
<path d="M183.1846 138.3843
L183.2322 138.3367
" />
<path d="M183.2322 138.3367
L183.2798 138.2414
" />
<path d="M183.2798 138.2414
L183.2798 138.0510
" />
<path d="M183.2798 138.0510
L183.2322 137.9557
" />
<path d="M183.2322 137.9557
L183.1846 137.9081
" />
<path d="M183.1846 137.9081
L183.0893 137.8605
" />
<path d="M183.0893 137.8605
L182.2798 137.8605
" />
<path d="M182.3751 137.4319
L182.3274 137.3843
" />
<path d="M182.3274 137.3843
L182.2798 137.2890
" />
<path d="M182.2798 137.2890
L182.2798 137.0510
" />
<path d="M182.2798 137.0510
L182.3274 136.9557
" />
<path d="M182.3274 136.9557
L182.3751 136.9081
" />
<path d="M182.3751 136.9081
L182.4703 136.8605
" />
<path d="M182.4703 136.8605
L182.5655 136.8605
" />
<path d="M182.5655 136.8605
L182.7084 136.9081
" />
<path d="M182.7084 136.9081
L183.2798 137.4795
" />
<path d="M183.2798 137.4795
L183.2798 136.8605
" />
</g><g transform="rotate(-90.000000 209.7400 121.5000)">
<text x="209.7400" y="122.0000"
textLength="1.9643" font-size="1.3333" lengthAdjust="spacingAndGlyphs"
text-anchor="middle" opacity="0" stroke-opacity="0">J2</text>
</g>
<g class="stroked-text"><desc>J2</desc>
<path d="M209.1948 121.8333
L209.9091 121.8333
" />
<path d="M209.9091 121.8333
L210.0520 121.8810
" />
<path d="M210.0520 121.8810
L210.1472 121.9762
" />
<path d="M210.1472 121.9762
L210.1948 122.1190
" />
<path d="M210.1948 122.1190
L210.1948 122.2143
" />
<path d="M209.2901 121.4048
L209.2424 121.3571
" />
<path d="M209.2424 121.3571
L209.1948 121.2619
" />
<path d="M209.1948 121.2619
L209.1948 121.0238
" />
<path d="M209.1948 121.0238
L209.2424 120.9286
" />
<path d="M209.2424 120.9286
L209.2901 120.8810
" />
<path d="M209.2901 120.8810
L209.3853 120.8333
" />
<path d="M209.3853 120.8333
L209.4805 120.8333
" />
<path d="M209.4805 120.8333
L209.6234 120.8810
" />
<path d="M209.6234 120.8810
L210.1948 121.4524
" />
<path d="M210.1948 121.4524
L210.1948 120.8333
" />
</g><g transform="rotate(-90.000000 166.5000 123.7949)">
<text x="166.5000" y="124.2949"
textLength="2.2024" font-size="1.3333" lengthAdjust="spacingAndGlyphs"
text-anchor="middle" opacity="0" stroke-opacity="0">C1</text>
</g>
<g class="stroked-text"><desc>C1</desc>
<path d="M166.8596 123.9616
L166.9072 124.0092
" />
<path d="M166.9072 124.0092
L166.9548 124.1520
" />
<path d="M166.9548 124.1520
L166.9548 124.2473
" />
<path d="M166.9548 124.2473
L166.9072 124.3901
" />
<path d="M166.9072 124.3901
L166.8120 124.4854
" />
<path d="M166.8120 124.4854
L166.7167 124.5330
" />
<path d="M166.7167 124.5330
L166.5262 124.5806
" />
<path d="M166.5262 124.5806
L166.3834 124.5806
" />
<path d="M166.3834 124.5806
L166.1929 124.5330
" />
<path d="M166.1929 124.5330
L166.0977 124.4854
" />
<path d="M166.0977 124.4854
L166.0024 124.3901
" />
<path d="M166.0024 124.3901
L165.9548 124.2473
" />
<path d="M165.9548 124.2473
L165.9548 124.1520
" />
<path d="M165.9548 124.1520
L166.0024 124.0092
" />
<path d="M166.0024 124.0092
L166.0501 123.9616
" />
<path d="M166.9548 123.0092
L166.9548 123.5806
" />
<path d="M166.9548 123.2949
L165.9548 123.2949
" />
<path d="M165.9548 123.2949
L166.0977 123.3901
" />
<path d="M166.0977 123.3901
L166.1929 123.4854
" />
<path d="M166.1929 123.4854
L166.2405 123.5806
" />
</g><g transform="rotate(-90.000000 209.2950 137.0000)">
<text x="209.2950" y="137.5000"
textLength="1.9643" font-size="1.3333" lengthAdjust="spacingAndGlyphs"
text-anchor="middle" opacity="0" stroke-opacity="0">J3</text>
</g>
<g class="stroked-text"><desc>J3</desc>
<path d="M208.7498 137.3333
L209.4641 137.3333
" />
<path d="M209.4641 137.3333
L209.6070 137.3810
" />
<path d="M209.6070 137.3810
L209.7022 137.4762
" />
<path d="M209.7022 137.4762
L209.7498 137.6190
" />
<path d="M209.7498 137.6190
L209.7498 137.7143
" />
<path d="M208.7498 136.9524
L208.7498 136.3333
" />
<path d="M208.7498 136.3333
L209.1308 136.6667
" />
<path d="M209.1308 136.6667
L209.1308 136.5238
" />
<path d="M209.1308 136.5238
L209.1784 136.4286
" />
<path d="M209.1784 136.4286
L209.2260 136.3810
" />
<path d="M209.2260 136.3810
L209.3212 136.3333
" />
<path d="M209.3212 136.3333
L209.5593 136.3333
" />
<path d="M209.5593 136.3333
L209.6546 136.3810
" />
<path d="M209.6546 136.3810
L209.7022 136.4286
" />
<path d="M209.7022 136.4286
L209.7498 136.5238
" />
<path d="M209.7498 136.5238
L209.7498 136.8095
" />
<path d="M209.7498 136.8095
L209.7022 136.9048
" />
<path d="M209.7022 136.9048
L209.6546 136.9524
" />
</g><g transform="rotate(-90.000000 208.0100 135.0000)">
<text x="208.0100" y="135.5000"
textLength="2.2024" font-size="1.3333" lengthAdjust="spacingAndGlyphs"
text-anchor="middle" opacity="0" stroke-opacity="0">C3</text>
</g>
<g class="stroked-text"><desc>C3</desc>
<path d="M208.3696 135.1667
L208.4172 135.2143
" />
<path d="M208.4172 135.2143
L208.4648 135.3571
" />
<path d="M208.4648 135.3571
L208.4648 135.4524
" />
<path d="M208.4648 135.4524
L208.4172 135.5952
" />
<path d="M208.4172 135.5952
L208.3220 135.6905
" />
<path d="M208.3220 135.6905
L208.2267 135.7381
" />
<path d="M208.2267 135.7381
L208.0362 135.7857
" />
<path d="M208.0362 135.7857
L207.8934 135.7857
" />
<path d="M207.8934 135.7857
L207.7029 135.7381
" />
<path d="M207.7029 135.7381
L207.6077 135.6905
" />
<path d="M207.6077 135.6905
L207.5124 135.5952
" />
<path d="M207.5124 135.5952
L207.4648 135.4524
" />
<path d="M207.4648 135.4524
L207.4648 135.3571
" />
<path d="M207.4648 135.3571
L207.5124 135.2143
" />
<path d="M207.5124 135.2143
L207.5601 135.1667
" />
<path d="M207.4648 134.8333
L207.4648 134.2143
" />
<path d="M207.4648 134.2143
L207.8458 134.5476
" />
<path d="M207.8458 134.5476
L207.8458 134.4048
" />
<path d="M207.8458 134.4048
L207.8934 134.3095
" />
<path d="M207.8934 134.3095
L207.9410 134.2619
" />
<path d="M207.9410 134.2619
L208.0362 134.2143
" />
<path d="M208.0362 134.2143
L208.2743 134.2143
" />
<path d="M208.2743 134.2143
L208.3696 134.2619
" />
<path d="M208.3696 134.2619
L208.4172 134.3095
" />
<path d="M208.4172 134.3095
L208.4648 134.4048
" />
<path d="M208.4648 134.4048
L208.4648 134.6905
" />
<path d="M208.4648 134.6905
L208.4172 134.7857
" />
<path d="M208.4172 134.7857
L208.3696 134.8333
" />
</g></g>
<g style="fill:none; 
stroke:#000000; stroke-width:0.1200; stroke-opacity:1; 
stroke-linecap:round; stroke-linejoin:round;">
<path d="M128.4650 79.8000
L129.2050 79.8000
" />
<path d="M129.2050 79.8000
L129.2050 79.3000
" />
<path d="M119.0440 79.5600
L128.9650 79.5600
" />
<path d="M119.0440 79.5600
L119.0440 69.4400
" />
<path d="M122.0040 79.5600
L122.0040 69.4400
" />
<path d="M126.9050 79.5600
L126.9050 69.4400
" />
<path d="M128.4050 79.5600
L128.4050 69.4400
" />
<path d="M128.9650 79.5600
L128.9650 69.4400
" />
<path d="M125.3280 73.2270
L125.3740 73.2740
" />
<path d="M125.5440 73.0340
L125.5790 73.0690
" />
<path d="M123.0300 70.9300
L123.0660 70.9650
" />
<path d="M123.2360 70.7250
L123.2820 70.7720
" />
<path d="M119.0440 69.4400
L128.9650 69.4400
" />
<path d="M123.6210 78.5350 A1.6805 1.6805 0.0 0 0 124.9880 78.5354" />
<path d="M122.7700 76.3160 A1.6805 1.6805 0.0 0 0 122.7696 77.6830" />
<path d="M125.8400 77.6840 A1.6805 1.6805 0.0 0 0 125.9853 76.9712" />
<path d="M125.9850 77.0000 A1.6800 1.6800 0.0 0 0 125.8398 76.3167" />
<path d="M124.9890 75.4650 A1.6805 1.6805 0.0 0 0 123.6220 75.4646" />
<circle cx="124.3050" cy="72.0000" r="1.6800" /> 
<path d="M141.5100 132.2500
L142.5300 132.2500
" />
<path d="M142.5300 130.7800
L142.5300 133.7200
" />
<path d="M142.5300 133.7200
L147.9700 133.7200
" />
<path d="M143.3100 130.7800
L143.3100 133.7200
" />
<path d="M143.4300 130.7800
L143.4300 133.7200
" />
<path d="M143.5500 130.7800
L143.5500 133.7200
" />
<path d="M147.9700 130.7800
L142.5300 130.7800
" />
<path d="M147.9700 133.7200
L147.9700 130.7800
" />
<path d="M148.9900 132.2500
L147.9700 132.2500
" />
<path d="M141.4300 119.2500
L142.4500 119.2500
" />
<path d="M142.4500 117.7800
L142.4500 120.7200
" />
<path d="M142.4500 120.7200
L147.8900 120.7200
" />
<path d="M146.8700 120.7200
L146.8700 117.7800
" />
<path d="M146.9900 120.7200
L146.9900 117.7800
" />
<path d="M147.1100 120.7200
L147.1100 117.7800
" />
<path d="M147.8900 117.7800
L142.4500 117.7800
" />
<path d="M147.8900 120.7200
L147.8900 117.7800
" />
<path d="M148.9100 119.2500
L147.8900 119.2500
" />
<path d="M141.4300 125.7500
L142.4500 125.7500
" />
<path d="M142.4500 124.2800
L142.4500 127.2200
" />
<path d="M142.4500 127.2200
L147.8900 127.2200
" />
<path d="M143.2300 124.2800
L143.2300 127.2200
" />
<path d="M143.3500 124.2800
L143.3500 127.2200
" />
<path d="M143.4700 124.2800
L143.4700 127.2200
" />
<path d="M147.8900 124.2800
L142.4500 124.2800
" />
<path d="M147.8900 127.2200
L147.8900 124.2800
" />
<path d="M148.9100 125.7500
L147.8900 125.7500
" />
<path d="M203.1700 121.8200
L202.9250 121.8200
" />
<path d="M203.1700 118.1800
L203.1700 121.8200
" />
<path d="M203.1700 118.1800
L202.9250 118.1800
" />
<path d="M201.0750 121.8200
L200.8300 121.8200
" />
<path d="M201.0750 118.1800
L200.8300 118.1800
" />
<path d="M200.8300 118.1800
L200.8300 121.8200
" />
<path d="M171.1900 129.5300
L171.1900 130.9600
" />
<path d="M171.1900 130.9600
L182.6900 130.9600
" />
<path d="M171.1900 141.5400
L171.1900 142.9700
" />
<path d="M182.6900 130.9600
L182.6900 141.5400
" />
<path d="M182.6900 141.5400
L171.1900 141.5400
" />
<path d="M182.9900 134.3500
L182.6900 134.3500
" />
<path d="M182.9900 138.1500
L182.6900 138.1500
" />
<path d="M183.5500 134.3500
L183.2500 134.3500
" />
<path d="M183.5500 138.1500
L183.2500 138.1500
" />
<path d="M184.1100 129.5300
L171.1900 129.5300
" />
<path d="M184.1100 129.5300
L184.1100 142.9700
" />
<path d="M184.1100 134.3500
L183.8100 134.3500
" />
<path d="M184.1100 138.1500
L183.8100 138.1500
" />
<path d="M184.1100 142.9700
L171.1900 142.9700
" />
<path d="M124.2950 115.7000
L124.2950 116.2000
" />
<path d="M124.5350 115.9400
L124.5350 126.0600
" />
<path d="M125.0350 115.7000
L124.2950 115.7000
" />
<path d="M125.0950 115.9400
L125.0950 126.0600
" />
<path d="M126.5950 115.9400
L126.5950 126.0600
" />
<path d="M127.9560 122.4660
L127.9210 122.4310
" />
<path d="M128.1720 122.2730
L128.1260 122.2260
" />
<path d="M130.2640 124.7750
L130.2180 124.7280
" />
<path d="M130.4700 124.5700
L130.4340 124.5350
" />
<path d="M131.4960 115.9400
L131.4960 126.0600
" />
<path d="M134.4560 115.9400
L124.5350 115.9400
" />
<path d="M134.4560 115.9400
L134.4560 126.0600
" />
<path d="M134.4560 126.0600
L124.5350 126.0600
" />
<path d="M127.6600 117.8160 A1.6805 1.6805 0.0 0 0 127.5147 118.5288" />
<path d="M127.5150 118.5000 A1.6800 1.6800 0.0 0 0 127.6602 119.1833" />
<path d="M129.8790 116.9650 A1.6805 1.6805 0.0 0 0 128.5120 116.9646" />
<path d="M128.5110 120.0350 A1.6805 1.6805 0.0 0 0 129.8780 120.0354" />
<path d="M130.7300 119.1840 A1.6805 1.6805 0.0 0 0 130.7304 117.8170" />
<circle cx="129.1950" cy="123.5000" r="1.6800" /> 
<path d="M178.6100 115.7200
L165.6900 115.7200
" />
<path d="M165.6900 114.2900
L165.6900 115.7200
" />
<path d="M177.1900 114.2900
L165.6900 114.2900
" />
<path d="M177.4900 110.9000
L177.1900 110.9000
" />
<path d="M178.0500 110.9000
L177.7500 110.9000
" />
<path d="M178.6100 110.9000
L178.3100 110.9000
" />
<path d="M177.4900 107.1000
L177.1900 107.1000
" />
<path d="M178.0500 107.1000
L177.7500 107.1000
" />
<path d="M178.6100 107.1000
L178.3100 107.1000
" />
<path d="M165.6900 103.7100
L177.1900 103.7100
" />
<path d="M177.1900 103.7100
L177.1900 114.2900
" />
<path d="M165.6900 102.2800
L165.6900 103.7100
" />
<path d="M178.6100 102.2800
L178.6100 115.7200
" />
<path d="M178.6100 102.2800
L165.6900 102.2800
" />
<path d="M178.6750 103.9200
L183.3160 103.9200
" />
<path d="M178.6750 107.1890
L180.1850 107.1890
" />
<path d="M178.6750 110.8900
L180.1850 110.8900
" />
<path d="M183.3160 114.1600
L183.3160 103.9200
" />
<path d="M180.1850 114.1600
L180.1850 103.9200
" />
<path d="M178.6750 114.1600
L178.6750 103.9200
" />
<path d="M178.6750 114.1600
L183.3160 114.1600
" />
<path d="M141.4300 112.7500
L142.4500 112.7500
" />
<path d="M142.4500 111.2800
L142.4500 114.2200
" />
<path d="M142.4500 114.2200
L147.8900 114.2200
" />
<path d="M146.8700 114.2200
L146.8700 111.2800
" />
<path d="M146.9900 114.2200
L146.9900 111.2800
" />
<path d="M147.1100 114.2200
L147.1100 111.2800
" />
<path d="M147.8900 111.2800
L142.4500 111.2800
" />
<path d="M147.8900 114.2200
L147.8900 111.2800
" />
<path d="M148.9100 112.7500
L147.8900 112.7500
" />
<path d="M184.1750 131.1300
L188.8160 131.1300
" />
<path d="M184.1750 134.3990
L185.6850 134.3990
" />
<path d="M184.1750 138.1000
L185.6850 138.1000
" />
<path d="M184.1750 141.3700
L184.1750 131.1300
" />
<path d="M184.1750 141.3700
L188.8160 141.3700
" />
<path d="M185.6850 141.3700
L185.6850 131.1300
" />
<path d="M188.8160 141.3700
L188.8160 131.1300
" />
<circle cx="216.0000" cy="119.0000" r="1.6800" /> 
<path d="M217.5350 124.6840 A1.6805 1.6805 0.0 0 0 217.6803 123.9712" />
<path d="M217.6800 124.0000 A1.6800 1.6800 0.0 0 0 217.5348 123.3167" />
<path d="M215.3160 125.5350 A1.6805 1.6805 0.0 0 0 216.6830 125.5354" />
<path d="M216.6840 122.4650 A1.6805 1.6805 0.0 0 0 215.3170 122.4646" />
<path d="M214.4650 123.3160 A1.6805 1.6805 0.0 0 0 214.4646 124.6830" />
<path d="M220.9000 126.8000
L220.9000 126.3000
" />
<path d="M220.6600 126.5600
L220.6600 116.4400
" />
<path d="M220.1600 126.8000
L220.9000 126.8000
" />
<path d="M220.1000 126.5600
L220.1000 116.4400
" />
<path d="M218.6000 126.5600
L218.6000 116.4400
" />
<path d="M217.2390 120.0340
L217.2740 120.0690
" />
<path d="M217.0230 120.2270
L217.0690 120.2740
" />
<path d="M214.9310 117.7250
L214.9770 117.7720
" />
<path d="M214.7250 117.9300
L214.7610 117.9650
" />
<path d="M213.6990 126.5600
L213.6990 116.4400
" />
<path d="M210.7390 126.5600
L220.6600 126.5600
" />
<path d="M210.7390 126.5600
L210.7390 116.4400
" />
<path d="M210.7390 116.4400
L220.6600 116.4400
" />
<path d="M161.7100 124.0349
L160.1810 124.0349
" />
<path d="M161.7100 124.0749
L160.1850 124.0749
" />
<path d="M161.7100 124.1149
L160.1890 124.1149
" />
<path d="M161.7100 124.1549
L160.1940 124.1549
" />
<path d="M161.7100 124.1949
L160.2000 124.1949
" />
<path d="M161.7100 124.2349
L160.2070 124.2349
" />
<path d="M161.7100 124.2749
L160.2140 124.2749
" />
<path d="M161.7100 124.3149
L160.2220 124.3149
" />
<path d="M161.7100 124.3549
L160.2300 124.3549
" />
<path d="M161.7100 124.3949
L160.2390 124.3949
" />
<path d="M161.7100 124.4349
L160.2490 124.4349
" />
<path d="M161.7100 124.4749
L160.2590 124.4749
" />
<path d="M161.7100 124.5159
L160.2700 124.5159
" />
<path d="M161.7100 124.5559
L160.2820 124.5559
" />
<path d="M161.7100 124.5959
L160.2950 124.5959
" />
<path d="M161.7100 124.6359
L160.3080 124.6359
" />
<path d="M161.7100 124.6759
L160.3220 124.6759
" />
<path d="M161.7100 124.7159
L160.3360 124.7159
" />
<path d="M161.7100 124.7559
L160.3520 124.7559
" />
<path d="M161.7100 124.7959
L160.3680 124.7959
" />
<path d="M161.7100 124.8359
L160.3850 124.8359
" />
<path d="M161.7100 124.8759
L160.4020 124.8759
" />
<path d="M161.7100 124.9159
L160.4210 124.9159
" />
<path d="M161.7100 124.9559
L160.4400 124.9559
" />
<path d="M161.7100 124.9959
L160.4600 124.9959
" />
<path d="M161.7100 125.0359
L160.4820 125.0359
" />
<path d="M161.7100 125.0759
L160.5030 125.0759
" />
<path d="M161.7100 125.1159
L160.5260 125.1159
" />
<path d="M161.7100 125.1559
L160.5500 125.1559
" />
<path d="M161.7100 125.1959
L160.5750 125.1959
" />
<path d="M161.7100 125.2359
L160.6010 125.2359
" />
<path d="M161.7100 125.2759
L160.6280 125.2759
" />
<path d="M161.7100 125.3159
L160.6550 125.3159
" />
<path d="M161.7100 125.3559
L160.6850 125.3559
" />
<path d="M161.7100 125.3959
L160.7150 125.3959
" />
<path d="M161.7100 125.4359
L160.7460 125.4359
" />
<path d="M161.7100 125.4759
L160.7790 125.4759
" />
<path d="M161.7100 125.5159
L160.8130 125.5159
" />
<path d="M161.7100 125.5559
L160.8490 125.5559
" />
<path d="M161.7100 125.5959
L160.8860 125.5959
" />
<path d="M161.7100 125.6359
L160.9240 125.6359
" />
<path d="M161.7100 125.6759
L160.9650 125.6759
" />
<path d="M161.7100 125.7159
L161.0070 125.7159
" />
<path d="M161.7100 125.7559
L161.0510 125.7559
" />
<path d="M161.7100 125.7959
L161.0970 125.7959
" />
<path d="M161.7100 125.8359
L161.1450 125.8359
" />
<path d="M161.7100 125.8759
L161.1960 125.8759
" />
<path d="M161.7100 125.9159
L161.2500 125.9159
" />
<path d="M161.7100 125.9559
L161.3070 125.9559
" />
<path d="M161.7100 125.9959
L161.3670 125.9959
" />
<path d="M161.7100 126.0359
L161.4310 126.0359
" />
<path d="M161.7100 126.0759
L161.4990 126.0759
" />
<path d="M163.0340 126.3959
L162.4660 126.3959
" />
<path d="M163.2680 126.3559
L162.2320 126.3559
" />
<path d="M163.4270 126.3159
L162.0730 126.3159
" />
<path d="M163.5550 126.2759
L161.9450 126.2759
" />
<path d="M163.6650 126.2359
L161.8350 126.2359
" />
<path d="M163.7610 126.1959
L161.7390 126.1959
" />
<path d="M163.8480 126.1559
L161.6520 126.1559
" />
<path d="M163.9280 126.1159
L161.5720 126.1159
" />
<path d="M164.0010 126.0759
L163.7900 126.0759
" />
<path d="M164.0690 126.0359
L163.7900 126.0359
" />
<path d="M164.1330 125.9959
L163.7900 125.9959
" />
<path d="M164.1930 125.9559
L163.7900 125.9559
" />
<path d="M164.2250 120.9901
L164.2250 121.4901
" />
<path d="M164.2500 125.9159
L163.7900 125.9159
" />
<path d="M164.3040 125.8759
L163.7900 125.8759
" />
<path d="M164.3550 125.8359
L163.7900 125.8359
" />
<path d="M164.4030 125.7959
L163.7900 125.7959
" />
<path d="M164.4490 125.7559
L163.7900 125.7559
" />
<path d="M164.4750 121.2401
L163.9750 121.2401
" />
<path d="M164.4930 125.7159
L163.7900 125.7159
" />
<path d="M164.5350 125.6759
L163.7900 125.6759
" />
<path d="M164.5760 125.6359
L163.7900 125.6359
" />
<path d="M164.6140 125.5959
L163.7900 125.5959
" />
<path d="M164.6510 125.5559
L163.7900 125.5559
" />
<path d="M164.6870 125.5159
L163.7900 125.5159
" />
<path d="M164.7210 125.4759
L163.7900 125.4759
" />
<path d="M164.7540 125.4359
L163.7900 125.4359
" />
<path d="M164.7850 125.3959
L163.7900 125.3959
" />
<path d="M164.8150 125.3559
L163.7900 125.3559
" />
<path d="M164.8450 125.3159
L163.7900 125.3159
" />
<path d="M164.8720 125.2759
L163.7900 125.2759
" />
<path d="M164.8990 125.2359
L163.7900 125.2359
" />
<path d="M164.9250 125.1959
L163.7900 125.1959
" />
<path d="M164.9500 125.1559
L163.7900 125.1559
" />
<path d="M164.9740 125.1159
L163.7900 125.1159
" />
<path d="M164.9970 125.0759
L163.7900 125.0759
" />
<path d="M165.0180 125.0359
L163.7900 125.0359
" />
<path d="M165.0400 124.9959
L163.7900 124.9959
" />
<path d="M165.0600 124.9559
L163.7900 124.9559
" />
<path d="M165.0790 124.9159
L163.7900 124.9159
" />
<path d="M165.0980 124.8759
L163.7900 124.8759
" />
<path d="M165.1150 124.8359
L163.7900 124.8359
" />
<path d="M165.1320 124.7959
L163.7900 124.7959
" />
<path d="M165.1480 124.7559
L163.7900 124.7559
" />
<path d="M165.1640 124.7159
L163.7900 124.7159
" />
<path d="M165.1780 124.6759
L163.7900 124.6759
" />
<path d="M165.1920 124.6359
L163.7900 124.6359
" />
<path d="M165.2050 124.5959
L163.7900 124.5959
" />
<path d="M165.2180 124.5559
L163.7900 124.5559
" />
<path d="M165.2300 124.5159
L163.7900 124.5159
" />
<path d="M165.2410 124.4749
L163.7900 124.4749
" />
<path d="M165.2510 124.4349
L163.7900 124.4349
" />
<path d="M165.2610 124.3949
L163.7900 124.3949
" />
<path d="M165.2700 124.3549
L163.7900 124.3549
" />
<path d="M165.2780 124.3149
L163.7900 124.3149
" />
<path d="M165.2860 124.2749
L163.7900 124.2749
" />
<path d="M165.2930 124.2349
L163.7900 124.2349
" />
<path d="M165.3000 124.1949
L163.7900 124.1949
" />
<path d="M165.3060 124.1549
L163.7900 124.1549
" />
<path d="M165.3110 124.1149
L163.7900 124.1149
" />
<path d="M165.3150 124.0749
L163.7900 124.0749
" />
<path d="M165.3190 124.0349
L163.7900 124.0349
" />
<path d="M165.3230 123.9949
L160.1770 123.9949
" />
<path d="M165.3260 123.9549
L160.1740 123.9549
" />
<path d="M165.3280 123.9149
L160.1720 123.9149
" />
<path d="M165.3290 123.8749
L160.1710 123.8749
" />
<path d="M165.3300 123.7949
L160.1700 123.7949
" />
<path d="M165.3300 123.8349
L160.1700 123.8349
" />
<circle cx="162.7500" cy="123.7949" r="2.6200" /> 
<circle cx="215.5550" cy="134.5000" r="1.6800" /> 
<path d="M217.0900 140.1840 A1.6805 1.6805 0.0 0 0 217.2353 139.4712" />
<path d="M217.2350 139.5000 A1.6800 1.6800 0.0 0 0 217.0898 138.8167" />
<path d="M214.8710 141.0350 A1.6805 1.6805 0.0 0 0 216.2380 141.0354" />
<path d="M216.2390 137.9650 A1.6805 1.6805 0.0 0 0 214.8720 137.9646" />
<path d="M214.0200 138.8160 A1.6805 1.6805 0.0 0 0 214.0196 140.1830" />
<path d="M220.4550 142.3000
L220.4550 141.8000
" />
<path d="M220.2150 142.0600
L220.2150 131.9400
" />
<path d="M219.7150 142.3000
L220.4550 142.3000
" />
<path d="M219.6550 142.0600
L219.6550 131.9400
" />
<path d="M218.1550 142.0600
L218.1550 131.9400
" />
<path d="M216.7940 135.5340
L216.8290 135.5690
" />
<path d="M216.5780 135.7270
L216.6240 135.7740
" />
<path d="M214.4860 133.2250
L214.5320 133.2720
" />
<path d="M214.2800 133.4300
L214.3160 133.4650
" />
<path d="M213.2540 142.0600
L213.2540 131.9400
" />
<path d="M210.2940 142.0600
L220.2150 142.0600
" />
<path d="M210.2940 142.0600
L210.2940 131.9400
" />
<path d="M210.2940 131.9400
L220.2150 131.9400
" />
<path d="M205.9200 136.8200
L205.6750 136.8200
" />
<path d="M205.9200 133.1800
L205.9200 136.8200
" />
<path d="M205.9200 133.1800
L205.6750 133.1800
" />
<path d="M203.8250 136.8200
L203.5800 136.8200
" />
<path d="M203.8250 133.1800
L203.5800 133.1800
" />
<path d="M203.5800 133.1800
L203.5800 136.8200
" />
</g> 
</svg>
